<?xml version="1.0" encoding="utf-8"?>
<!-- Generator: Adobe Illustrator 25.2.0, SVG Export Plug-In . SVG Version: 6.00 Build 0)  -->
<svg version="1.1" id="Layer_1" xmlns="http://www.w3.org/2000/svg" xmlns:xlink="http://www.w3.org/1999/xlink" x="0px" y="0px"
	 viewBox="0 0 59.1 9.8" style="enable-background:new 0 0 59.1 9.8;" xml:space="preserve">
<style type="text/css">
	.st0{fill:#2A3860;}
	.st1{fill:#00B9DB;}
</style>
<path class="st0" d="M11.1,6c0,2.5-1.5,3.8-4,3.8c-2.5,0-4-1.2-4-3.8V0.2h2.1V6c0,1,0.3,2,1.9,2c1.5,0,2-0.6,2-2V0.2h2.1V6L11.1,6z"
	/>
<path class="st0" d="M12.9,0.2h4.4c1.8,0,3,0.6,3,2.3c0,0.9-0.5,1.6-1.3,2c1.1,0.3,1.7,1.2,1.7,2.4c0,1.9-1.6,2.7-3.3,2.7h-4.6V0.2
	L12.9,0.2z M15,4L15,4h2.1c0.7,0,1.3-0.3,1.3-1.1c0-0.9-0.7-1.1-1.4-1.1H15V4L15,4z M15,8L15,8h2.2c0.8,0,1.5-0.3,1.5-1.2
	c0-1-0.6-1.3-1.5-1.3H15V8L15,8z"/>
<path class="st0" d="M24.8,0.2h2.1l3.5,9.4h-2.2l-0.7-2.1h-3.5l-0.7,2.1h-2.1L24.8,0.2L24.8,0.2z M24.6,6L24.6,6H27l-1.2-3.5h0
	L24.6,6L24.6,6z"/>
<path class="st0" d="M2.5,8.5c0,0.7-0.6,1.3-1.3,1.3C0.6,9.7,0,9.2,0,8.5c0-0.7,0.6-1.3,1.3-1.3C1.9,7.2,2.5,7.8,2.5,8.5L2.5,8.5z"
	/>
<path class="st1" d="M36.2,7.6h3.6v2h-8c-0.1-0.5,0-1.6,0.1-1.8C32.7,6.9,36,4.2,36,2.8c0-0.5-0.4-0.7-0.9-0.7c-0.2,0-0.5,0-0.7,0.1
	L34,3.4c-0.7,0-1.4,0-2-0.1l-0.2-2.5C32.6,0.3,34.1,0,35.5,0c2.2,0,3.8,0.7,3.8,2.7C39.3,4.6,37.9,5.6,36.2,7.6L36.2,7.6z"/>
<path class="st1" d="M49.3,4.9c0,2.9-1.4,4.9-4.3,4.9c-2.9,0-4.3-2-4.3-4.9C40.6,2,42.1,0,44.9,0C47.8,0,49.3,2,49.3,4.9L49.3,4.9z
	 M44.9,2.1L44.9,2.1c-0.9,0-1,1.8-1,2.8c0,1,0.1,2.9,1,2.9c1.1,0,1-1.9,1-2.9C45.9,3.9,46,2.1,44.9,2.1L44.9,2.1z"/>
<path class="st1" d="M59.1,4.9c0,2.9-1.4,4.9-4.3,4.9c-2.9,0-4.3-2-4.3-4.9C50.4,2,51.9,0,54.7,0C57.6,0,59.1,2,59.1,4.9L59.1,4.9z
	 M54.7,2.1L54.7,2.1c-0.9,0-1,1.8-1,2.8c0,1,0.1,2.9,1,2.9c1.1,0,1-1.9,1-2.9C55.7,3.9,55.8,2.1,54.7,2.1L54.7,2.1z"/>
</svg>
