<?xml version="1.0" encoding="utf-8"?>
<!-- Generator: Adobe Illustrator 25.2.0, SVG Export Plug-In . SVG Version: 6.00 Build 0)  -->
<svg version="1.1" id="Layer_1" xmlns="http://www.w3.org/2000/svg" xmlns:xlink="http://www.w3.org/1999/xlink" x="0px" y="0px"
	 viewBox="0 0 236.2 61.3" style="enable-background:new 0 0 236.2 61.3;" xml:space="preserve">
<style type="text/css">
	.st0{fill:#124C71;}
	.st1{fill:#FFFFFF;}
</style>
<g>
	<g>
		<path class="st0" d="M236.1,30.6c0,16.9-13.7,30.6-30.6,30.6c-16.9,0-30.6-13.7-30.6-30.6c0-16.9,13.7-30.6,30.6-30.6
			C222.3,0,236.1,13.7,236.1,30.6z"/>
		<g>
			<g>
				<polygon class="st1" points="228.3,32.7 203.7,31.1 203.6,30.7 225.7,27.9 225.8,28.3 205.9,30.8 228.3,32.3 				"/>
			</g>
		</g>
		<g>
			<g>
				<polygon class="st1" points="180.9,34.1 180.8,33.7 201.5,31 183.6,30 183.7,29.5 203.8,30.7 203.8,31.1 				"/>
			</g>
		</g>
		<g>
			<g>
				<polygon class="st1" points="207.3,53.6 204.7,33.2 204,50.5 203.6,50.5 204.3,30.6 204.7,30.6 207.8,53.5 				"/>
			</g>
		</g>
		<g>
			<polygon class="st1" points="204.3,30.8 201.4,7.4 201.8,7.4 204.5,28.4 205.7,7 206.1,7 204.7,30.8 			"/>
		</g>
		<g>
			<g>
				<polygon class="st1" points="222.1,44.5 205.9,32.1 216.2,43 215.9,43.3 203.7,30.4 204,30.1 222.3,44.2 				"/>
			</g>
		</g>
		<g>
			<g>
				<polygon class="st1" points="203.8,30.5 189.2,19.3 189.5,19 202.3,28.8 188.2,13.1 188.6,12.8 204.1,30.2 				"/>
			</g>
		</g>
		<g>
			<g>
				<polygon class="st1" points="192.8,46.4 192.5,46.2 203.1,32.4 187.4,46.4 187.1,46.1 204.5,30.5 204.8,30.8 				"/>
			</g>
		</g>
		<g>
			<g>
				<polygon class="st1" points="204.7,30.9 204.4,30.7 218.9,11.6 219.3,11.8 206.1,29.1 219.6,17 219.8,17.3 				"/>
			</g>
		</g>
		<g>
			<g>
				<polygon class="st1" points="225.9,41.7 203.2,30.5 224.1,35.8 224,36.2 207,31.9 226.1,41.3 				"/>
			</g>
		</g>
		<g>
			<g>
				<polygon class="st1" points="204.5,31.2 182.2,24.9 182.4,24.5 202.4,30.1 183.6,20.8 183.8,20.4 204.7,30.8 				"/>
			</g>
		</g>
		<g>
			<g>
				<polygon class="st1" points="198.4,53.3 198,53.2 203.6,33.1 194.3,51.9 193.9,51.7 204.2,30.9 204.6,31 				"/>
			</g>
		</g>
		<g>
			<g>
				<polygon class="st1" points="204.6,31.3 204.2,31.1 210.1,11 210.5,11.1 205.3,29 215,9.5 215.4,9.7 				"/>
			</g>
		</g>
		<g>
			<polygon class="st1" points="212,52.5 204.2,30.7 204.6,30.5 215.8,50.5 215.4,50.7 205.4,33 212.4,52.3 			"/>
		</g>
		<g>
			<g>
				<polygon class="st1" points="204.2,30.8 195.8,15.8 196.1,15.6 203.5,28.6 197.8,11.9 198.2,11.8 204.6,30.6 				"/>
			</g>
		</g>
		<g>
			<g>
				<polygon class="st1" points="187,41.4 186.8,41 202.8,31.7 182.7,38.5 182.5,38.1 206.6,29.9 				"/>
			</g>
		</g>
		<g>
			<g>
				<polygon class="st1" points="204,31.3 203.8,30.9 225.9,19.4 226.1,19.7 206.2,30.1 226.8,23.6 227,24 				"/>
			</g>
		</g>
		<g>
			<path class="st1" d="M189.5,13c0,0.6-0.5,1.1-1.1,1.1c-0.6,0-1.1-0.5-1.1-1.1c0-0.6,0.5-1.1,1.1-1.1
				C189,11.9,189.5,12.4,189.5,13z"/>
		</g>
		<g>
			<path class="st1" d="M196.5,15.1c0,0.5-0.4,0.8-0.8,0.8c-0.5,0-0.8-0.4-0.8-0.8c0-0.5,0.4-0.8,0.8-0.8
				C196.2,14.3,196.5,14.6,196.5,15.1z"/>
		</g>
		<g>
			<path class="st1" d="M198.5,11.1c0,0.5-0.4,0.8-0.8,0.8c-0.5,0-0.8-0.4-0.8-0.8c0-0.5,0.4-0.8,0.8-0.8
				C198.1,10.3,198.5,10.7,198.5,11.1z"/>
		</g>
		<g>
			<path class="st1" d="M202.6,7c0,0.6-0.5,1.1-1.1,1.1s-1.1-0.5-1.1-1.1c0-0.6,0.5-1.1,1.1-1.1S202.6,6.4,202.6,7z"/>
		</g>
		<g>
			<path class="st1" d="M206.8,6.6c0,0.5-0.4,0.8-0.8,0.8c-0.5,0-0.8-0.4-0.8-0.8c0-0.5,0.4-0.8,0.8-0.8
				C206.4,5.7,206.8,6.1,206.8,6.6z"/>
		</g>
		<g>
			<path class="st1" d="M211.4,11.1c0,0.6-0.5,1.1-1.1,1.1c-0.6,0-1.1-0.5-1.1-1.1c0-0.6,0.5-1.1,1.1-1.1
				C210.9,10,211.4,10.4,211.4,11.1z"/>
		</g>
		<g>
			<path class="st1" d="M216.3,9c0,0.5-0.4,0.8-0.8,0.8c-0.5,0-0.8-0.4-0.8-0.8c0-0.5,0.4-0.8,0.8-0.8C215.9,8.2,216.3,8.6,216.3,9z
				"/>
		</g>
		<g>
			<path class="st1" d="M220.2,11.5c0,0.5-0.4,0.8-0.8,0.8s-0.8-0.4-0.8-0.8c0-0.5,0.4-0.8,0.8-0.8S220.2,11,220.2,11.5z"/>
		</g>
		<g>
			<path class="st1" d="M226.7,19.5c0,0.5-0.4,0.8-0.8,0.8c-0.5,0-0.8-0.4-0.8-0.8c0-0.5,0.4-0.8,0.8-0.8
				C226.4,18.7,226.7,19.1,226.7,19.5z"/>
		</g>
		<g>
			<path class="st1" d="M228.4,23.6c0,0.5-0.4,0.8-0.8,0.8s-0.8-0.4-0.8-0.8c0-0.5,0.4-0.8,0.8-0.8S228.4,23.1,228.4,23.6z"/>
		</g>
		<g>
			<path class="st1" d="M226,28.1c0,0.5-0.4,0.8-0.8,0.8c-0.5,0-0.8-0.4-0.8-0.8c0-0.5,0.4-0.8,0.8-0.8
				C225.7,27.3,226,27.7,226,28.1z"/>
		</g>
		<g>
			<path class="st1" d="M229.4,32.5c0,0.6-0.5,1.1-1.1,1.1c-0.6,0-1.1-0.5-1.1-1.1c0-0.6,0.5-1.1,1.1-1.1
				C228.9,31.4,229.4,31.9,229.4,32.5z"/>
		</g>
		<g>
			<path class="st1" d="M225,36c0,0.5-0.4,0.8-0.8,0.8s-0.8-0.4-0.8-0.8c0-0.5,0.4-0.8,0.8-0.8S225,35.5,225,36z"/>
		</g>
		<g>
			<path class="st1" d="M226.9,41.5c0,0.5-0.4,0.8-0.8,0.8c-0.5,0-0.8-0.4-0.8-0.8c0-0.5,0.4-0.8,0.8-0.8
				C226.5,40.7,226.9,41.1,226.9,41.5z"/>
		</g>
		<g>
			<path class="st1" d="M223.3,44.3c0,0.6-0.5,1.1-1.1,1.1c-0.6,0-1.1-0.5-1.1-1.1c0-0.6,0.5-1.1,1.1-1.1
				C222.8,43.2,223.3,43.7,223.3,44.3z"/>
		</g>
		<g>
			<path class="st1" d="M217.1,43.4c0,0.5-0.4,0.8-0.8,0.8s-0.8-0.4-0.8-0.8c0-0.5,0.4-0.8,0.8-0.8S217.1,42.9,217.1,43.4z"/>
		</g>
		<g>
			<path class="st1" d="M216.3,50.2c0,0.5-0.4,0.8-0.8,0.8c-0.5,0-0.8-0.4-0.8-0.8c0-0.5,0.4-0.8,0.8-0.8
				C215.9,49.3,216.3,49.7,216.3,50.2z"/>
		</g>
		<g>
			<path class="st1" d="M213.5,52.8c0,0.6-0.5,1.1-1.1,1.1c-0.6,0-1.1-0.5-1.1-1.1c0-0.6,0.5-1.1,1.1-1.1
				C213,51.7,213.5,52.2,213.5,52.8z"/>
		</g>
		<g>
			<path class="st1" d="M208.8,53.9c0,0.6-0.5,1.1-1.1,1.1c-0.6,0-1.1-0.5-1.1-1.1c0-0.6,0.5-1.1,1.1-1.1
				C208.3,52.8,208.8,53.3,208.8,53.9z"/>
		</g>
		<g>
			<path class="st1" d="M204.6,50.6c0,0.5-0.4,0.8-0.8,0.8c-0.5,0-0.8-0.4-0.8-0.8c0-0.5,0.4-0.8,0.8-0.8
				C204.3,49.8,204.6,50.1,204.6,50.6z"/>
		</g>
		<g>
			<path class="st1" d="M198.8,53.3c0,0.5-0.4,0.8-0.8,0.8c-0.5,0-0.8-0.4-0.8-0.8c0-0.5,0.4-0.8,0.8-0.8
				C198.5,52.5,198.8,52.9,198.8,53.3z"/>
		</g>
		<g>
			<path class="st1" d="M194.9,51.8c0,0.5-0.4,0.8-0.8,0.8s-0.8-0.4-0.8-0.8c0-0.5,0.4-0.8,0.8-0.8S194.9,51.4,194.9,51.8z"/>
		</g>
		<g>
			<path class="st1" d="M193.6,46.3c0,0.6-0.5,1.1-1.1,1.1c-0.6,0-1.1-0.5-1.1-1.1c0-0.6,0.5-1.1,1.1-1.1
				C193.1,45.2,193.6,45.7,193.6,46.3z"/>
		</g>
		<g>
			<path class="st1" d="M188.1,46.4c0,0.5-0.4,0.8-0.8,0.8c-0.5,0-0.8-0.4-0.8-0.8c0-0.5,0.4-0.8,0.8-0.8
				C187.7,45.6,188.1,46,188.1,46.4z"/>
		</g>
		<g>
			<path class="st1" d="M187.9,41.2c0,0.5-0.4,0.8-0.8,0.8s-0.8-0.4-0.8-0.8c0-0.5,0.4-0.8,0.8-0.8S187.9,40.8,187.9,41.2z"/>
		</g>
		<g>
			<path class="st1" d="M183.7,38.3c0,0.6-0.5,1.1-1.1,1.1c-0.6,0-1.1-0.5-1.1-1.1c0-0.6,0.5-1.1,1.1-1.1
				C183.2,37.2,183.7,37.7,183.7,38.3z"/>
		</g>
		<g>
			<path class="st1" d="M181.7,33.9c0,0.5-0.4,0.8-0.8,0.8c-0.5,0-0.8-0.4-0.8-0.8c0-0.5,0.4-0.8,0.8-0.8
				C181.3,33.1,181.7,33.4,181.7,33.9z"/>
		</g>
		<g>
			<path class="st1" d="M184.3,29.8c0,0.5-0.4,0.8-0.8,0.8c-0.5,0-0.8-0.4-0.8-0.8c0-0.5,0.4-0.8,0.8-0.8
				C183.9,28.9,184.3,29.3,184.3,29.8z"/>
		</g>
		<g>
			<path class="st1" d="M183.1,24.7c0,0.5-0.4,0.8-0.8,0.8c-0.5,0-0.8-0.4-0.8-0.8c0-0.5,0.4-0.8,0.8-0.8
				C182.8,23.9,183.1,24.3,183.1,24.7z"/>
		</g>
		<g>
			<path class="st1" d="M184.5,20.4c0,0.6-0.5,1.1-1.1,1.1c-0.6,0-1.1-0.5-1.1-1.1c0-0.6,0.5-1.1,1.1-1.1
				C184,19.3,184.5,19.8,184.5,20.4z"/>
		</g>
		<g>
			<path class="st1" d="M189.9,19.1c0,0.5-0.4,0.8-0.8,0.8c-0.5,0-0.8-0.4-0.8-0.8c0-0.5,0.4-0.8,0.8-0.8
				C189.6,18.3,189.9,18.6,189.9,19.1z"/>
		</g>
		<g>
			<path class="st1" d="M220.5,17.6c0,0.6-0.5,1.1-1.1,1.1c-0.6,0-1.1-0.5-1.1-1.1c0-0.6,0.5-1.1,1.1-1.1
				C220,16.5,220.5,17,220.5,17.6z"/>
		</g>
	</g>
	<g>
		<path class="st0" d="M40.5,55c-0.1-0.1-0.2-0.3-0.2-0.5V12.2c0-0.2,0.1-0.4,0.2-0.5c0.1-0.1,0.3-0.2,0.5-0.2h5.7
			c0.2,0,0.4,0.1,0.5,0.2c0.1,0.1,0.2,0.3,0.2,0.5v42.2c0,0.2-0.1,0.4-0.2,0.5c-0.1,0.1-0.3,0.2-0.5,0.2H41
			C40.8,55.2,40.6,55.1,40.5,55z"/>
		<path class="st0" d="M86,17.5c-0.1,0.1-0.3,0.2-0.5,0.2H64.2c-0.2,0-0.3,0.1-0.3,0.3v11.7c0,0.2,0.1,0.3,0.3,0.3h14.3
			c0.2,0,0.4,0.1,0.5,0.2c0.1,0.1,0.2,0.3,0.2,0.5v4.7c0,0.2-0.1,0.4-0.2,0.5c-0.1,0.1-0.3,0.2-0.5,0.2H64.2c-0.2,0-0.3,0.1-0.3,0.3
			v12.1c0,0.2,0.1,0.3,0.3,0.3h21.3c0.2,0,0.4,0.1,0.5,0.2c0.1,0.1,0.2,0.3,0.2,0.5v4.7c0,0.2-0.1,0.4-0.2,0.5
			c-0.1,0.1-0.3,0.2-0.5,0.2H57.4c-0.2,0-0.4-0.1-0.5-0.2c-0.1-0.1-0.2-0.3-0.2-0.5V12.2c0-0.2,0.1-0.4,0.2-0.5
			c0.1-0.1,0.3-0.2,0.5-0.2h28.1c0.2,0,0.4,0.1,0.5,0.2c0.1,0.1,0.2,0.3,0.2,0.5V17C86.2,17.2,86.1,17.4,86,17.5z"/>
		<path class="st0" d="M131.3,55c-0.1-0.1-0.2-0.3-0.2-0.5V12.2c0-0.2,0.1-0.4,0.2-0.5c0.1-0.1,0.3-0.2,0.5-0.2h15.2
			c3,0,5.6,0.5,7.8,1.6c2.2,1,4,2.5,5.2,4.5c1.2,1.9,1.8,4.2,1.8,6.8v18.1c0,2.6-0.6,4.8-1.8,6.8c-1.2,1.9-3,3.4-5.2,4.5
			c-2.2,1-4.9,1.6-7.8,1.6h-15.2C131.6,55.2,131.4,55.1,131.3,55z M138.6,49h8.7c2.2,0,4-0.7,5.3-2.1c1.3-1.4,2-3.3,2-5.6V25.5
			c0-2.4-0.7-4.3-2-5.7c-1.3-1.4-3.1-2.1-5.4-2.1h-8.7c-0.2,0-0.3,0.1-0.3,0.3v30.6C138.3,48.9,138.4,49,138.6,49z"/>
	</g>
	<path class="st0" d="M31.7,41.4c-0.5,4.6-2.1,8.1-4.8,10.5c-2.7,2.4-6.4,3.7-10.9,3.7c-3.2,0-6-0.8-8.4-2.4
		c-2.4-1.6-4.3-3.9-5.6-6.9c-1.3-3-2-6.4-2-10.2v-5.7c0-3.9,0.7-7.3,2-10.3c1.3-3,3.2-5.3,5.7-6.9c2.5-1.6,5.3-2.4,8.6-2.4
		c4.6,0,8.2,1.3,10.8,3.8c2.6,2.5,4.2,6,4.6,10.5h-3.6c-0.9-7.4-4.8-11.1-11.8-11.1c-3.9,0-6.9,1.5-9.2,4.4c-2.3,3-3.5,7.1-3.5,12.3
		v5.3c0,5,1.1,9.1,3.4,12.1c2.2,3,5.3,4.5,9.1,4.5c3.8,0,6.6-0.9,8.5-2.8c1.9-1.8,3.1-4.6,3.5-8.3H31.7z"/>
	<path class="st0" d="M116.4,38.8l-0.2,1.8c-0.3,2.9-1.2,5.1-2.7,6.5c-1.4,1.3-3.6,2-6.5,2c-2.9,0-5.1-1.1-6.8-3.3
		c-1.8-2.4-2.7-5.8-2.7-10v-4.9c0-4.4,0.9-7.8,2.8-10.1c1.7-2.2,4-3.3,6.9-3.3c5.5,0,8.2,2.6,8.9,8.5l0.2,1.8h7.4l-0.2-2.2
		c-0.4-4.6-2.1-8.3-4.9-11c-2.8-2.7-6.7-4.1-11.5-4.1c-3.4,0-6.4,0.9-9.1,2.6c-2.6,1.7-4.7,4.2-6.1,7.3c-1.3,3-2,6.5-2,10.4V36
		c0,3.8,0.7,7.3,2.1,10.3c1.4,3.1,3.4,5.5,6,7.2c2.6,1.7,5.6,2.6,8.9,2.6c4.7,0,8.5-1.3,11.5-3.9c2.9-2.6,4.6-6.3,5.1-11.1l0.2-2.3
		H116.4z"/>
</g>
</svg>
