<?xml version="1.0" encoding="utf-8"?>
<!-- Generator: Adobe Illustrator 25.2.0, SVG Export Plug-In . SVG Version: 6.00 Build 0)  -->
<svg version="1.1" id="Layer_1" xmlns="http://www.w3.org/2000/svg" xmlns:xlink="http://www.w3.org/1999/xlink" x="0px" y="0px"
	 viewBox="0 0 236.2 97.1" style="enable-background:new 0 0 236.2 97.1;" xml:space="preserve">
<style type="text/css">
	.st0{fill:#FFFFFF;}
</style>
<g>
	<g>
		<path class="st0" d="M205.5,0c-16.9,0-30.6,13.7-30.6,30.6s13.7,30.6,30.6,30.6s30.6-13.7,30.6-30.6S222.4,0,205.5,0z M228.3,33.6
			c-0.5,0-0.9-0.3-1-0.8L208,31.5l15.6,3.9c0.2-0.2,0.4-0.3,0.6-0.3c0.5,0,0.8,0.4,0.8,0.8c0,0.5-0.4,0.8-0.8,0.8
			c-0.4,0-0.7-0.3-0.8-0.6l-14.9-3.8l17.1,8.4c0.1-0.1,0.3-0.2,0.5-0.2c0.5,0,0.8,0.4,0.8,0.8c0,0.5-0.4,0.8-0.8,0.8
			c-0.5,0-0.8-0.4-0.8-0.8l-16.9-8.4l13.4,10.2c0.2-0.1,0.4-0.2,0.6-0.2c0.6,0,1.1,0.5,1.1,1.1s-0.5,1.1-1.1,1.1s-1.1-0.5-1.1-1.1
			c0-0.1,0-0.2,0.1-0.3l-13.8-10.6l8.7,9.1c0.1,0,0.2,0,0.2,0c0.5,0,0.8,0.4,0.8,0.8c0,0.5-0.4,0.8-0.8,0.8c-0.5,0-0.8-0.4-0.8-0.8
			c0-0.1,0-0.2,0.1-0.3l-9.1-9.6l8.9,15.9h0.1c0.5,0,0.8,0.4,0.8,0.8s-0.4,0.8-0.8,0.8c-0.5,0-0.8-0.4-0.8-0.8c0-0.1,0-0.3,0.1-0.4
			l-8.5-15l6.1,17c0,0,0,0,0.1,0c0.6,0,1.1,0.5,1.1,1.1s-0.5,1.1-1.1,1.1s-1.1-0.5-1.1-1.1c0-0.3,0.1-0.6,0.4-0.8l-6.2-17.2l2.4,18
			c0.5,0.1,0.9,0.5,0.9,1.1s-0.5,1.1-1.1,1.1s-1.1-0.5-1.1-1.1c0-0.4,0.2-0.7,0.5-0.9L205,34.9l-0.5,14.8c0.3,0.1,0.4,0.4,0.4,0.7
			c0,0.5-0.4,0.8-0.8,0.8c-0.5,0-0.8-0.4-0.8-0.8c0-0.3,0.2-0.6,0.5-0.8l0.6-16.2L199,52.6c0.1,0.1,0.2,0.3,0.2,0.5
			c0,0.5-0.4,0.8-0.8,0.8c-0.5,0-0.8-0.4-0.8-0.8c0-0.5,0.4-0.8,0.8-0.8l5-17.8l-8.2,16.6c0.1,0.1,0.2,0.3,0.2,0.5
			c0,0.5-0.4,0.8-0.8,0.8c-0.5,0-0.8-0.4-0.8-0.8c0-0.5,0.4-0.8,0.8-0.8l8.2-16.6L194,45.6c0.1,0.1,0.1,0.3,0.1,0.5
			c0,0.6-0.5,1.1-1.1,1.1s-1.1-0.5-1.1-1.1s0.5-1.1,1.1-1.1c0.2,0,0.3,0,0.4,0.1l8.9-11.6L188,46.1c0,0.1,0.1,0.2,0.1,0.3
			c0,0.5-0.4,0.8-0.8,0.8c-0.5,0-0.8-0.4-0.8-0.8c0-0.5,0.4-0.8,0.8-0.8c0.1,0,0.1,0,0.2,0l13.9-12.4l-13.5,7.9v0.1
			c0,0.5-0.4,0.8-0.8,0.8c-0.5,0-0.8-0.4-0.8-0.8c0-0.5,0.4-0.8,0.8-0.8c0.1,0,0.3,0,0.4,0.1l13.9-8.2l-17.6,6
			c0,0.6-0.5,1.1-1.1,1.1s-1.1-0.5-1.1-1.1s0.5-1.1,1.1-1.1c0.3,0,0.6,0.2,0.8,0.4l17.6-6l-19.4,2.6c-0.1,0.3-0.4,0.6-0.8,0.6
			c-0.5,0-0.8-0.4-0.8-0.8c0-0.5,0.4-0.8,0.8-0.8c0.3,0,0.5,0.2,0.7,0.4l18.2-2.4l-15.6-0.9c-0.1,0.3-0.4,0.4-0.7,0.4
			c-0.5,0-0.8-0.4-0.8-0.8c0-0.5,0.4-0.8,0.8-0.8c0.3,0,0.6,0.2,0.8,0.5l16.8,0.9l-18.1-5c-0.1,0.1-0.3,0.2-0.6,0.2
			c-0.5,0-0.8-0.4-0.8-0.8c0-0.5,0.4-0.8,0.8-0.8c0.4,0,0.8,0.3,0.8,0.7l17.7,4.9l-16.7-8.3c-0.2,0.1-0.4,0.2-0.6,0.2
			c-0.6,0-1.1-0.5-1.1-1.1s0.5-1.1,1.1-1.1s1.1,0.5,1.1,1.1c0,0.1,0,0.2,0,0.2l17.3,8.5l-12.2-9.4c-0.1,0.1-0.3,0.2-0.5,0.2
			c-0.5,0-0.8-0.4-0.8-0.8c0-0.5,0.4-0.8,0.8-0.8c0.5,0,0.8,0.4,0.8,0.8l0,0l11,8.5L188.9,14c-0.1,0.1-0.3,0.1-0.4,0.1
			c-0.6,0-1.1-0.5-1.1-1.1s0.5-1.1,1.1-1.1s1.1,0.5,1.1,1.1c0,0.2-0.1,0.4-0.1,0.5l13.3,14.9l-7-12.4c-0.4,0-0.8-0.4-0.8-0.8
			c0-0.5,0.4-0.8,0.8-0.8c0.5,0,0.8,0.4,0.8,0.8c0,0.2-0.1,0.4-0.2,0.5l6.4,11.4L197.7,12h0.1h-0.1c-0.5,0-0.8-0.4-0.8-0.8
			s0.4-0.8,0.8-0.8c0.5,0,0.8,0.4,0.8,0.8c0,0.3-0.2,0.6-0.4,0.7l0.3-0.1l5.4,15.9L201.4,8c-0.5-0.1-0.9-0.5-0.9-1.1
			s0.5-1.1,1.1-1.1s1.1,0.5,1.1,1.1c0,0.4-0.2,0.8-0.6,0.9l2.3,18.7l1.1-19.4c-0.3-0.1-0.4-0.4-0.4-0.7c0-0.5,0.4-0.8,0.8-0.8
			c0.5,0,0.8,0.4,0.8,0.8c0,0.3-0.2,0.6-0.5,0.7L205,27.3l4.5-15.5c-0.3-0.2-0.5-0.5-0.5-0.9c0-0.6,0.5-1.1,1.1-1.1s1.1,0.5,1.1,1.1
			s-0.5,1-1,1.1L206,27.3l8.9-17.8c-0.1-0.1-0.2-0.3-0.2-0.5c0-0.5,0.4-0.8,0.8-0.8c0.5,0,0.8,0.4,0.8,0.8c0,0.4-0.4,0.8-0.8,0.8
			l-8.7,17.3l11.7-15.4c0-0.1,0-0.2,0-0.2c0-0.5,0.4-0.8,0.8-0.8s0.8,0.4,0.8,0.8c0,0.5-0.4,0.8-0.8,0.8c-0.1,0-0.2,0-0.3-0.1
			l-11.9,15.6l11.1-9.9c0-0.1-0.1-0.2-0.1-0.3c0-0.6,0.5-1.1,1.1-1.1s1.1,0.5,1.1,1.1s-0.5,1.1-1.1,1.1c-0.2,0-0.4-0.1-0.6-0.2
			L207.2,29l17.9-9.4c0,0,0,0,0-0.1c0-0.5,0.4-0.8,0.8-0.8c0.5,0,0.8,0.4,0.8,0.8s-0.4,0.8-0.8,0.8c-0.2,0-0.3-0.1-0.4-0.1L208,29.4
			l18.9-6l0,0c0.1-0.4,0.4-0.7,0.8-0.7c0.5,0,0.8,0.4,0.8,0.8c0,0.5-0.4,0.8-0.8,0.8c-0.3,0-0.5-0.1-0.6-0.3l-17.9,5.7l15.3-1.9
			c0.1-0.4,0.4-0.6,0.8-0.6c0.5,0,0.8,0.4,0.8,0.8c0,0.5-0.4,0.8-0.8,0.8c-0.3,0-0.5-0.1-0.6-0.3l-16.9,2.1l19.6,1.3
			c0.2-0.4,0.6-0.7,1-0.7c0.6,0,1.1,0.5,1.1,1.1C229.4,33.1,228.9,33.6,228.3,33.6z"/>
	</g>
	<g>
		<path class="st0" d="M41.7,72c-0.4-0.2-0.7-0.5-0.9-0.8c-0.2-0.4-0.3-0.8-0.3-1.2V67c0-0.5,0.1-0.9,0.3-1.2
			c0.2-0.3,0.5-0.6,0.9-0.8c0.4-0.2,0.8-0.3,1.3-0.3c0.5,0,0.9,0.1,1.3,0.3c0.4,0.2,0.7,0.5,0.9,0.8c0.2,0.3,0.3,0.7,0.3,1.2
			c0,0,0,0.1,0,0.1c0,0,0,0-0.1,0l-0.5,0c-0.1,0-0.1,0-0.1-0.1v0c0-0.5-0.2-0.9-0.5-1.2c-0.3-0.3-0.7-0.4-1.2-0.4
			c-0.5,0-0.9,0.1-1.2,0.5c-0.3,0.3-0.5,0.7-0.5,1.2V70c0,0.5,0.2,0.9,0.5,1.2c0.3,0.3,0.7,0.5,1.2,0.5c0.5,0,0.9-0.1,1.2-0.4
			c0.3-0.3,0.5-0.7,0.5-1.2v0c0-0.1,0-0.1,0.1-0.1l0.5,0c0.1,0,0.1,0,0.1,0.1c0,0.5-0.1,0.9-0.3,1.2c-0.2,0.3-0.5,0.6-0.9,0.8
			c-0.4,0.2-0.8,0.3-1.3,0.3C42.5,72.3,42.1,72.2,41.7,72z"/>
		<path class="st0" d="M51.8,65.5h-3.9c0,0,0,0,0,0v2.6c0,0,0,0,0,0h2.7c0.1,0,0.1,0,0.1,0.1v0.4c0,0.1,0,0.1-0.1,0.1h-2.7
			c0,0,0,0,0,0v2.6c0,0,0,0,0,0h3.9c0.1,0,0.1,0,0.1,0.1v0.4c0,0.1,0,0.1-0.1,0.1h-4.5c-0.1,0-0.1,0-0.1-0.1v-7.1
			c0-0.1,0-0.1,0.1-0.1h4.5c0.1,0,0.1,0,0.1,0.1v0.4C51.9,65.4,51.9,65.5,51.8,65.5z"/>
		<path class="st0" d="M58,64.8h0.5c0.1,0,0.1,0,0.1,0.1v7.1c0,0.1,0,0.1-0.1,0.1H58c0,0-0.1,0-0.1-0.1l-3.6-5.8c0,0,0,0,0,0
			c0,0,0,0,0,0l0,5.8c0,0.1,0,0.1-0.1,0.1h-0.5c-0.1,0-0.1,0-0.1-0.1v-7.1c0-0.1,0-0.1,0.1-0.1h0.5c0,0,0.1,0,0.1,0.1l3.6,5.8
			c0,0,0,0,0,0c0,0,0,0,0,0l0-5.8C57.9,64.8,57.9,64.8,58,64.8z"/>
		<path class="st0" d="M65.1,64.9v0.5c0,0.1,0,0.1-0.1,0.1H63c0,0,0,0,0,0v6.5c0,0.1,0,0.1-0.1,0.1h-0.5c-0.1,0-0.1,0-0.1-0.1v-6.5
			c0,0,0,0,0,0h-2c-0.1,0-0.1,0-0.1-0.1v-0.5c0-0.1,0-0.1,0.1-0.1H65C65.1,64.8,65.1,64.8,65.1,64.9z"/>
		<path class="st0" d="M70.7,72.1l-1.5-3.3c0,0,0,0,0,0h-1.8c0,0,0,0,0,0v3.2c0,0.1,0,0.1-0.1,0.1h-0.5c-0.1,0-0.1,0-0.1-0.1v-7.1
			c0-0.1,0-0.1,0.1-0.1h2.7c0.6,0,1.1,0.2,1.5,0.6c0.4,0.4,0.6,0.9,0.6,1.5c0,0.5-0.1,0.9-0.4,1.2c-0.3,0.3-0.6,0.6-1.1,0.7
			c0,0,0,0,0,0.1l1.6,3.2c0,0,0,0,0,0.1c0,0,0,0.1-0.1,0.1h-0.6C70.8,72.2,70.8,72.1,70.7,72.1z M67.3,65.5v2.7c0,0,0,0,0,0h2
			c0.4,0,0.7-0.1,1-0.4c0.3-0.3,0.4-0.6,0.4-1c0-0.4-0.1-0.7-0.4-1c-0.3-0.3-0.6-0.4-1-0.4L67.3,65.5C67.3,65.5,67.3,65.5,67.3,65.5
			z"/>
		<path class="st0" d="M74,71.9c-0.4-0.2-0.7-0.5-0.9-0.9c-0.2-0.4-0.3-0.8-0.3-1.3v-2.6c0-0.5,0.1-0.9,0.3-1.3
			c0.2-0.4,0.5-0.7,0.9-0.9c0.4-0.2,0.8-0.3,1.3-0.3s0.9,0.1,1.3,0.3c0.4,0.2,0.7,0.5,0.9,0.9c0.2,0.4,0.3,0.8,0.3,1.3v2.6
			c0,0.5-0.1,0.9-0.3,1.3c-0.2,0.4-0.5,0.7-0.9,0.9c-0.4,0.2-0.8,0.3-1.3,0.3S74.3,72.1,74,71.9z M76.6,71.1
			c0.3-0.3,0.5-0.7,0.5-1.3v-2.7c0-0.5-0.2-1-0.5-1.3c-0.3-0.3-0.7-0.5-1.3-0.5c-0.5,0-0.9,0.2-1.3,0.5c-0.3,0.3-0.5,0.8-0.5,1.3
			v2.7c0,0.5,0.2,1,0.5,1.3c0.3,0.3,0.7,0.5,1.3,0.5C75.8,71.6,76.2,71.4,76.6,71.1z"/>
		<path class="st0" d="M81.6,72.1v-7.1c0-0.1,0-0.1,0.1-0.1h0.5c0.1,0,0.1,0,0.1,0.1v7.1c0,0.1,0,0.1-0.1,0.1h-0.5
			C81.7,72.2,81.6,72.1,81.6,72.1z"/>
		<path class="st0" d="M88.9,64.8h0.5c0.1,0,0.1,0,0.1,0.1v7.1c0,0.1,0,0.1-0.1,0.1h-0.5c0,0-0.1,0-0.1-0.1l-3.6-5.8c0,0,0,0,0,0
			c0,0,0,0,0,0l0,5.8c0,0.1,0,0.1-0.1,0.1h-0.5c-0.1,0-0.1,0-0.1-0.1v-7.1c0-0.1,0-0.1,0.1-0.1H85c0,0,0.1,0,0.1,0.1l3.6,5.8
			c0,0,0,0,0,0c0,0,0,0,0,0l0-5.8C88.7,64.8,88.8,64.8,88.9,64.8z"/>
		<path class="st0" d="M96,64.9v0.5c0,0.1,0,0.1-0.1,0.1h-2.1c0,0,0,0,0,0v6.5c0,0.1,0,0.1-0.1,0.1h-0.5c-0.1,0-0.1,0-0.1-0.1v-6.5
			c0,0,0,0,0,0h-2c-0.1,0-0.1,0-0.1-0.1v-0.5c0-0.1,0-0.1,0.1-0.1h4.9C96,64.8,96,64.8,96,64.9z"/>
		<path class="st0" d="M102.1,65.5h-3.9c0,0,0,0,0,0v2.6c0,0,0,0,0,0h2.7c0.1,0,0.1,0,0.1,0.1v0.4c0,0.1,0,0.1-0.1,0.1h-2.7
			c0,0,0,0,0,0v2.6c0,0,0,0,0,0h3.9c0.1,0,0.1,0,0.1,0.1v0.4c0,0.1,0,0.1-0.1,0.1h-4.5c-0.1,0-0.1,0-0.1-0.1v-7.1
			c0-0.1,0-0.1,0.1-0.1h4.5c0.1,0,0.1,0,0.1,0.1v0.4C102.2,65.4,102.2,65.5,102.1,65.5z"/>
		<path class="st0" d="M108,72.1l-1.5-3.3c0,0,0,0,0,0h-1.8c0,0,0,0,0,0v3.2c0,0.1,0,0.1-0.1,0.1h-0.5c-0.1,0-0.1,0-0.1-0.1v-7.1
			c0-0.1,0-0.1,0.1-0.1h2.7c0.6,0,1.1,0.2,1.5,0.6c0.4,0.4,0.6,0.9,0.6,1.5c0,0.5-0.1,0.9-0.4,1.2c-0.3,0.3-0.6,0.6-1.1,0.7
			c0,0,0,0,0,0.1l1.6,3.2c0,0,0,0,0,0.1c0,0,0,0.1-0.1,0.1h-0.6C108,72.2,108,72.1,108,72.1z M104.5,65.5v2.7c0,0,0,0,0,0h2
			c0.4,0,0.7-0.1,1-0.4c0.3-0.3,0.4-0.6,0.4-1c0-0.4-0.1-0.7-0.4-1c-0.3-0.3-0.6-0.4-1-0.4L104.5,65.5
			C104.6,65.5,104.5,65.5,104.5,65.5z"/>
		<path class="st0" d="M114.7,64.8h0.5c0.1,0,0.1,0,0.1,0.1v7.1c0,0.1,0,0.1-0.1,0.1h-0.5c0,0-0.1,0-0.1-0.1l-3.6-5.8c0,0,0,0,0,0
			c0,0,0,0,0,0l0,5.8c0,0.1,0,0.1-0.1,0.1h-0.5c-0.1,0-0.1,0-0.1-0.1v-7.1c0-0.1,0-0.1,0.1-0.1h0.5c0,0,0.1,0,0.1,0.1l3.6,5.8
			c0,0,0,0,0,0c0,0,0,0,0,0l0-5.8C114.6,64.8,114.6,64.8,114.7,64.8z"/>
		<path class="st0" d="M121.6,72.1l-0.4-1.3c0,0,0,0,0,0h-3.1c0,0,0,0,0,0l-0.4,1.3c0,0.1-0.1,0.1-0.1,0.1h-0.6
			c-0.1,0-0.1,0-0.1-0.1l2.3-7.2c0-0.1,0.1-0.1,0.1-0.1h0.7c0.1,0,0.1,0,0.1,0.1l2.3,7.2l0,0c0,0,0,0.1-0.1,0.1h-0.6
			C121.6,72.2,121.6,72.1,121.6,72.1z M118.1,70.1C118.1,70.1,118.1,70.1,118.1,70.1l2.7,0c0,0,0,0,0,0c0,0,0,0,0,0l-1.4-4.3
			c0,0,0,0,0,0c0,0,0,0,0,0L118.1,70.1C118.1,70.1,118.1,70.1,118.1,70.1z"/>
		<path class="st0" d="M124.5,72c-0.4-0.2-0.7-0.5-0.9-0.8c-0.2-0.4-0.3-0.8-0.3-1.2V67c0-0.5,0.1-0.9,0.3-1.2
			c0.2-0.3,0.5-0.6,0.9-0.8c0.4-0.2,0.8-0.3,1.3-0.3c0.5,0,0.9,0.1,1.3,0.3c0.4,0.2,0.7,0.5,0.9,0.8c0.2,0.3,0.3,0.7,0.3,1.2
			c0,0,0,0.1,0,0.1c0,0,0,0-0.1,0l-0.5,0c-0.1,0-0.1,0-0.1-0.1v0c0-0.5-0.2-0.9-0.5-1.2c-0.3-0.3-0.7-0.4-1.2-0.4
			c-0.5,0-0.9,0.1-1.2,0.5c-0.3,0.3-0.5,0.7-0.5,1.2V70c0,0.5,0.2,0.9,0.5,1.2s0.7,0.5,1.2,0.5c0.5,0,0.9-0.1,1.2-0.4
			c0.3-0.3,0.5-0.7,0.5-1.2v0c0-0.1,0-0.1,0.1-0.1l0.5,0c0.1,0,0.1,0,0.1,0.1c0,0.5-0.1,0.9-0.3,1.2c-0.2,0.3-0.5,0.6-0.9,0.8
			c-0.4,0.2-0.8,0.3-1.3,0.3C125.3,72.3,124.9,72.2,124.5,72z"/>
		<path class="st0" d="M129.9,72.1v-7.1c0-0.1,0-0.1,0.1-0.1h0.5c0.1,0,0.1,0,0.1,0.1v7.1c0,0.1,0,0.1-0.1,0.1H130
			C130,72.2,129.9,72.1,129.9,72.1z"/>
		<path class="st0" d="M133.6,71.9c-0.4-0.2-0.7-0.5-0.9-0.9c-0.2-0.4-0.3-0.8-0.3-1.3v-2.6c0-0.5,0.1-0.9,0.3-1.3
			c0.2-0.4,0.5-0.7,0.9-0.9c0.4-0.2,0.8-0.3,1.3-0.3c0.5,0,0.9,0.1,1.3,0.3c0.4,0.2,0.7,0.5,0.9,0.9c0.2,0.4,0.3,0.8,0.3,1.3v2.6
			c0,0.5-0.1,0.9-0.3,1.3c-0.2,0.4-0.5,0.7-0.9,0.9c-0.4,0.2-0.8,0.3-1.3,0.3C134.4,72.2,134,72.1,133.6,71.9z M136.2,71.1
			c0.3-0.3,0.5-0.7,0.5-1.3v-2.7c0-0.5-0.2-1-0.5-1.3c-0.3-0.3-0.7-0.5-1.3-0.5c-0.5,0-0.9,0.2-1.3,0.5c-0.3,0.3-0.5,0.8-0.5,1.3
			v2.7c0,0.5,0.2,1,0.5,1.3c0.3,0.3,0.7,0.5,1.3,0.5C135.5,71.6,135.9,71.4,136.2,71.1z"/>
		<path class="st0" d="M143.7,64.8h0.5c0.1,0,0.1,0,0.1,0.1v7.1c0,0.1,0,0.1-0.1,0.1h-0.5c0,0-0.1,0-0.1-0.1l-3.6-5.8c0,0,0,0,0,0
			c0,0,0,0,0,0l0,5.8c0,0.1,0,0.1-0.1,0.1h-0.5c-0.1,0-0.1,0-0.1-0.1v-7.1c0-0.1,0-0.1,0.1-0.1h0.5c0,0,0.1,0,0.1,0.1l3.6,5.8
			c0,0,0,0,0,0c0,0,0,0,0,0l0-5.8C143.6,64.8,143.6,64.8,143.7,64.8z"/>
		<path class="st0" d="M150.5,72.1l-0.4-1.3c0,0,0,0,0,0h-3.1c0,0,0,0,0,0l-0.4,1.3c0,0.1-0.1,0.1-0.1,0.1h-0.6
			c-0.1,0-0.1,0-0.1-0.1l2.3-7.2c0-0.1,0.1-0.1,0.1-0.1h0.7c0.1,0,0.1,0,0.1,0.1l2.3,7.2l0,0c0,0,0,0.1-0.1,0.1h-0.6
			C150.6,72.2,150.5,72.1,150.5,72.1z M147.1,70.1C147.1,70.1,147.1,70.1,147.1,70.1l2.7,0c0,0,0,0,0,0c0,0,0,0,0,0l-1.4-4.3
			c0,0,0,0,0,0c0,0,0,0,0,0L147.1,70.1C147.1,70.1,147.1,70.1,147.1,70.1z"/>
		<path class="st0" d="M152.7,72.1v-7.1c0-0.1,0-0.1,0.1-0.1h0.5c0.1,0,0.1,0,0.1,0.1v6.6c0,0,0,0,0,0h3.7c0.1,0,0.1,0,0.1,0.1v0.4
			c0,0.1,0,0.1-0.1,0.1h-4.4C152.7,72.2,152.7,72.1,152.7,72.1z"/>
		<path class="st0" d="M160.7,72.1v-7.1c0-0.1,0-0.1,0.1-0.1h2.5c0.7,0,1.2,0.2,1.7,0.5c0.4,0.4,0.6,0.9,0.6,1.5v3.3
			c0,0.6-0.2,1.1-0.6,1.5c-0.4,0.4-1,0.5-1.7,0.5h-2.5C160.8,72.2,160.7,72.1,160.7,72.1z M161.5,71.5h1.8c0.5,0,0.8-0.1,1.1-0.4
			c0.3-0.3,0.4-0.6,0.4-1.1v-3.1c0-0.5-0.1-0.8-0.4-1.1c-0.3-0.3-0.6-0.4-1.1-0.4h-1.8c0,0,0,0,0,0L161.5,71.5
			C161.5,71.5,161.5,71.5,161.5,71.5z"/>
		<path class="st0" d="M171.9,65.5H168c0,0,0,0,0,0v2.6c0,0,0,0,0,0h2.7c0.1,0,0.1,0,0.1,0.1v0.4c0,0.1,0,0.1-0.1,0.1H168
			c0,0,0,0,0,0v2.6c0,0,0,0,0,0h3.9c0.1,0,0.1,0,0.1,0.1v0.4c0,0.1,0,0.1-0.1,0.1h-4.5c-0.1,0-0.1,0-0.1-0.1v-7.1
			c0-0.1,0-0.1,0.1-0.1h4.5c0.1,0,0.1,0,0.1,0.1v0.4C172,65.4,171.9,65.5,171.9,65.5z"/>
		<path class="st0" d="M45.4,77.9h-3.9c0,0,0,0,0,0v2.6c0,0,0,0,0,0h2.7c0.1,0,0.1,0,0.1,0.1v0.4c0,0.1,0,0.1-0.1,0.1h-2.7
			c0,0,0,0,0,0v2.6c0,0,0,0,0,0h3.9c0.1,0,0.1,0,0.1,0.1v0.4c0,0.1,0,0.1-0.1,0.1h-4.5c-0.1,0-0.1,0-0.1-0.1v-7.1
			c0-0.1,0-0.1,0.1-0.1h4.5c0.1,0,0.1,0,0.1,0.1v0.4C45.5,77.8,45.5,77.9,45.4,77.9z"/>
		<path class="st0" d="M47.4,84.1c-0.5-0.4-0.7-0.8-0.7-1.4v-0.3c0-0.1,0-0.1,0.1-0.1h0.5c0.1,0,0.1,0,0.1,0.1v0.3
			c0,0.4,0.2,0.7,0.5,1c0.3,0.2,0.8,0.4,1.4,0.4c0.5,0,0.9-0.1,1.2-0.3c0.3-0.2,0.4-0.5,0.4-0.9c0-0.2-0.1-0.5-0.2-0.6
			c-0.1-0.2-0.3-0.3-0.6-0.5c-0.3-0.2-0.6-0.3-1.1-0.5c-0.5-0.2-0.9-0.4-1.2-0.6c-0.3-0.2-0.5-0.4-0.7-0.6c-0.2-0.2-0.3-0.6-0.3-0.9
			c0-0.6,0.2-1,0.6-1.4c0.4-0.3,1-0.5,1.7-0.5c0.8,0,1.4,0.2,1.8,0.5c0.4,0.4,0.7,0.8,0.7,1.4v0.2c0,0.1,0,0.1-0.1,0.1H51
			c-0.1,0-0.1,0-0.1-0.1v-0.2c0-0.4-0.2-0.7-0.5-1c-0.3-0.3-0.8-0.4-1.3-0.4c-0.5,0-0.9,0.1-1.1,0.3c-0.3,0.2-0.4,0.5-0.4,0.9
			c0,0.3,0.1,0.5,0.2,0.6c0.1,0.2,0.3,0.3,0.6,0.4c0.2,0.1,0.6,0.3,1.1,0.5c0.5,0.2,0.9,0.4,1.2,0.6c0.3,0.2,0.6,0.4,0.8,0.7
			c0.2,0.3,0.3,0.6,0.3,1c0,0.6-0.2,1.1-0.7,1.4c-0.4,0.4-1,0.5-1.8,0.5C48.5,84.7,47.8,84.5,47.4,84.1z"/>
		<path class="st0" d="M57.6,77.3v0.5c0,0.1,0,0.1-0.1,0.1h-2.1c0,0,0,0,0,0v6.5c0,0.1,0,0.1-0.1,0.1h-0.5c-0.1,0-0.1,0-0.1-0.1
			v-6.5c0,0,0,0,0,0h-2c-0.1,0-0.1,0-0.1-0.1v-0.5c0-0.1,0-0.1,0.1-0.1h4.9C57.6,77.2,57.6,77.3,57.6,77.3z"/>
		<path class="st0" d="M60.1,84.4c-0.4-0.2-0.7-0.5-0.9-0.8c-0.2-0.4-0.3-0.8-0.3-1.2v-5c0-0.1,0-0.1,0.1-0.1h0.5
			c0.1,0,0.1,0,0.1,0.1v5c0,0.5,0.2,0.9,0.5,1.2c0.3,0.3,0.7,0.5,1.3,0.5c0.5,0,0.9-0.2,1.3-0.5c0.3-0.3,0.5-0.7,0.5-1.2v-5
			c0-0.1,0-0.1,0.1-0.1h0.5c0.1,0,0.1,0,0.1,0.1v5c0,0.5-0.1,0.9-0.3,1.2c-0.2,0.4-0.5,0.6-0.9,0.8c-0.4,0.2-0.8,0.3-1.3,0.3
			C61,84.7,60.5,84.6,60.1,84.4z"/>
		<path class="st0" d="M65.8,84.5v-7.1c0-0.1,0-0.1,0.1-0.1h2.5c0.7,0,1.2,0.2,1.7,0.5c0.4,0.4,0.6,0.9,0.6,1.5v3.3
			c0,0.6-0.2,1.1-0.6,1.5c-0.4,0.4-1,0.5-1.7,0.5h-2.5C65.9,84.6,65.8,84.5,65.8,84.5z M66.6,83.9h1.8c0.5,0,0.8-0.1,1.1-0.4
			c0.3-0.3,0.4-0.6,0.4-1.1v-3.1c0-0.5-0.1-0.8-0.4-1.1c-0.3-0.3-0.6-0.4-1.1-0.4h-1.8c0,0,0,0,0,0L66.6,83.9
			C66.6,83.9,66.6,83.9,66.6,83.9z"/>
		<path class="st0" d="M72.3,84.5v-7.1c0-0.1,0-0.1,0.1-0.1H73c0.1,0,0.1,0,0.1,0.1v7.1c0,0.1,0,0.1-0.1,0.1h-0.5
			C72.4,84.6,72.3,84.5,72.3,84.5z"/>
		<path class="st0" d="M76,84.3c-0.4-0.2-0.7-0.5-0.9-0.9c-0.2-0.4-0.3-0.8-0.3-1.3v-2.6c0-0.5,0.1-0.9,0.3-1.3
			c0.2-0.4,0.5-0.7,0.9-0.9c0.4-0.2,0.8-0.3,1.3-0.3c0.5,0,0.9,0.1,1.3,0.3c0.4,0.2,0.7,0.5,0.9,0.9c0.2,0.4,0.3,0.8,0.3,1.3v2.6
			c0,0.5-0.1,0.9-0.3,1.3c-0.2,0.4-0.5,0.7-0.9,0.9c-0.4,0.2-0.8,0.3-1.3,0.3C76.8,84.7,76.4,84.6,76,84.3z M78.6,83.5
			c0.3-0.3,0.5-0.7,0.5-1.3v-2.7c0-0.5-0.2-1-0.5-1.3c-0.3-0.3-0.7-0.5-1.3-0.5c-0.5,0-0.9,0.2-1.3,0.5c-0.3,0.3-0.5,0.8-0.5,1.3
			v2.7c0,0.5,0.2,1,0.5,1.3c0.3,0.3,0.7,0.5,1.3,0.5C77.8,84,78.3,83.9,78.6,83.5z"/>
		<path class="st0" d="M81.8,84.1c-0.5-0.4-0.7-0.8-0.7-1.4v-0.3c0-0.1,0-0.1,0.1-0.1h0.5c0.1,0,0.1,0,0.1,0.1v0.3
			c0,0.4,0.2,0.7,0.5,1c0.3,0.2,0.8,0.4,1.4,0.4c0.5,0,0.9-0.1,1.2-0.3c0.3-0.2,0.4-0.5,0.4-0.9c0-0.2-0.1-0.5-0.2-0.6
			c-0.1-0.2-0.3-0.3-0.6-0.5c-0.3-0.2-0.6-0.3-1.1-0.5c-0.5-0.2-0.9-0.4-1.2-0.6c-0.3-0.2-0.5-0.4-0.7-0.6c-0.2-0.2-0.3-0.6-0.3-0.9
			c0-0.6,0.2-1,0.6-1.4c0.4-0.3,1-0.5,1.7-0.5c0.8,0,1.4,0.2,1.8,0.5c0.4,0.4,0.7,0.8,0.7,1.4v0.2c0,0.1,0,0.1-0.1,0.1h-0.5
			c-0.1,0-0.1,0-0.1-0.1v-0.2c0-0.4-0.2-0.7-0.5-1c-0.3-0.3-0.8-0.4-1.3-0.4c-0.5,0-0.9,0.1-1.1,0.3C82.1,78.3,82,78.6,82,79
			c0,0.3,0.1,0.5,0.2,0.6c0.1,0.2,0.3,0.3,0.6,0.4c0.2,0.1,0.6,0.3,1.1,0.5c0.5,0.2,0.9,0.4,1.2,0.6c0.3,0.2,0.6,0.4,0.8,0.7
			c0.2,0.3,0.3,0.6,0.3,1c0,0.6-0.2,1.1-0.7,1.4c-0.4,0.4-1,0.5-1.8,0.5C82.9,84.7,82.3,84.5,81.8,84.1z"/>
		<path class="st0" d="M94.5,77.9h-3.9c0,0,0,0,0,0v2.6c0,0,0,0,0,0h2.7c0.1,0,0.1,0,0.1,0.1v0.4c0,0.1,0,0.1-0.1,0.1h-2.7
			c0,0,0,0,0,0v2.6c0,0,0,0,0,0h3.9c0.1,0,0.1,0,0.1,0.1v0.4c0,0.1,0,0.1-0.1,0.1h-4.5c-0.1,0-0.1,0-0.1-0.1v-7.1
			c0-0.1,0-0.1,0.1-0.1h4.5c0.1,0,0.1,0,0.1,0.1v0.4C94.6,77.8,94.5,77.9,94.5,77.9z"/>
		<path class="st0" d="M100.6,77.2h0.5c0.1,0,0.1,0,0.1,0.1v7.1c0,0.1,0,0.1-0.1,0.1h-0.5c0,0-0.1,0-0.1-0.1l-3.6-5.8c0,0,0,0,0,0
			c0,0,0,0,0,0l0,5.8c0,0.1,0,0.1-0.1,0.1h-0.5c-0.1,0-0.1,0-0.1-0.1v-7.1c0-0.1,0-0.1,0.1-0.1h0.5c0,0,0.1,0,0.1,0.1l3.6,5.8
			c0,0,0,0,0,0c0,0,0,0,0,0l0-5.8C100.5,77.3,100.6,77.2,100.6,77.2z"/>
		<path class="st0" d="M106.3,84.4c-0.4-0.2-0.7-0.5-0.9-0.8c-0.2-0.4-0.3-0.8-0.3-1.2v-2.9c0-0.5,0.1-0.9,0.3-1.2
			c0.2-0.4,0.5-0.6,0.9-0.8c0.4-0.2,0.8-0.3,1.3-0.3c0.5,0,0.9,0.1,1.3,0.3c0.4,0.2,0.7,0.5,0.9,0.8c0.2,0.3,0.3,0.7,0.3,1.2
			c0,0,0,0.1,0,0.1c0,0,0,0-0.1,0l-0.5,0c-0.1,0-0.1,0-0.1-0.1v0c0-0.5-0.2-0.9-0.5-1.2c-0.3-0.3-0.7-0.4-1.2-0.4
			c-0.5,0-0.9,0.2-1.2,0.5c-0.3,0.3-0.5,0.7-0.5,1.2v2.9c0,0.5,0.2,0.9,0.5,1.2c0.3,0.3,0.7,0.5,1.2,0.5c0.5,0,0.9-0.1,1.2-0.4
			c0.3-0.3,0.5-0.7,0.5-1.2v0c0-0.1,0-0.1,0.1-0.1l0.5,0c0.1,0,0.1,0,0.1,0.1c0,0.5-0.1,0.9-0.3,1.2c-0.2,0.3-0.5,0.6-0.9,0.8
			c-0.4,0.2-0.8,0.3-1.3,0.3C107.1,84.7,106.7,84.6,106.3,84.4z"/>
		<path class="st0" d="M111.7,84.5v-7.1c0-0.1,0-0.1,0.1-0.1h0.5c0.1,0,0.1,0,0.1,0.1v7.1c0,0.1,0,0.1-0.1,0.1h-0.5
			C111.8,84.6,111.7,84.5,111.7,84.5z"/>
		<path class="st0" d="M119.1,77.9h-3.9c0,0,0,0,0,0v2.6c0,0,0,0,0,0h2.7c0.1,0,0.1,0,0.1,0.1v0.4c0,0.1,0,0.1-0.1,0.1h-2.7
			c0,0,0,0,0,0v2.6c0,0,0,0,0,0h3.9c0.1,0,0.1,0,0.1,0.1v0.4c0,0.1,0,0.1-0.1,0.1h-4.5c-0.1,0-0.1,0-0.1-0.1v-7.1
			c0-0.1,0-0.1,0.1-0.1h4.5c0.1,0,0.1,0,0.1,0.1v0.4C119.2,77.8,119.2,77.9,119.1,77.9z"/>
		<path class="st0" d="M125.3,77.2h0.5c0.1,0,0.1,0,0.1,0.1v7.1c0,0.1,0,0.1-0.1,0.1h-0.5c0,0-0.1,0-0.1-0.1l-3.6-5.8c0,0,0,0,0,0
			c0,0,0,0,0,0l0,5.8c0,0.1,0,0.1-0.1,0.1h-0.5c-0.1,0-0.1,0-0.1-0.1v-7.1c0-0.1,0-0.1,0.1-0.1h0.5c0,0,0.1,0,0.1,0.1l3.6,5.8
			c0,0,0,0,0,0c0,0,0,0,0,0l0-5.8C125.2,77.3,125.2,77.2,125.3,77.2z"/>
		<path class="st0" d="M128.8,84.4c-0.4-0.2-0.7-0.5-0.9-0.8c-0.2-0.4-0.3-0.8-0.3-1.2v-2.9c0-0.5,0.1-0.9,0.3-1.2
			c0.2-0.4,0.5-0.6,0.9-0.8c0.4-0.2,0.8-0.3,1.3-0.3c0.5,0,0.9,0.1,1.3,0.3c0.4,0.2,0.7,0.5,0.9,0.8c0.2,0.3,0.3,0.7,0.3,1.2
			c0,0,0,0.1,0,0.1c0,0,0,0-0.1,0l-0.5,0c-0.1,0-0.1,0-0.1-0.1v0c0-0.5-0.2-0.9-0.5-1.2c-0.3-0.3-0.7-0.4-1.2-0.4
			c-0.5,0-0.9,0.2-1.3,0.5c-0.3,0.3-0.5,0.7-0.5,1.2v2.9c0,0.5,0.2,0.9,0.5,1.2c0.3,0.3,0.7,0.5,1.3,0.5c0.5,0,0.9-0.1,1.2-0.4
			c0.3-0.3,0.5-0.7,0.5-1.2v0c0-0.1,0-0.1,0.1-0.1l0.5,0c0.1,0,0.1,0,0.1,0.1c0,0.5-0.1,0.9-0.3,1.2c-0.2,0.3-0.5,0.6-0.9,0.8
			c-0.4,0.2-0.8,0.3-1.3,0.3C129.7,84.7,129.2,84.6,128.8,84.4z"/>
		<path class="st0" d="M134.3,84.5v-7.1c0-0.1,0-0.1,0.1-0.1h0.5c0.1,0,0.1,0,0.1,0.1v7.1c0,0.1,0,0.1-0.1,0.1h-0.5
			C134.3,84.6,134.3,84.5,134.3,84.5z"/>
		<path class="st0" d="M141.2,84.5l-0.4-1.3c0,0,0,0,0,0h-3.1c0,0,0,0,0,0l-0.4,1.3c0,0.1-0.1,0.1-0.1,0.1h-0.6
			c-0.1,0-0.1,0-0.1-0.1l2.3-7.2c0-0.1,0.1-0.1,0.1-0.1h0.7c0.1,0,0.1,0,0.1,0.1l2.3,7.2l0,0c0,0,0,0.1-0.1,0.1h-0.6
			C141.3,84.6,141.3,84.5,141.2,84.5z M137.8,82.5C137.8,82.5,137.8,82.5,137.8,82.5l2.7,0c0,0,0,0,0,0c0,0,0,0,0,0l-1.4-4.3
			c0,0,0,0,0,0c0,0,0,0,0,0L137.8,82.5C137.8,82.5,137.8,82.5,137.8,82.5z"/>
		<path class="st0" d="M145.5,84.5v-7.1c0-0.1,0-0.1,0.1-0.1h2.5c0.7,0,1.2,0.2,1.7,0.5c0.4,0.4,0.6,0.9,0.6,1.5v3.3
			c0,0.6-0.2,1.1-0.6,1.5c-0.4,0.4-1,0.5-1.7,0.5h-2.5C145.5,84.6,145.5,84.5,145.5,84.5z M146.3,83.9h1.8c0.5,0,0.8-0.1,1.1-0.4
			c0.3-0.3,0.4-0.6,0.4-1.1v-3.1c0-0.5-0.1-0.8-0.4-1.1c-0.3-0.3-0.6-0.4-1.1-0.4h-1.8c0,0,0,0,0,0L146.3,83.9
			C146.2,83.9,146.2,83.9,146.3,83.9z"/>
		<path class="st0" d="M156.6,77.9h-3.9c0,0,0,0,0,0v2.6c0,0,0,0,0,0h2.7c0.1,0,0.1,0,0.1,0.1v0.4c0,0.1,0,0.1-0.1,0.1h-2.7
			c0,0,0,0,0,0v2.6c0,0,0,0,0,0h3.9c0.1,0,0.1,0,0.1,0.1v0.4c0,0.1,0,0.1-0.1,0.1h-4.5c-0.1,0-0.1,0-0.1-0.1v-7.1
			c0-0.1,0-0.1,0.1-0.1h4.5c0.1,0,0.1,0,0.1,0.1v0.4C156.7,77.8,156.7,77.9,156.6,77.9z"/>
		<path class="st0" d="M160.4,84.5v-7.1c0-0.1,0-0.1,0.1-0.1h2.5c0.7,0,1.2,0.2,1.7,0.5c0.4,0.4,0.6,0.9,0.6,1.5v3.3
			c0,0.6-0.2,1.1-0.6,1.5c-0.4,0.4-1,0.5-1.7,0.5h-2.5C160.4,84.6,160.4,84.5,160.4,84.5z M161.2,83.9h1.8c0.5,0,0.8-0.1,1.1-0.4
			c0.3-0.3,0.4-0.6,0.4-1.1v-3.1c0-0.5-0.1-0.8-0.4-1.1c-0.3-0.3-0.6-0.4-1.1-0.4h-1.8c0,0,0,0,0,0L161.2,83.9
			C161.2,83.9,161.2,83.9,161.2,83.9z"/>
		<path class="st0" d="M170.9,84.5l-0.4-1.3c0,0,0,0,0,0h-3.1c0,0,0,0,0,0l-0.4,1.3c0,0.1-0.1,0.1-0.1,0.1h-0.6
			c-0.1,0-0.1,0-0.1-0.1l2.3-7.2c0-0.1,0.1-0.1,0.1-0.1h0.7c0.1,0,0.1,0,0.1,0.1l2.3,7.2l0,0c0,0,0,0.1-0.1,0.1H171
			C171,84.6,170.9,84.5,170.9,84.5z M167.5,82.5C167.5,82.5,167.5,82.5,167.5,82.5l2.7,0c0,0,0,0,0,0c0,0,0,0,0,0l-1.4-4.3
			c0,0,0,0,0,0c0,0,0,0,0,0L167.5,82.5C167.5,82.5,167.5,82.5,167.5,82.5z"/>
		<path class="st0" d="M176.9,77.3v0.5c0,0.1,0,0.1-0.1,0.1h-2.1c0,0,0,0,0,0v6.5c0,0.1,0,0.1-0.1,0.1H174c-0.1,0-0.1,0-0.1-0.1
			v-6.5c0,0,0,0,0,0h-2c-0.1,0-0.1,0-0.1-0.1v-0.5c0-0.1,0-0.1,0.1-0.1h4.9C176.9,77.2,176.9,77.3,176.9,77.3z"/>
		<path class="st0" d="M178.8,84.3c-0.4-0.2-0.7-0.5-0.9-0.9c-0.2-0.4-0.3-0.8-0.3-1.3v-2.6c0-0.5,0.1-0.9,0.3-1.3
			c0.2-0.4,0.5-0.7,0.9-0.9c0.4-0.2,0.8-0.3,1.3-0.3c0.5,0,0.9,0.1,1.3,0.3c0.4,0.2,0.7,0.5,0.9,0.9c0.2,0.4,0.3,0.8,0.3,1.3v2.6
			c0,0.5-0.1,0.9-0.3,1.3c-0.2,0.4-0.5,0.7-0.9,0.9c-0.4,0.2-0.8,0.3-1.3,0.3C179.6,84.7,179.2,84.6,178.8,84.3z M181.4,83.5
			c0.3-0.3,0.5-0.7,0.5-1.3v-2.7c0-0.5-0.2-1-0.5-1.3c-0.3-0.3-0.7-0.5-1.3-0.5c-0.5,0-0.9,0.2-1.3,0.5c-0.3,0.3-0.5,0.8-0.5,1.3
			v2.7c0,0.5,0.2,1,0.5,1.3c0.3,0.3,0.7,0.5,1.3,0.5C180.6,84,181.1,83.9,181.4,83.5z"/>
		<path class="st0" d="M184.6,84.1c-0.5-0.4-0.7-0.8-0.7-1.4v-0.3c0-0.1,0-0.1,0.1-0.1h0.5c0.1,0,0.1,0,0.1,0.1v0.3
			c0,0.4,0.2,0.7,0.5,1c0.3,0.2,0.8,0.4,1.4,0.4c0.5,0,0.9-0.1,1.2-0.3c0.3-0.2,0.4-0.5,0.4-0.9c0-0.2-0.1-0.5-0.2-0.6
			c-0.1-0.2-0.3-0.3-0.6-0.5c-0.3-0.2-0.6-0.3-1.1-0.5c-0.5-0.2-0.9-0.4-1.2-0.6c-0.3-0.2-0.5-0.4-0.7-0.6c-0.2-0.2-0.3-0.6-0.3-0.9
			c0-0.6,0.2-1,0.6-1.4c0.4-0.3,1-0.5,1.7-0.5c0.8,0,1.4,0.2,1.8,0.5c0.4,0.4,0.7,0.8,0.7,1.4v0.2c0,0.1,0,0.1-0.1,0.1h-0.5
			c-0.1,0-0.1,0-0.1-0.1v-0.2c0-0.4-0.2-0.7-0.5-1c-0.3-0.3-0.8-0.4-1.3-0.4c-0.5,0-0.9,0.1-1.1,0.3c-0.3,0.2-0.4,0.5-0.4,0.9
			c0,0.3,0.1,0.5,0.2,0.6c0.1,0.2,0.3,0.3,0.6,0.4c0.2,0.1,0.6,0.3,1.1,0.5c0.5,0.2,0.9,0.4,1.2,0.6c0.3,0.2,0.6,0.4,0.8,0.7
			c0.2,0.3,0.3,0.6,0.3,1c0,0.6-0.2,1.1-0.7,1.4c-0.4,0.4-1,0.5-1.8,0.5C185.7,84.7,185.1,84.5,184.6,84.1z"/>
		<path class="st0" d="M41.7,96.7c-0.4-0.2-0.7-0.5-1-0.9c-0.2-0.4-0.3-0.8-0.3-1.3v-4.8c0,0,0-0.1,0-0.1c0,0,0.1,0,0.1,0h1.2
			c0,0,0.1,0,0.1,0c0,0,0,0.1,0,0.1v4.8c0,0.4,0.1,0.7,0.3,0.9c0.2,0.2,0.5,0.3,0.9,0.3c0.4,0,0.7-0.1,0.9-0.3
			c0.2-0.2,0.3-0.5,0.3-0.9v-4.8c0,0,0-0.1,0-0.1c0,0,0.1,0,0.1,0h1.2c0,0,0.1,0,0.1,0c0,0,0,0.1,0,0.1v4.8c0,0.5-0.1,0.9-0.3,1.3
			c-0.2,0.4-0.5,0.7-1,0.9c-0.4,0.2-0.9,0.3-1.4,0.3C42.6,97.1,42.1,97,41.7,96.7z"/>
		<path class="st0" d="M51.3,89.7C51.3,89.6,51.4,89.6,51.3,89.7l1.3,0c0,0,0.1,0,0.1,0c0,0,0,0.1,0,0.1v7.1c0,0,0,0.1,0,0.1
			c0,0-0.1,0-0.1,0h-1.2c-0.1,0-0.1,0-0.1-0.1l-2.7-4.5c0,0,0,0,0,0c0,0,0,0,0,0l0,4.4c0,0,0,0.1,0,0.1c0,0-0.1,0-0.1,0h-1.2
			c0,0-0.1,0-0.1,0c0,0,0-0.1,0-0.1v-7.1c0,0,0-0.1,0-0.1c0,0,0.1,0,0.1,0h1.2c0.1,0,0.1,0,0.1,0.1l2.7,4.5c0,0,0,0,0,0c0,0,0,0,0,0
			L51.3,89.7C51.3,89.7,51.3,89.7,51.3,89.7z"/>
		<path class="st0" d="M54.1,96.9C54,96.9,54,96.9,54.1,96.9l0-7.2c0,0,0-0.1,0-0.1c0,0,0.1,0,0.1,0h1.2c0,0,0.1,0,0.1,0
			c0,0,0,0.1,0,0.1v7.1c0,0,0,0.1,0,0.1c0,0-0.1,0-0.1,0L54.1,96.9C54.1,97,54.1,97,54.1,96.9z"/>
		<path class="st0" d="M58.6,96.9l-2.2-7.1l0,0c0-0.1,0-0.1,0.1-0.1h1.3c0.1,0,0.1,0,0.1,0.1l1.4,5.1c0,0,0,0,0,0c0,0,0,0,0,0
			l1.4-5.1c0-0.1,0.1-0.1,0.1-0.1h1.3c0,0,0.1,0,0.1,0c0,0,0,0.1,0,0.1l-2.2,7.1c0,0.1-0.1,0.1-0.1,0.1h-1.3
			C58.7,97,58.6,96.9,58.6,96.9z"/>
		<path class="st0" d="M68.3,90.9C68.3,90.9,68.3,90.9,68.3,90.9l-3.5,0c0,0-0.1,0-0.1,0.1v1.6c0,0,0,0.1,0.1,0.1h2.3
			c0,0,0.1,0,0.1,0c0,0,0,0.1,0,0.1v1c0,0,0,0.1,0,0.1c0,0-0.1,0-0.1,0h-2.3c0,0-0.1,0-0.1,0.1v1.7c0,0,0,0.1,0.1,0.1h3.4
			c0,0,0.1,0,0.1,0c0,0,0,0.1,0,0.1v1c0,0,0,0.1,0,0.1c0,0-0.1,0-0.1,0h-4.9c0,0-0.1,0-0.1,0c0,0,0-0.1,0-0.1v-7.1c0,0,0-0.1,0-0.1
			c0,0,0.1,0,0.1,0h4.9c0,0,0.1,0,0.1,0c0,0,0,0.1,0,0.1L68.3,90.9C68.4,90.8,68.4,90.8,68.3,90.9z"/>
		<path class="st0" d="M73.3,96.9L72,94c0,0,0,0-0.1,0h-1c0,0-0.1,0-0.1,0.1v2.9c0,0,0,0.1,0,0.1c0,0-0.1,0-0.1,0h-1.2
			c0,0-0.1,0-0.1,0c0,0,0-0.1,0-0.1v-7.1c0,0,0-0.1,0-0.1c0,0,0.1,0,0.1,0h3c0.4,0,0.8,0.1,1.2,0.3c0.3,0.2,0.6,0.4,0.8,0.8
			c0.2,0.3,0.3,0.7,0.3,1.2c0,0.5-0.1,0.9-0.4,1.2c-0.2,0.3-0.6,0.6-1,0.7c0,0,0,0,0,0.1l1.4,3c0,0,0,0,0,0.1c0,0.1,0,0.1-0.1,0.1
			h-1.3C73.4,97,73.3,96.9,73.3,96.9z M70.9,91v1.8c0,0,0,0.1,0.1,0.1h1.4c0.3,0,0.5-0.1,0.7-0.3c0.2-0.2,0.3-0.4,0.3-0.7
			c0-0.3-0.1-0.5-0.3-0.7c-0.2-0.2-0.4-0.3-0.7-0.3L70.9,91C70.9,90.9,70.9,90.9,70.9,91z"/>
		<path class="st0" d="M76.9,96.8c-0.4-0.2-0.7-0.4-1-0.8c-0.2-0.3-0.3-0.7-0.3-1.2v-0.2c0,0,0-0.1,0-0.1c0,0,0.1,0,0.1,0h1.2
			c0,0,0.1,0,0.1,0c0,0,0,0.1,0,0.1v0.2c0,0.3,0.1,0.5,0.4,0.7c0.3,0.2,0.6,0.3,1.1,0.3c0.4,0,0.6-0.1,0.8-0.2
			c0.2-0.2,0.3-0.4,0.3-0.6c0-0.2-0.1-0.3-0.2-0.4c-0.1-0.1-0.3-0.2-0.5-0.3c-0.2-0.1-0.5-0.2-0.9-0.4c-0.5-0.2-0.9-0.3-1.2-0.5
			c-0.3-0.2-0.6-0.4-0.8-0.7c-0.2-0.3-0.3-0.6-0.3-1.1c0-0.4,0.1-0.8,0.3-1.1c0.2-0.3,0.5-0.6,0.9-0.7c0.4-0.2,0.8-0.3,1.3-0.3
			c0.5,0,1,0.1,1.4,0.3c0.4,0.2,0.7,0.5,1,0.8c0.2,0.3,0.4,0.7,0.4,1.2V92c0,0,0,0.1,0,0.1c0,0-0.1,0-0.1,0h-1.2c0,0-0.1,0-0.1,0
			c0,0,0-0.1,0-0.1v-0.1c0-0.3-0.1-0.5-0.4-0.8c-0.2-0.2-0.6-0.3-1-0.3c-0.3,0-0.6,0.1-0.8,0.2c-0.2,0.1-0.3,0.3-0.3,0.6
			c0,0.2,0.1,0.3,0.2,0.4c0.1,0.1,0.3,0.2,0.5,0.3c0.2,0.1,0.5,0.2,1,0.4c0.5,0.2,0.9,0.3,1.2,0.5c0.3,0.1,0.5,0.3,0.8,0.6
			c0.2,0.3,0.3,0.6,0.3,1.1c0,0.7-0.2,1.2-0.7,1.6c-0.5,0.4-1.1,0.6-2,0.6C77.8,97.1,77.3,97,76.9,96.8z"/>
		<path class="st0" d="M82.1,96.9C82.1,96.9,82.1,96.9,82.1,96.9l0-7.2c0,0,0-0.1,0-0.1c0,0,0.1,0,0.1,0h1.2c0,0,0.1,0,0.1,0
			c0,0,0,0.1,0,0.1v7.1c0,0,0,0.1,0,0.1c0,0-0.1,0-0.1,0L82.1,96.9C82.2,97,82.1,97,82.1,96.9z"/>
		<path class="st0" d="M84.9,96.9C84.9,96.9,84.8,96.9,84.9,96.9l0-7.2c0,0,0-0.1,0-0.1c0,0,0.1,0,0.1,0h2.6c0.5,0,1,0.1,1.4,0.3
			c0.4,0.2,0.7,0.4,0.9,0.8c0.2,0.3,0.3,0.7,0.3,1.2v2.9c0,0.4-0.1,0.8-0.3,1.2c-0.2,0.3-0.5,0.6-0.9,0.8c-0.4,0.2-0.9,0.3-1.4,0.3
			L84.9,96.9C84.9,97,84.9,97,84.9,96.9z M86.4,95.7h1.3c0.3,0,0.6-0.1,0.8-0.3c0.2-0.2,0.3-0.5,0.3-0.9v-2.4c0-0.4-0.1-0.7-0.3-0.9
			c-0.2-0.2-0.5-0.3-0.8-0.3h-1.3c0,0-0.1,0-0.1,0.1L86.4,95.7C86.3,95.7,86.3,95.7,86.4,95.7z"/>
		<path class="st0" d="M95.5,96.9l-0.3-1c0,0,0,0-0.1,0h-2.6c0,0,0,0-0.1,0l-0.3,1c0,0.1-0.1,0.1-0.1,0.1h-1.3c0,0-0.1,0-0.1,0
			c0,0,0-0.1,0-0.1l2.3-7.1c0-0.1,0.1-0.1,0.1-0.1h1.6c0.1,0,0.1,0,0.1,0.1l2.3,7.1c0,0,0,0,0,0.1c0,0.1,0,0.1-0.1,0.1h-1.3
			C95.5,97,95.5,96.9,95.5,96.9z M92.9,94.7h1.8c0,0,0.1,0,0-0.1l-0.9-3.1c0,0,0,0,0,0c0,0,0,0,0,0L92.9,94.7
			C92.8,94.6,92.9,94.7,92.9,94.7z"/>
		<path class="st0" d="M98,96.9C98,96.9,98,96.9,98,96.9l0-7.2c0,0,0-0.1,0-0.1c0,0,0.1,0,0.1,0h2.6c0.5,0,1,0.1,1.4,0.3
			c0.4,0.2,0.7,0.4,0.9,0.8c0.2,0.3,0.3,0.7,0.3,1.2v2.9c0,0.4-0.1,0.8-0.3,1.2c-0.2,0.3-0.5,0.6-0.9,0.8c-0.4,0.2-0.9,0.3-1.4,0.3
			L98,96.9C98.1,97,98,97,98,96.9z M99.5,95.7h1.3c0.3,0,0.6-0.1,0.8-0.3c0.2-0.2,0.3-0.5,0.3-0.9v-2.4c0-0.4-0.1-0.7-0.3-0.9
			c-0.2-0.2-0.5-0.3-0.8-0.3h-1.3c0,0-0.1,0-0.1,0.1L99.5,95.7C99.5,95.7,99.5,95.7,99.5,95.7z"/>
		<path class="st0" d="M106.6,96.9C106.6,96.9,106.6,96.9,106.6,96.9l0-7.2c0,0,0-0.1,0-0.1c0,0,0.1,0,0.1,0h2.6
			c0.5,0,1,0.1,1.4,0.3c0.4,0.2,0.7,0.4,0.9,0.8c0.2,0.3,0.3,0.7,0.3,1.2v2.9c0,0.4-0.1,0.8-0.3,1.2c-0.2,0.3-0.5,0.6-0.9,0.8
			c-0.4,0.2-0.9,0.3-1.4,0.3L106.6,96.9C106.7,97,106.6,97,106.6,96.9z M108.1,95.7h1.3c0.3,0,0.6-0.1,0.8-0.3
			c0.2-0.2,0.3-0.5,0.3-0.9v-2.4c0-0.4-0.1-0.7-0.3-0.9c-0.2-0.2-0.5-0.3-0.8-0.3h-1.3c0,0-0.1,0-0.1,0.1L108.1,95.7
			C108.1,95.7,108.1,95.7,108.1,95.7z"/>
		<path class="st0" d="M118.1,90.9C118.1,90.9,118.1,90.9,118.1,90.9l-3.5,0c0,0-0.1,0-0.1,0.1v1.6c0,0,0,0.1,0.1,0.1h2.3
			c0,0,0.1,0,0.1,0c0,0,0,0.1,0,0.1v1c0,0,0,0.1,0,0.1c0,0-0.1,0-0.1,0h-2.3c0,0-0.1,0-0.1,0.1v1.7c0,0,0,0.1,0.1,0.1h3.4
			c0,0,0.1,0,0.1,0c0,0,0,0.1,0,0.1v1c0,0,0,0.1,0,0.1c0,0-0.1,0-0.1,0h-4.9c0,0-0.1,0-0.1,0c0,0,0-0.1,0-0.1v-7.1c0,0,0-0.1,0-0.1
			c0,0,0.1,0,0.1,0h4.9c0,0,0.1,0,0.1,0c0,0,0,0.1,0,0.1L118.1,90.9C118.2,90.8,118.2,90.8,118.1,90.9z"/>
		<path class="st0" d="M125.7,93.2c0.7,0.3,1,0.9,1,1.7c0,0.7-0.2,1.2-0.7,1.5c-0.5,0.3-1.1,0.5-1.8,0.5h-2.7c0,0-0.1,0-0.1,0
			c0,0,0-0.1,0-0.1v-7.1c0,0,0-0.1,0-0.1c0,0,0.1,0,0.1,0h2.6c1.7,0,2.5,0.7,2.5,2C126.5,92.3,126.3,92.8,125.7,93.2
			C125.6,93.2,125.6,93.2,125.7,93.2z M122.8,91v1.6c0,0,0,0.1,0.1,0.1h1.2c0.3,0,0.6-0.1,0.8-0.2c0.2-0.2,0.3-0.4,0.3-0.6
			c0-0.3-0.1-0.5-0.3-0.6c-0.2-0.2-0.4-0.2-0.8-0.2L122.8,91C122.8,90.9,122.8,90.9,122.8,91z M124.9,95.5c0.2-0.2,0.3-0.4,0.3-0.7
			c0-0.3-0.1-0.5-0.3-0.7c-0.2-0.2-0.4-0.2-0.8-0.2h-1.3c0,0-0.1,0-0.1,0.1v1.7c0,0,0,0.1,0.1,0.1h1.3
			C124.5,95.7,124.7,95.6,124.9,95.5z"/>
		<path class="st0" d="M129.1,96.7c-0.4-0.2-0.7-0.5-1-0.9c-0.2-0.4-0.3-0.8-0.3-1.3v-4.8c0,0,0-0.1,0-0.1c0,0,0.1,0,0.1,0h1.2
			c0,0,0.1,0,0.1,0c0,0,0,0.1,0,0.1v4.8c0,0.4,0.1,0.7,0.3,0.9c0.2,0.2,0.5,0.3,0.9,0.3c0.4,0,0.7-0.1,0.9-0.3
			c0.2-0.2,0.3-0.5,0.3-0.9v-4.8c0,0,0-0.1,0-0.1c0,0,0.1,0,0.1,0h1.2c0,0,0.1,0,0.1,0c0,0,0,0.1,0,0.1v4.8c0,0.5-0.1,0.9-0.3,1.3
			c-0.2,0.4-0.5,0.7-1,0.9c-0.4,0.2-0.9,0.3-1.4,0.3C129.9,97.1,129.5,97,129.1,96.7z"/>
		<path class="st0" d="M139.5,90.9C139.5,90.9,139.4,90.9,139.5,90.9l-3.5,0c0,0-0.1,0-0.1,0.1v1.6c0,0,0,0.1,0.1,0.1h2.3
			c0,0,0.1,0,0.1,0c0,0,0,0.1,0,0.1v1c0,0,0,0.1,0,0.1c0,0-0.1,0-0.1,0h-2.3c0,0-0.1,0-0.1,0.1v1.7c0,0,0,0.1,0.1,0.1h3.4
			c0,0,0.1,0,0.1,0c0,0,0,0.1,0,0.1v1c0,0,0,0.1,0,0.1c0,0-0.1,0-0.1,0h-4.9c0,0-0.1,0-0.1,0c0,0,0-0.1,0-0.1v-7.1c0,0,0-0.1,0-0.1
			c0,0,0.1,0,0.1,0h4.9c0,0,0.1,0,0.1,0c0,0,0,0.1,0,0.1L139.5,90.9C139.5,90.8,139.5,90.8,139.5,90.9z"/>
		<path class="st0" d="M144.8,89.7C144.8,89.6,144.9,89.6,144.8,89.7l1.3,0c0,0,0.1,0,0.1,0c0,0,0,0.1,0,0.1v7.1c0,0,0,0.1,0,0.1
			c0,0-0.1,0-0.1,0h-1.2c-0.1,0-0.1,0-0.1-0.1l-2.7-4.5c0,0,0,0,0,0c0,0,0,0,0,0l0,4.4c0,0,0,0.1,0,0.1c0,0-0.1,0-0.1,0h-1.2
			c0,0-0.1,0-0.1,0c0,0,0-0.1,0-0.1v-7.1c0,0,0-0.1,0-0.1c0,0,0.1,0,0.1,0h1.2c0.1,0,0.1,0,0.1,0.1l2.7,4.5c0,0,0,0,0,0c0,0,0,0,0,0
			L144.8,89.7C144.8,89.7,144.8,89.7,144.8,89.7z"/>
		<path class="st0" d="M148.7,96.8c-0.4-0.2-0.7-0.5-1-0.9c-0.2-0.4-0.3-0.9-0.3-1.4v-2.2c0-0.5,0.1-1,0.3-1.4
			c0.2-0.4,0.6-0.7,1-0.9c0.4-0.2,0.9-0.3,1.4-0.3c0.6,0,1,0.1,1.5,0.3c0.4,0.2,0.7,0.5,1,0.9c0.2,0.4,0.3,0.9,0.3,1.4v2.2
			c0,0.5-0.1,1-0.3,1.4c-0.2,0.4-0.6,0.7-1,0.9c-0.4,0.2-0.9,0.3-1.5,0.3C149.6,97.1,149.1,97,148.7,96.8z M151.1,95.5
			c0.2-0.2,0.4-0.6,0.4-1v-2.3c0-0.4-0.1-0.7-0.4-1c-0.2-0.2-0.5-0.4-0.9-0.4c-0.4,0-0.7,0.1-0.9,0.4c-0.2,0.2-0.4,0.6-0.4,1v2.3
			c0,0.4,0.1,0.7,0.4,1c0.2,0.2,0.5,0.4,0.9,0.4C150.5,95.8,150.8,95.7,151.1,95.5z"/>
		<path class="st0" d="M155.1,96.8c-0.4-0.2-0.7-0.4-1-0.8c-0.2-0.3-0.3-0.7-0.3-1.2v-0.2c0,0,0-0.1,0-0.1c0,0,0.1,0,0.1,0h1.2
			c0,0,0.1,0,0.1,0c0,0,0,0.1,0,0.1v0.2c0,0.3,0.1,0.5,0.4,0.7c0.3,0.2,0.6,0.3,1.1,0.3c0.4,0,0.6-0.1,0.8-0.2
			c0.2-0.2,0.3-0.4,0.3-0.6c0-0.2-0.1-0.3-0.2-0.4c-0.1-0.1-0.3-0.2-0.5-0.3c-0.2-0.1-0.5-0.2-0.9-0.4c-0.5-0.2-0.9-0.3-1.2-0.5
			c-0.3-0.2-0.6-0.4-0.8-0.7c-0.2-0.3-0.3-0.6-0.3-1.1c0-0.4,0.1-0.8,0.3-1.1c0.2-0.3,0.5-0.6,0.9-0.7c0.4-0.2,0.8-0.3,1.3-0.3
			c0.5,0,1,0.1,1.4,0.3c0.4,0.2,0.7,0.5,1,0.8c0.2,0.3,0.4,0.7,0.4,1.2V92c0,0,0,0.1,0,0.1c0,0-0.1,0-0.1,0h-1.2c0,0-0.1,0-0.1,0
			c0,0,0-0.1,0-0.1v-0.1c0-0.3-0.1-0.5-0.4-0.8c-0.2-0.2-0.6-0.3-1-0.3c-0.3,0-0.6,0.1-0.8,0.2c-0.2,0.1-0.3,0.3-0.3,0.6
			c0,0.2,0.1,0.3,0.2,0.4c0.1,0.1,0.3,0.2,0.5,0.3c0.2,0.1,0.5,0.2,1,0.4c0.5,0.2,0.9,0.3,1.2,0.5c0.3,0.1,0.5,0.3,0.8,0.6
			c0.2,0.3,0.3,0.6,0.3,1.1c0,0.7-0.2,1.2-0.7,1.6c-0.5,0.4-1.1,0.6-2,0.6C156,97.1,155.5,97,155.1,96.8z"/>
		<path class="st0" d="M166.9,96.9l-0.3-1c0,0,0,0-0.1,0H164c0,0,0,0-0.1,0l-0.3,1c0,0.1-0.1,0.1-0.1,0.1h-1.3c0,0-0.1,0-0.1,0
			c0,0,0-0.1,0-0.1l2.3-7.1c0-0.1,0.1-0.1,0.1-0.1h1.6c0.1,0,0.1,0,0.1,0.1l2.3,7.1c0,0,0,0,0,0.1c0,0.1,0,0.1-0.1,0.1h-1.3
			C167,97,167,96.9,166.9,96.9z M164.4,94.7h1.8c0,0,0.1,0,0-0.1l-0.9-3.1c0,0,0,0,0,0c0,0,0,0,0,0L164.4,94.7
			C164.3,94.6,164.3,94.7,164.4,94.7z"/>
		<path class="st0" d="M169.5,96.9C169.5,96.9,169.4,96.9,169.5,96.9l0-7.2c0,0,0-0.1,0-0.1c0,0,0.1,0,0.1,0h1.2c0,0,0.1,0,0.1,0
			c0,0,0,0.1,0,0.1v7.1c0,0,0,0.1,0,0.1c0,0-0.1,0-0.1,0L169.5,96.9C169.5,97,169.5,97,169.5,96.9z"/>
		<path class="st0" d="M176.1,96.9l-1.3-2.9c0,0,0,0-0.1,0h-1c0,0-0.1,0-0.1,0.1v2.9c0,0,0,0.1,0,0.1c0,0-0.1,0-0.1,0h-1.2
			c0,0-0.1,0-0.1,0c0,0,0-0.1,0-0.1v-7.1c0,0,0-0.1,0-0.1c0,0,0.1,0,0.1,0h3c0.4,0,0.8,0.1,1.2,0.3c0.3,0.2,0.6,0.4,0.8,0.8
			c0.2,0.3,0.3,0.7,0.3,1.2c0,0.5-0.1,0.9-0.4,1.2c-0.2,0.3-0.6,0.6-1,0.7c0,0,0,0,0,0.1l1.4,3c0,0,0,0,0,0.1c0,0.1,0,0.1-0.1,0.1
			h-1.3C176.2,97,176.1,96.9,176.1,96.9z M173.7,91v1.8c0,0,0,0.1,0.1,0.1h1.4c0.3,0,0.5-0.1,0.7-0.3c0.2-0.2,0.3-0.4,0.3-0.7
			c0-0.3-0.1-0.5-0.3-0.7c-0.2-0.2-0.4-0.3-0.7-0.3L173.7,91C173.7,90.9,173.7,90.9,173.7,91z"/>
		<path class="st0" d="M183.7,90.9C183.7,90.9,183.7,90.9,183.7,90.9l-3.5,0c0,0-0.1,0-0.1,0.1v1.6c0,0,0,0.1,0.1,0.1h2.3
			c0,0,0.1,0,0.1,0c0,0,0,0.1,0,0.1v1c0,0,0,0.1,0,0.1c0,0-0.1,0-0.1,0h-2.3c0,0-0.1,0-0.1,0.1v1.7c0,0,0,0.1,0.1,0.1h3.4
			c0,0,0.1,0,0.1,0c0,0,0,0.1,0,0.1v1c0,0,0,0.1,0,0.1c0,0-0.1,0-0.1,0h-4.9c0,0-0.1,0-0.1,0c0,0,0-0.1,0-0.1v-7.1c0,0,0-0.1,0-0.1
			c0,0,0.1,0,0.1,0h4.9c0,0,0.1,0,0.1,0c0,0,0,0.1,0,0.1L183.7,90.9C183.8,90.8,183.7,90.8,183.7,90.9z"/>
		<path class="st0" d="M185.8,96.8c-0.4-0.2-0.7-0.4-1-0.8c-0.2-0.3-0.3-0.7-0.3-1.2v-0.2c0,0,0-0.1,0-0.1c0,0,0.1,0,0.1,0h1.2
			c0,0,0.1,0,0.1,0c0,0,0,0.1,0,0.1v0.2c0,0.3,0.1,0.5,0.4,0.7c0.3,0.2,0.6,0.3,1.1,0.3c0.4,0,0.6-0.1,0.8-0.2
			c0.2-0.2,0.3-0.4,0.3-0.6c0-0.2-0.1-0.3-0.2-0.4c-0.1-0.1-0.3-0.2-0.5-0.3c-0.2-0.1-0.5-0.2-0.9-0.4c-0.5-0.2-0.9-0.3-1.2-0.5
			c-0.3-0.2-0.6-0.4-0.8-0.7c-0.2-0.3-0.3-0.6-0.3-1.1c0-0.4,0.1-0.8,0.3-1.1c0.2-0.3,0.5-0.6,0.9-0.7c0.4-0.2,0.8-0.3,1.3-0.3
			c0.5,0,1,0.1,1.4,0.3c0.4,0.2,0.7,0.5,1,0.8c0.2,0.3,0.4,0.7,0.4,1.2V92c0,0,0,0.1,0,0.1c0,0-0.1,0-0.1,0h-1.2c0,0-0.1,0-0.1,0
			c0,0,0-0.1,0-0.1v-0.1c0-0.3-0.1-0.5-0.4-0.8c-0.2-0.2-0.6-0.3-1-0.3c-0.3,0-0.6,0.1-0.8,0.2c-0.2,0.1-0.3,0.3-0.3,0.6
			c0,0.2,0.1,0.3,0.2,0.4c0.1,0.1,0.3,0.2,0.5,0.3c0.2,0.1,0.5,0.2,1,0.4c0.5,0.2,0.9,0.3,1.2,0.5c0.3,0.1,0.5,0.3,0.8,0.6
			c0.2,0.3,0.3,0.6,0.3,1.1c0,0.7-0.2,1.2-0.7,1.6c-0.5,0.4-1.1,0.6-2,0.6C186.7,97.1,186.3,97,185.8,96.8z"/>
	</g>
	<g>
		<path class="st0" d="M40.5,55c-0.1-0.1-0.2-0.3-0.2-0.5V12.2c0-0.2,0.1-0.4,0.2-0.5c0.1-0.1,0.3-0.2,0.5-0.2h5.7
			c0.2,0,0.4,0.1,0.5,0.2c0.1,0.1,0.2,0.3,0.2,0.5v42.2c0,0.2-0.1,0.4-0.2,0.5c-0.1,0.1-0.3,0.2-0.5,0.2H41
			C40.8,55.2,40.6,55.1,40.5,55z"/>
		<path class="st0" d="M86,17.5c-0.1,0.1-0.3,0.2-0.5,0.2H64.2c-0.2,0-0.3,0.1-0.3,0.3v11.7c0,0.2,0.1,0.3,0.3,0.3h14.3
			c0.2,0,0.4,0.1,0.5,0.2c0.1,0.1,0.2,0.3,0.2,0.5v4.7c0,0.2-0.1,0.4-0.2,0.5c-0.1,0.1-0.3,0.2-0.5,0.2H64.2c-0.2,0-0.3,0.1-0.3,0.3
			v12.1c0,0.2,0.1,0.3,0.3,0.3h21.3c0.2,0,0.4,0.1,0.5,0.2c0.1,0.1,0.2,0.3,0.2,0.5v4.7c0,0.2-0.1,0.4-0.2,0.5
			c-0.1,0.1-0.3,0.2-0.5,0.2H57.4c-0.2,0-0.4-0.1-0.5-0.2c-0.1-0.1-0.2-0.3-0.2-0.5V12.2c0-0.2,0.1-0.4,0.2-0.5
			c0.1-0.1,0.3-0.2,0.5-0.2h28.1c0.2,0,0.4,0.1,0.5,0.2c0.1,0.1,0.2,0.3,0.2,0.5V17C86.3,17.2,86.2,17.4,86,17.5z"/>
		<path class="st0" d="M131.3,55c-0.1-0.1-0.2-0.3-0.2-0.5V12.2c0-0.2,0.1-0.4,0.2-0.5c0.1-0.1,0.3-0.2,0.5-0.2h15.2
			c3,0,5.6,0.5,7.8,1.6c2.2,1,4,2.5,5.2,4.5c1.2,1.9,1.8,4.2,1.8,6.8v18.1c0,2.6-0.6,4.8-1.8,6.8c-1.2,1.9-3,3.4-5.2,4.5
			c-2.2,1-4.9,1.6-7.8,1.6h-15.2C131.7,55.2,131.5,55.1,131.3,55z M138.7,49h8.7c2.2,0,4-0.7,5.3-2.1c1.3-1.4,2-3.3,2-5.6V25.5
			c0-2.4-0.7-4.3-2-5.7c-1.3-1.4-3.1-2.1-5.4-2.1h-8.7c-0.2,0-0.3,0.1-0.3,0.3v30.6C138.4,48.9,138.5,49,138.7,49z"/>
	</g>
	<path class="st0" d="M31.7,41.4c-0.5,4.6-2.1,8.1-4.8,10.6c-2.7,2.4-6.4,3.7-10.9,3.7c-3.2,0-6-0.8-8.4-2.4
		c-2.4-1.6-4.3-3.9-5.6-6.9c-1.3-3-2-6.4-2-10.2v-5.7c0-3.9,0.7-7.3,2-10.3c1.3-3,3.2-5.3,5.7-6.9c2.5-1.6,5.3-2.4,8.6-2.4
		c4.6,0,8.2,1.3,10.8,3.8c2.6,2.5,4.2,6,4.6,10.5h-3.6c-0.9-7.4-4.8-11.1-11.8-11.1c-3.9,0-6.9,1.5-9.2,4.4c-2.3,3-3.5,7.1-3.5,12.3
		v5.3C3.6,41,4.7,45,7,48c2.2,3,5.3,4.5,9.1,4.5c3.8,0,6.6-0.9,8.5-2.8c1.9-1.8,3.1-4.6,3.5-8.3H31.7z"/>
	<path class="st0" d="M116.5,38.9l-0.2,1.7c-0.4,3-1.3,5.2-2.7,6.5c-1.4,1.3-3.6,2-6.5,2c-2.9,0-5.1-1.1-6.8-3.4
		c-1.8-2.4-2.7-5.8-2.7-10v-4.9c0-4.4,0.9-7.8,2.8-10.2c1.8-2.3,4-3.4,7-3.4c5.4,0,8.3,2.7,9,8.6l0.2,1.7h7.3l-0.2-2.1
		c-0.4-4.6-2.1-8.3-4.9-11c-2.8-2.7-6.7-4-11.4-4c-3.4,0-6.4,0.9-9,2.6c-2.6,1.7-4.7,4.1-6,7.3c-1.3,3-2,6.5-2,10.4V36
		c0,3.8,0.7,7.3,2,10.2c1.4,3.1,3.4,5.5,5.9,7.2c2.6,1.7,5.6,2.6,8.9,2.6c4.7,0,8.5-1.3,11.4-3.9c2.9-2.6,4.6-6.3,5.1-11l0.2-2.2
		H116.5z"/>
</g>
</svg>
