<?xml version="1.0" encoding="utf-8"?>
<!-- Generator: Adobe Illustrator 25.2.0, SVG Export Plug-In . SVG Version: 6.00 Build 0)  -->
<svg version="1.1" id="Layer_1" xmlns="http://www.w3.org/2000/svg" xmlns:xlink="http://www.w3.org/1999/xlink" x="0px" y="0px"
	 viewBox="0 0 260.1 52.7" style="enable-background:new 0 0 260.1 52.7;" xml:space="preserve">
<style type="text/css">
	.st0{fill:#FFFFFF;}
</style>
<g>
	<g>
		<g>
			<path class="st0" d="M74.7,0.4h2v21.8h-2V0.4z"/>
			<path class="st0" d="M80.9,0.4h2.6l8.3,19h0.1v-19h2v21.8h-2.6l-8.3-19h-0.1v19h-2V0.4z"/>
			<path class="st0" d="M102.1,2h-5.6V0.4h13.2V2H104v20.1h-2V2z"/>
			<path class="st0" d="M112.2,0.4H123V2h-8.8v7.9h8.3v1.6h-8.3v8.9h9.1v1.6h-11.1V0.4z"/>
			<path class="st0" d="M126.5,0.4h6.5c3.6,0,5.6,2.1,5.6,5.5c0,2.6-1,5-3.9,5.5v0.1c2.7,0.2,3.6,1.8,3.7,5.2l0.1,2.4
				c0,1.2,0.2,2.3,0.9,3.2h-2.3c-0.5-0.8-0.5-1.9-0.6-3.1l-0.1-1.8c-0.1-3.8-0.8-5.1-4.3-5.1h-3.7v9.9h-2V0.4z M128.4,10.6h3.4
				c3.1,0,4.9-1.4,4.9-4.3c0-2.7-1.1-4.3-4.7-4.3h-3.6V10.6z"/>
			<path class="st0" d="M142.5,0.4h2.6l8.3,19h0.1v-19h2v21.8h-2.6l-8.3-19h-0.1v19h-2V0.4z"/>
			<path class="st0" d="M164.2,0.4h2.4l6.4,21.8H171l-1.8-6.3h-7.6l-1.8,6.3h-2.1L164.2,0.4z M168.9,14.2l-3.4-12.3h-0.1l-3.4,12.3
				H168.9z"/>
			<path class="st0" d="M188.7,14.8c-0.3,5-2.6,7.8-6.5,7.8c-4.5,0-7-3.4-7-11.3c0-7.8,2.5-11.3,7-11.3c4.4,0,6.3,3.1,6.3,6.7h-2
				c0-3-1.5-5.1-4.3-5.1c-3.1,0-5,2.6-5,9.6c0,7,1.9,9.6,5,9.6c2.7,0,4.3-2.3,4.5-6.1H188.7z"/>
			<path class="st0" d="M192.2,0.4h2v21.8h-2V0.4z"/>
			<path class="st0" d="M205.1,0c4.5,0,7,3.4,7,11.3c0,7.8-2.5,11.3-7,11.3c-4.5,0-7-3.4-7-11.3C198.2,3.4,200.7,0,205.1,0z
				 M205.1,20.9c3.1,0,5-2.6,5-9.6c0-7-1.9-9.6-5-9.6c-3.1,0-5,2.6-5,9.6C200.1,18.3,202,20.9,205.1,20.9z"/>
			<path class="st0" d="M216,0.4h2.6l8.3,19h0.1v-19h2v21.8h-2.6l-8.3-19H218v19h-2V0.4z"/>
			<path class="st0" d="M237.8,0.4h2.4l6.4,21.8h-2.1l-1.8-6.3h-7.6l-1.8,6.3h-2.1L237.8,0.4z M242.4,14.2l-3.4-12.3H239l-3.4,12.3
				H242.4z"/>
			<path class="st0" d="M249.1,0.4h2v20.1h9v1.6h-11V0.4z"/>
		</g>
		<g>
			<path class="st0" d="M25.8,14.1c0,5.9-3.5,8.8-9.3,8.8c-5.9,0-9.3-2.8-9.3-8.8V0.6H12v13.5c0,2.4,0.6,4.7,4.5,4.7
				c3.4,0,4.5-1.5,4.5-4.7V0.6h4.8V14.1z"/>
			<path class="st0" d="M29.9,0.6h10.3c4.1,0,7,1.3,7,5.4c0,2.1-1.1,3.6-3,4.5c2.7,0.8,4,2.8,4,5.5c0,4.4-3.8,6.3-7.7,6.3H29.9V0.6z
				 M34.7,9.4h4.9c1.7,0,2.9-0.8,2.9-2.6c0-2.1-1.6-2.5-3.3-2.5h-4.5V9.4z M34.7,18.7h5.1c1.9,0,3.5-0.6,3.5-2.9
				c0-2.2-1.4-3.1-3.4-3.1h-5.2V18.7z"/>
			<path class="st0" d="M57.4,0.6h4.9l8.1,21.8h-5l-1.6-4.9h-8.1l-1.7,4.9h-4.9L57.4,0.6z M56.9,14h5.6l-2.7-8h-0.1L56.9,14z"/>
		</g>
		<path class="st0" d="M5.7,20.2c0,1.6-1.3,2.9-2.9,2.9c-1.6,0-2.9-1.3-2.9-2.9c0-1.6,1.3-2.9,2.9-2.9C4.5,17.3,5.7,18.6,5.7,20.2z"
			/>
	</g>
	<g>
		<g>
			<path class="st0" d="M78.6,32.1c0-1-0.4-1.7-1.5-1.7c-1,0-1.6,0.5-1.6,1.5c0,2.7,4.5,1.1,4.5,4.6c0,2.2-1.6,2.8-3,2.8
				c-2.2,0-2.9-1.1-2.9-3.2h1.2c0,1.1,0.1,2.2,1.8,2.2c0.9,0,1.7-0.7,1.7-1.7c0-2.7-4.5-1.1-4.5-4.6c0-0.9,0.4-2.6,2.8-2.6
				c1.8,0,2.6,0.9,2.7,2.6H78.6z"/>
			<path class="st0" d="M82.4,35.7c0,1.1,0,2.7,1.4,2.7c1.1,0,1.2-1.1,1.2-1.7h1.1c0,0.8-0.5,2.5-2.4,2.5c-1.7,0-2.5-1.2-2.5-3.7
				c0-1.8,0.3-3.8,2.5-3.8c2.2,0,2.4,1.9,2.4,3.4v0.5H82.4z M85,34.9v-0.4c0-0.8-0.3-1.7-1.2-1.7c-1.2,0-1.3,1.4-1.3,1.9v0.3H85z"/>
			<path class="st0" d="M91.1,34.2c0-0.7-0.3-1.5-1.1-1.5c-0.7,0-1.4,0.3-1.4,3c0,0.9,0,2.8,1.4,2.8c1,0,1.2-1,1.2-1.8h1.1
				c0,1.1-0.6,2.7-2.3,2.7c-1.7,0-2.5-1.2-2.5-3.7c0-1.8,0.3-3.8,2.5-3.8c1.9,0,2.3,1.5,2.3,2.4H91.1z"/>
			<path class="st0" d="M93.6,32h1.1v1.1h0c0.3-0.7,0.7-1.3,1.5-1.3c0.2,0,0.4,0,0.5,0.1V33c-0.1,0-0.2-0.1-0.6-0.1
				c-0.6,0-1.5,0.5-1.5,1.7v4.5h-1.1V32z"/>
			<path class="st0" d="M98.7,35.7c0,1.1,0,2.7,1.4,2.7c1.1,0,1.2-1.1,1.2-1.7h1.1c0,0.8-0.5,2.5-2.4,2.5c-1.7,0-2.5-1.2-2.5-3.7
				c0-1.8,0.3-3.8,2.5-3.8c2.2,0,2.4,1.9,2.4,3.4v0.5H98.7z M101.3,34.9v-0.4c0-0.8-0.3-1.7-1.2-1.7c-1.2,0-1.3,1.4-1.3,1.9v0.3
				H101.3z"/>
			<path class="st0" d="M104.3,30h1.1V32h1.2v0.9h-1.2v4.6c0,0.6,0.1,0.8,0.7,0.8c0.2,0,0.4,0,0.5,0v0.9c-0.1,0-0.4,0.1-0.9,0.1
				c-1.2,0-1.4-0.5-1.4-1.4v-4.9h-1V32h1V30z"/>
			<path class="st0" d="M107.5,34.2c0-1.6,0.7-2.3,2.4-2.3c2.2,0,2.2,1.3,2.2,2.1v4c0,0.3,0,0.6,0.3,0.6c0.1,0,0.2,0,0.3-0.1v0.8
				c-0.1,0-0.4,0.1-0.7,0.1c-0.4,0-1,0-1-0.9h0c-0.4,0.6-1.1,1-1.7,1c-1.3,0-1.9-0.8-1.9-2.1c0-1,0.4-1.7,1.3-2l1.5-0.5
				c0.8-0.3,0.8-0.5,0.8-1.1c0-0.7-0.4-1.1-1.1-1.1c-1.2,0-1.2,1.1-1.2,1.4v0.1H107.5z M111,35.3c-0.4,0.4-1.4,0.5-1.9,0.8
				c-0.4,0.2-0.5,0.5-0.5,1.1c0,0.7,0.3,1.2,1,1.2c0.7,0,1.4-0.6,1.4-1.4V35.3z"/>
			<path class="st0" d="M113.9,32h1.1v1.1h0c0.3-0.7,0.7-1.3,1.5-1.3c0.2,0,0.4,0,0.5,0.1V33c-0.1,0-0.2-0.1-0.6-0.1
				c-0.6,0-1.5,0.5-1.5,1.7v4.5h-1.1V32z"/>
			<path class="st0" d="M119,29.2h1.3l-1.4,1.9H118L119,29.2z M118.2,32h1.1v7.1h-1.1V32z"/>
			<path class="st0" d="M120.9,34.2c0-1.6,0.7-2.3,2.4-2.3c2.2,0,2.2,1.3,2.2,2.1v4c0,0.3,0,0.6,0.3,0.6c0.1,0,0.2,0,0.3-0.1v0.8
				c-0.1,0-0.4,0.1-0.7,0.1c-0.4,0-1,0-1-0.9h0c-0.4,0.6-1.1,1-1.7,1c-1.3,0-1.9-0.8-1.9-2.1c0-1,0.4-1.7,1.3-2l1.5-0.5
				c0.8-0.3,0.8-0.5,0.8-1.1c0-0.7-0.4-1.1-1.1-1.1c-1.2,0-1.2,1.1-1.2,1.4v0.1H120.9z M124.3,35.3c-0.4,0.4-1.4,0.5-1.9,0.8
				c-0.4,0.2-0.5,0.5-0.5,1.1c0,0.7,0.3,1.2,1,1.2c0.7,0,1.4-0.6,1.4-1.4V35.3z"/>
			<path class="st0" d="M135.4,39.2h-1.1v-0.9h0c-0.1,0.5-0.8,1.1-1.5,1.1c-1.7,0-2.3-1.5-2.3-3.8c0-1.5,0.2-3.8,2.2-3.8
				c0.6,0,1.3,0.4,1.6,1h0v-3.2h1.1V39.2z M132.9,38.4c1.2,0,1.4-1.2,1.4-2.8c0-1.4-0.2-2.8-1.4-2.8c-1,0-1.3,1.1-1.3,2.8
				C131.6,37.3,131.9,38.4,132.9,38.4z"/>
			<path class="st0" d="M138.1,35.7c0,1.1,0,2.7,1.4,2.7c1.1,0,1.2-1.1,1.2-1.7h1.1c0,0.8-0.5,2.5-2.4,2.5c-1.7,0-2.5-1.2-2.5-3.7
				c0-1.8,0.3-3.8,2.5-3.8c2.2,0,2.4,1.9,2.4,3.4v0.5H138.1z M140.6,34.9v-0.4c0-0.8-0.3-1.7-1.2-1.7c-1.2,0-1.3,1.4-1.3,1.9v0.3
				H140.6z"/>
			<path class="st0" d="M74.6,43h3.1c1.5,0,2.4,0.9,2.4,2.4c0,1-0.4,2.1-1.5,2.4v0c0.8,0.1,1.3,0.8,1.3,1.6l0.1,1.6
				c0.1,1.1,0.2,1.3,0.5,1.5h-1.4c-0.2-0.2-0.3-0.9-0.3-1.4l-0.1-1.5c-0.1-1.3-0.8-1.4-1.4-1.4h-1.6v4.2h-1.2V43z M75.8,47.3h1.2
				c0.7,0,2,0,2-1.8c0-0.9-0.6-1.5-1.7-1.5h-1.4V47.3z"/>
			<path class="st0" d="M82.7,49.1c0,1.1,0,2.7,1.4,2.7c1.1,0,1.2-1.1,1.2-1.7h1.1c0,0.8-0.5,2.5-2.4,2.5c-1.7,0-2.5-1.2-2.5-3.7
				c0-1.8,0.3-3.8,2.5-3.8c2.2,0,2.4,1.9,2.4,3.4v0.5H82.7z M85.3,48.2v-0.4C85.3,47,85,46,84,46c-1.2,0-1.3,1.4-1.3,1.9v0.3H85.3z"
				/>
			<path class="st0" d="M88,43h1.1v9.5H88V43z"/>
			<path class="st0" d="M90.7,47.5c0-1.6,0.7-2.3,2.4-2.3c2.2,0,2.2,1.3,2.2,2.1v4c0,0.3,0,0.6,0.3,0.6c0.1,0,0.2,0,0.3-0.1v0.8
				c-0.1,0-0.4,0.1-0.7,0.1c-0.4,0-1,0-1-0.9h0c-0.4,0.6-1.1,1-1.7,1c-1.3,0-1.9-0.8-1.9-2.1c0-1,0.4-1.7,1.3-2l1.5-0.5
				c0.8-0.3,0.8-0.5,0.8-1.1c0-0.7-0.4-1.1-1.1-1.1c-1.2,0-1.2,1.1-1.2,1.4v0.1H90.7z M94.2,48.6c-0.4,0.4-1.4,0.5-1.9,0.8
				c-0.4,0.2-0.5,0.5-0.5,1.1c0,0.7,0.3,1.2,1,1.2c0.7,0,1.4-0.6,1.4-1.4V48.6z"/>
			<path class="st0" d="M100.5,47.5c0-0.7-0.3-1.5-1.1-1.5c-0.7,0-1.4,0.3-1.4,3c0,0.9,0,2.8,1.4,2.8c1,0,1.2-1,1.2-1.8h1.1
				c0,1.1-0.6,2.7-2.3,2.7c-1.7,0-2.5-1.2-2.5-3.7c0-1.8,0.3-3.8,2.5-3.8c1.9,0,2.3,1.5,2.3,2.4H100.5z"/>
			<path class="st0" d="M103.1,43h1.1v1.3h-1.1V43z M103.1,45.4h1.1v7.1h-1.1V45.4z"/>
			<path class="st0" d="M108.2,45.2c2.1,0,2.6,1.7,2.6,3.8c0,2-0.5,3.8-2.6,3.8c-2.1,0-2.6-1.7-2.6-3.8
				C105.7,46.9,106.2,45.2,108.2,45.2z M109.6,48.9c0-1.5-0.2-2.9-1.4-2.9c-1.1,0-1.4,1.3-1.4,2.9c0,1.5,0.2,2.9,1.4,2.9
				C109.4,51.8,109.6,50.5,109.6,48.9z"/>
			<path class="st0" d="M112.2,45.4h1.1v0.8h0c0.3-0.7,1-1,1.7-1c1.9,0,1.9,1.4,1.9,2.3v5.1h-1.1v-4.9c0-0.5,0-1.4-1.1-1.4
				c-0.6,0-1.4,0.4-1.4,1.4v4.9h-1.1V45.4z"/>
			<path class="st0" d="M119.5,49.1c0,1.1,0,2.7,1.4,2.7c1.1,0,1.2-1.1,1.2-1.7h1.1c0,0.8-0.5,2.5-2.4,2.5c-1.7,0-2.5-1.2-2.5-3.7
				c0-1.8,0.3-3.8,2.5-3.8c2.2,0,2.4,1.9,2.4,3.4v0.5H119.5z M122.1,48.2v-0.4c0-0.8-0.3-1.7-1.2-1.7c-1.2,0-1.3,1.4-1.3,1.9v0.3
				H122.1z"/>
			<path class="st0" d="M127.8,47.4c0-0.9-0.2-1.4-1.1-1.4c-0.4,0-1.2,0.1-1.2,1.1c0,0.8,0.9,1,1.8,1.3c0.9,0.3,1.7,0.6,1.7,2
				c0,1.5-1,2.2-2.3,2.2c-2.4,0-2.4-1.8-2.4-2.5h1.1c0,0.9,0.2,1.7,1.3,1.7c0.4,0,1.2-0.2,1.2-1.2c0-1-0.9-1.2-1.7-1.5
				c-0.9-0.3-1.8-0.5-1.8-2c0-1.3,1-2,2.3-2c2.1,0,2.2,1.4,2.2,2.3H127.8z"/>
			<path class="st0" d="M134,43h1.2v9.5H134V43z"/>
			<path class="st0" d="M136.9,45.4h1.1v0.8h0c0.3-0.7,1-1,1.7-1c1.9,0,1.9,1.4,1.9,2.3v5.1h-1.1v-4.9c0-0.5,0-1.4-1.1-1.4
				c-0.6,0-1.4,0.4-1.4,1.4v4.9h-1.1V45.4z"/>
			<path class="st0" d="M143.7,43.3h1.1v2.1h1.2v0.9h-1.2v4.6c0,0.6,0.1,0.8,0.7,0.8c0.2,0,0.4,0,0.5,0v0.9c-0.1,0-0.4,0.1-0.9,0.1
				c-1.2,0-1.4-0.5-1.4-1.4v-4.9h-1v-0.9h1V43.3z"/>
			<path class="st0" d="M148,49.1c0,1.1,0,2.7,1.4,2.7c1.1,0,1.2-1.1,1.2-1.7h1.1c0,0.8-0.5,2.5-2.4,2.5c-1.7,0-2.5-1.2-2.5-3.7
				c0-1.8,0.3-3.8,2.5-3.8c2.2,0,2.4,1.9,2.4,3.4v0.5H148z M150.6,48.2v-0.4c0-0.8-0.3-1.7-1.2-1.7c-1.2,0-1.3,1.4-1.3,1.9v0.3
				H150.6z"/>
			<path class="st0" d="M153.2,45.4h1.1v1.1h0c0.3-0.7,0.7-1.3,1.5-1.3c0.2,0,0.4,0,0.5,0.1v1.1c-0.1,0-0.2-0.1-0.6-0.1
				c-0.6,0-1.5,0.5-1.5,1.7v4.5h-1.1V45.4z"/>
			<path class="st0" d="M157.4,45.4h1.1v0.8h0c0.3-0.7,1-1,1.7-1c1.9,0,1.9,1.4,1.9,2.3v5.1H161v-4.9c0-0.5,0-1.4-1.1-1.4
				c-0.6,0-1.4,0.4-1.4,1.4v4.9h-1.1V45.4z"/>
			<path class="st0" d="M163.7,47.5c0-1.6,0.7-2.3,2.4-2.3c2.2,0,2.2,1.3,2.2,2.1v4c0,0.3,0,0.6,0.3,0.6c0.1,0,0.2,0,0.3-0.1v0.8
				c-0.1,0-0.4,0.1-0.7,0.1c-0.4,0-1,0-1-0.9h0c-0.4,0.6-1.1,1-1.7,1c-1.3,0-1.9-0.8-1.9-2.1c0-1,0.4-1.7,1.3-2l1.5-0.5
				c0.8-0.3,0.8-0.5,0.8-1.1c0-0.7-0.4-1.1-1.1-1.1c-1.2,0-1.2,1.1-1.2,1.4v0.1H163.7z M167.1,48.6c-0.4,0.4-1.4,0.5-1.9,0.8
				c-0.4,0.2-0.5,0.5-0.5,1.1c0,0.7,0.3,1.2,1,1.2c0.7,0,1.4-0.6,1.4-1.4V48.6z"/>
			<path class="st0" d="M173.4,47.5c0-0.7-0.3-1.5-1.1-1.5c-0.7,0-1.4,0.3-1.4,3c0,0.9,0,2.8,1.4,2.8c1,0,1.2-1,1.2-1.8h1.1
				c0,1.1-0.6,2.7-2.3,2.7c-1.7,0-2.5-1.2-2.5-3.7c0-1.8,0.3-3.8,2.5-3.8c1.9,0,2.3,1.5,2.3,2.4H173.4z"/>
			<path class="st0" d="M176,43h1.1v1.3H176V43z M176,45.4h1.1v7.1H176V45.4z"/>
			<path class="st0" d="M181.2,45.2c2.1,0,2.6,1.7,2.6,3.8c0,2-0.5,3.8-2.6,3.8c-2.1,0-2.6-1.7-2.6-3.8
				C178.6,46.9,179.1,45.2,181.2,45.2z M182.6,48.9c0-1.5-0.2-2.9-1.4-2.9c-1.1,0-1.4,1.3-1.4,2.9c0,1.5,0.2,2.9,1.4,2.9
				C182.3,51.8,182.6,50.5,182.6,48.9z"/>
			<path class="st0" d="M185.1,45.4h1.1v0.8h0c0.3-0.7,1-1,1.7-1c1.9,0,1.9,1.4,1.9,2.3v5.1h-1.1v-4.9c0-0.5,0-1.4-1.1-1.4
				c-0.6,0-1.4,0.4-1.4,1.4v4.9h-1.1V45.4z"/>
			<path class="st0" d="M191.4,47.5c0-1.6,0.7-2.3,2.4-2.3c2.2,0,2.2,1.3,2.2,2.1v4c0,0.3,0,0.6,0.3,0.6c0.1,0,0.2,0,0.3-0.1v0.8
				c-0.1,0-0.4,0.1-0.7,0.1c-0.4,0-1,0-1-0.9h0c-0.4,0.6-1.1,1-1.7,1c-1.3,0-1.9-0.8-1.9-2.1c0-1,0.4-1.7,1.3-2l1.5-0.5
				c0.8-0.3,0.8-0.5,0.8-1.1c0-0.7-0.4-1.1-1.1-1.1c-1.2,0-1.2,1.1-1.2,1.4v0.1H191.4z M194.8,48.6c-0.4,0.4-1.4,0.5-1.9,0.8
				c-0.4,0.2-0.5,0.5-0.5,1.1c0,0.7,0.3,1.2,1,1.2c0.7,0,1.4-0.6,1.4-1.4V48.6z"/>
			<path class="st0" d="M197.8,43h1.1v9.5h-1.1V43z"/>
			<path class="st0" d="M201.6,49.1c0,1.1,0,2.7,1.4,2.7c1.1,0,1.2-1.1,1.2-1.7h1.1c0,0.8-0.5,2.5-2.4,2.5c-1.7,0-2.5-1.2-2.5-3.7
				c0-1.8,0.3-3.8,2.5-3.8c2.2,0,2.4,1.9,2.4,3.4v0.5H201.6z M204.2,48.2v-0.4c0-0.8-0.3-1.7-1.2-1.7c-1.2,0-1.3,1.4-1.3,1.9v0.3
				H204.2z"/>
			<path class="st0" d="M209.9,47.4c0-0.9-0.2-1.4-1.1-1.4c-0.4,0-1.2,0.1-1.2,1.1c0,0.8,0.9,1,1.8,1.3c0.9,0.3,1.7,0.6,1.7,2
				c0,1.5-1,2.2-2.3,2.2c-2.4,0-2.4-1.8-2.4-2.5h1.1c0,0.9,0.2,1.7,1.3,1.7c0.4,0,1.2-0.2,1.2-1.2c0-1-0.9-1.2-1.7-1.5
				c-0.9-0.3-1.8-0.5-1.8-2c0-1.3,1-2,2.3-2c2.1,0,2.2,1.4,2.2,2.3H209.9z"/>
		</g>
	</g>
</g>
</svg>
