<?xml version="1.0" encoding="utf-8"?>
<!-- Generator: Adobe Illustrator 25.2.0, SVG Export Plug-In . SVG Version: 6.00 Build 0)  -->
<svg version="1.1" id="Layer_1" xmlns="http://www.w3.org/2000/svg" xmlns:xlink="http://www.w3.org/1999/xlink" x="0px" y="0px"
	 viewBox="0 0 61.1 60" style="enable-background:new 0 0 61.1 60;" xml:space="preserve">
<style type="text/css">
	.st0{fill:none;}
	.st1{fill:#FFFFFF;}
	.st2{fill:none;stroke:#000000;stroke-width:0;stroke-linecap:round;stroke-linejoin:round;}
</style>
<g>
	<path class="st0" d="M15.3,6.7c-0.2-0.3-0.5-0.5-0.8-0.4c-0.1,0.1-0.2,0.2,0,0.3c0.3,0.4,0.5,0.8,0.8,1.2c0.2,0.2,0.3,0.5,0.5,0.7
		c0.1,0.1,0.2,0.3,0.4,0.3c0.4-0.3,0.1-0.7-0.1-1C15.8,7.4,15.6,7,15.3,6.7z"/>
	<path class="st0" d="M33.3,56c0,0-0.6-0.2-0.5,0.9c0,1.1,0.5,1,0.5,1s0.6,0.1,0.6-1.1C33.9,56.1,33.3,56,33.3,56z"/>
	<path class="st0" d="M59,38.7c-0.2,0.4-0.5,0.9-0.6,1.1c-0.1,0.1,0,0.3,0,0.4c-0.1,0.2-0.2,0.4-0.4,0.6c0.3,0,0.5-0.1,0.7-0.3
		c0.8-2.1,1.4-4.4,1.7-6.8c-0.1,0.1-0.3,0.2-0.5,0.3C60.2,35.6,59.8,37.3,59,38.7z"/>
	<path class="st0" d="M17.9,8.2L17.9,8.2C18,8.2,18.1,8.1,18.2,8C18,8.1,17.9,8.2,17.9,8.2z"/>
	<path class="st0" d="M51.3,46.5c0,0-0.6-0.4-0.9-0.1c0,0-0.3,0.3,0.1,0.5l1.9,1.7c0,0,0.5-0.4,0.1-1C52.5,47.6,51.9,46.8,51.3,46.5
		z"/>
	<polygon class="st0" points="1.5,26.3 1.7,26.2 1.5,26.3 	"/>
	<path class="st0" d="M56.7,40.9c0,0-0.1-0.3,0.4-0.2c0.2,0,0.4,0.1,0.6,0.1c0.6-0.7,0.4-1,0.4-1c-0.2-0.1-0.4-0.2-0.7-0.2l0,0
		c-0.4,0.2-0.6,0.6-0.9,1.1c-0.1,0.1-0.2,0.1-0.2,0.1c0-0.5,0.6-0.9,0.8-1.3c0-0.1,0.1-0.2,0.1-0.2c0-0.2,0.1-0.3,0.2-0.4
		c0.2-0.2,0.2-0.5,0.4-0.7c0.1-0.2,0.3-0.5,0.4-0.7c0.1-0.3,0.2-0.5,0.3-0.8c0.1-0.2,0.3-0.4,0.3-0.7c0.1-0.2,0.1-0.4,0.2-0.5
		c0.1-0.1,0.1-0.4,0.3-0.5c0.1,0,0.3-0.1,0.4-0.1c0.1,0,0.1,0.2,0.1,0.2c0,0.3-0.2,0.5-0.3,0.8c-0.1,0.3-0.2,0.5-0.3,0.7
		c-0.1,0.2-0.2,0.5-0.3,0.7c-0.1,0.2-0.2,0.4-0.4,0.6c-0.2,0.4-0.5,0.7-0.7,1.1c-0.1,0.1-0.1,0.3-0.2,0.5c0,0,0,0,0,0.1
		c0,0,0,0,0,0.1h0.1l0.2,0l0.2,0c0.2-0.3,0.6-0.6,0.8-0.9c0.7-1.2,1.2-2.5,1.1-3.9c0-0.2,0-0.4-0.1-0.6l0,0c0,0,0,0,0,0
		c-0.4,0.2-0.7,0.3-1.2,0.8c-0.8,1.2-2.3,4.5-2.3,4.6c0,0,0,0,0,0c0,0.1-0.1,0.3-0.1,0.4c0,0.1-0.1,0.2-0.1,0.4
		c-0.1,0.2-0.1,0.4-0.1,0.4c-0.3-0.3-1.3-0.2-1.5-0.3c0,0-0.7-0.2-0.7-1c-0.1-0.2,0.1-0.3,0.2-0.1l0.3,0.7c0.1,0.1,0.3,0.1,0.4,0.1
		c0.2,0,0.3,0,0.5,0.1l0.7,0.2c-0.2-0.2-0.3-0.5-0.2-0.8c0.6-1.6,0.6-1.6,0.6-1.6c0.2-0.6,0.4-1.1,0.4-1.6c0-0.5-0.2-1.1-0.1-1.5
		c-0.1,0.1-1.4,1-1.7,1.4c0,0-0.2,0.2-0.1,0C55,36,55,35.9,55,35.8c-0.1,0.1-0.3,0.2-0.5,0.3c-1,3.8-3,7.4-5.7,10.3
		c-3.1,3.3-7.2,5.9-11.6,7.1l-0.1,0.1c-0.2,0.3-0.5,0.7-0.9,1c0,0,0.1,0,0.1,0c1.1,0.4,0.6,1.5,0.6,1.5c-0.1,0.2,0.1,0.2,0.1,0.2
		c0.5,0.1,0.7,0.7,0.7,0.7c0.2,1.1-0.5,1.3-0.5,1.3c-0.1,0.1-1,0.3-1,0.3c-0.6,0.1-0.8,0.1-0.8,0.1c-0.4,0.1-0.2-0.5-0.2-0.5
		c0-0.4-0.2-1.5-0.2-1.5c-0.2-1.4-0.3-1.5-0.3-1.5c-0.3-0.4,0-0.4,0-0.4c0.1,0,0.2-0.1,0.2-0.1c-0.1-0.1-0.2-0.2-0.2-0.3
		c-0.1,0-0.5,0.2-0.6-0.1l-2,0.3c-0.2,0.2-0.8,0.7-1.8,0.8c0,0-0.1,0-0.2,0.1l1.1,0.1c0.9,0.2,0.8,0.8,0.8,0.8c0,0.9-0.6,1-0.6,1
		c0.3,0.2,0.4,0.5,0.4,0.5c0.4,1,0.8,0.9,0.8,0.9c0.4,0.1,0.1,0.3,0.1,0.3c-1,0.5-1.5-0.8-1.5-0.8c-0.3-0.9-0.7-0.5-0.7-0.5l0,1.3
		c0,0.3-0.3,0.3-0.3,0.3l-0.4,0c-0.4,0-0.2-0.4-0.2-0.4c0.1-0.1,0-0.4,0-0.4l0.1-2.7l0-0.1c-0.4,0.1-0.9,0.2-0.8-0.3
		c-0.4,0.2-0.9,0.3-1-0.1c-0.6,0.2-0.6-0.3-0.6-0.4c0,0,0.1,0.3,0.5,0.2c0.2-0.1,1-0.6,1.1-0.6c0,0-0.3,0.3-0.6,0.5
		c-0.2,0.1-0.2,0.3,0.1,0.4c0.3,0.1,1.1-0.5,1.1-0.5h0c-0.2,0.1-0.7,0.6-0.2,0.6c0.3,0,0.8-0.3,0.8-0.3s1.1-0.1,1.7-0.6
		c0.1-0.1,2.5-1.4,2.6-1.4c0.5-0.3,0.8-1,0.6-1.6c-0.1-0.5-0.4-0.9-0.7-1.3c-0.7,0.1-3,0.4-4.4,0.9c-0.2,0.6-2,2.1-3.4,2.5
		c-0.3,0.1-0.6,0.2-0.9,0.2c0,0-0.1,0.3,0,0.4c0.1,0.3,0.4,0.3,0.7,0.2c0,0,0.3-0.2,1.1-0.6c0,0-0.5,0.3-0.7,0.5
		c-0.1,0-0.2,0.1-0.2,0.3c0.1,0.4,1.7-0.4,1.7-0.4c-0.2,0.2-1.7,1.3-1.9,0.4c0,0-0.2,0.1-0.5,0.1c-0.4-0.1-0.6-0.5-0.7-0.8
		c-3.1-0.7-5.9-2-8.5-3.7c-3.4-2.2-6.2-5.3-8.2-8.8c-0.2,0.2-3.1,2.2-6-0.5c4.4,11.1,15.4,18.9,28.1,18.9H31
		c12.6-0.2,23.4-7.9,27.7-18.9C58.1,41.1,57.3,41,56.7,40.9z M55.3,38.7c0-0.2,0-0.5,0-0.7c0-0.2-0.1-0.4-0.1-0.7
		c0-0.3,0-0.5,0.2-0.7c0.1-0.1,0.2-0.2,0.3-0.3c0.1-0.1,0.4-0.2,0.4-0.3c0,0.2,0,0.4-0.1,0.6c0,0.2-0.2,0.4-0.3,0.6
		c-0.2,0.5-0.3,1.1-0.4,1.6c0,0.1-0.1,0.2-0.1,0.3c0,0.1-0.1,0.1-0.1,0.1c0,0-0.1,0-0.1,0c0,0,0,0,0,0l0,0l0,0
		C55.2,39,55.3,38.9,55.3,38.7z M54.1,38.4c0-0.1,0.1-0.2,0.2-0.3c0-0.1,0.1-0.1,0.1-0.2c0-0.1,0.1-0.4,0.2-0.4
		c0.2,0,0.1,0.4,0.1,0.5c0,0.1-0.1,0.3-0.1,0.4c0,0.2,0.1,0.3,0.2,0.5c0.1,0.3,0.4,0.5,0.3,0.9c0,0,0,0,0,0h0c0,0-0.1,0.1-0.1,0.1
		c0,0-0.1,0-0.1,0c0,0,0,0,0,0c-0.1-0.2-0.1-0.3-0.2-0.5c-0.1-0.1-0.1-0.2-0.2-0.3c-0.1-0.1-0.2-0.1-0.3-0.2h0c0,0,0,0,0,0
		c0,0,0,0,0,0C54,38.7,54,38.6,54.1,38.4z M7.2,47.5c0,0-0.4-0.5-0.3-0.6C7,46.6,7.5,46,7.7,45.6c0.2-0.4,0-0.5-0.2-0.7l-0.2-0.2
		C7.2,45,7,45.1,6.9,45.2c-0.2,0.2-0.4,0.7-0.5,0.9c-0.1,0.3-0.2,0.1-0.2,0l-0.4-0.7l0,0l0-0.1c0,0,0.5-0.4,0.6-0.6
		c0-0.3-0.5-1.1-0.6-1.3c-0.5-0.2-1,0.2-1.1,0.2c-0.1-0.5-0.5-0.8-0.4-0.8c0-0.1,0-0.1,0-0.1c0.1,0,0.2,0.1,0.3,0.1
		C4.8,43,5,43,5.2,42.9c0.4,0,2-0.2,2.4-0.3c0.2,0,0.4-0.1,0.6-0.2l0.3-0.2l0.4,0.5c0,0,0.6,0.8,0.7,1.3l0,0
		c0.1,0.5-0.1,0.9-0.5,1.1c-0.1,0.1-0.6,0.1-0.9,0l0,0.4c0,0.4-0.5,1-0.8,1.6C7.4,47.5,7.3,47.6,7.2,47.5z M9.9,50.6l-0.5-0.5
		c-0.2-0.3,0.1-0.3,0.1-0.3c0.4,0,0.6-0.5,0.6-0.5c0.2-0.2,0-0.3,0-0.3C10,48.8,9.9,49,9.9,49c-0.2,0.3-0.6,0.3-0.6,0.3
		c-1.1,0.1-1.5-1-1.5-1C7.6,47.1,9.3,46,9.3,46c1-0.8,1.6-0.1,1.6-0.1c0.6,0.3,0.3,0.9,0.3,1c-0.1,0.2-0.4,0.4-0.4,0.4L10.5,47
		c0.4-0.4,0.2-0.6,0.2-0.7c-0.3-0.2-0.5,0.1-0.5,0.1l-1.4,1.3c-0.5,0.5-0.4,0.7-0.4,0.7c0.2,0.4,0.5,0.4,0.5,0.4
		c0.6-0.1,0.6-0.6,0.6-0.6c0.1-0.4,0.3-0.1,0.3-0.1l0.6,0.7c0.2,0.3,0.3,0,0.3,0l1.2-1.1c-0.1-0.3-0.5-0.4-0.5-0.4
		c-0.4-0.1-0.1-0.3-0.1-0.3l0.2-0.2c0.3-0.3,0.4,0,0.4,0l1.3,1.2c0.3,0.3,0,0.3,0,0.3c-0.2,0.1-0.3,0.4-0.3,0.4
		c-0.3,0.3-0.3-0.3-0.3-0.3c0-0.4-0.4,0.1-0.4,0.1c-1.2,1-2,1.9-2,1.9C10.2,50.8,9.9,50.6,9.9,50.6z M14.4,54.2L14.2,54
		c-0.2-0.1-0.1-0.3-0.1-0.3l0.9-1.9c0.1-0.4-0.2-0.2-0.2-0.2l-2,1.3c-0.4,0.1-0.3-0.4-0.3-0.4l0.5-2c0-0.2-0.1,0-0.1,0l-1,1
		c-0.2,0.3-0.3,0.5-0.3,0.5c-0.1,0.3-0.3,0.1-0.3,0.1L11,51.6c-0.2-0.2,0.1-0.5,0.1-0.5l2.5-2.3c0.2-0.3,0.5,0.1,0.5,0.1
		c0.2,0.2-0.1,1.1-0.1,1.1c-0.1,0.2-0.3,1.1-0.3,1.1c0,0.2,0.2,0.2,0.2,0.2l1.4-0.9c0.4-0.3,0.6-0.2,0.6-0.2
		c0.4,0.2,0.2,0.6,0.2,0.6l-1.3,3.2C14.7,54.4,14.4,54.2,14.4,54.2z M15.9,55.1c0-0.1-0.2-0.2-0.2-0.2c-0.3-0.1-0.1-0.4-0.1-0.4
		l1-3.3c0.1-0.4,0.4-0.1,0.4-0.1c0.5,0.2,0.3,0.6,0.3,0.6l-0.5,1.6c-0.1,0.2,0.1,0.1,0.1,0.1l0.8-0.7c0.4-0.4,0.5-0.6,0.5-0.6
		c0.2-0.4,0.5-0.2,0.5-0.2l0.3,0.2c0.3,0.1,0.1,0.4,0.1,0.4L16.4,55C16.3,55.2,15.9,55.1,15.9,55.1z M18,56.1L17.7,56
		c-0.3-0.1,0.1-0.4,0.1-0.4l1.5-2.9c0.2-0.4,0.5-0.2,0.5-0.2s-0.1-0.1,0.1,0.1c0.2,0.1-0.1,0.5-0.1,0.5L18.4,56
		C18.2,56.3,18,56.1,18,56.1z M24.2,54.8C24,54.7,24,55,24,55l-0.8,2.2c-0.3,0.8-1.3,0.5-1.3,0.5c-0.8-0.2-0.7-1.4-0.7-1.4
		c-0.1-0.9-0.6-1-0.6-1l-0.3,0.6c-0.2,0.3-0.3,0.9-0.3,0.9c-0.1,0.3-0.3,0.1-0.3,0.1l-0.5-0.2c-0.3-0.1-0.1-0.4-0.1-0.4l1.2-2.4
		c0.2-0.3,0.2-0.6,0.2-0.6c-0.1-0.4,0.4-0.2,0.4-0.2l1,0.4c0.4,0.1,0.6,0.5,0.6,0.5c0.2,0.6-0.2,1.1-0.2,1.1
		c-0.3,0.4-0.7,0.5-0.7,0.5c0.2,0.2,0.2,0.8,0.2,0.8c0,0.6,0.2,0.7,0.2,0.7c0.5,0.4,0.5,0,0.5,0l0.9-2.3c0.1-0.4-0.1-0.3-0.1-0.3
		c-0.1-0.1-0.4,0.1-0.4,0.1c-0.4,0,0-0.6,0-0.6c0.3-0.3,0.8,0.1,0.8,0.1c0.6,0.2,0.8,0.2,0.8,0.2c0.4,0,0.3,0.4,0.3,0.4
		c0,0.3-0.3,0.2-0.3,0.2C24.3,54.7,24.2,54.8,24.2,54.8z M24.8,58.3c-0.2,0-0.2-0.3-0.2-0.3l-0.2-1.7c-0.1-0.2-0.1-0.5-0.1-0.5
		c0.1-0.6,0.7-0.5,0.7-0.5c0.5,0,0.2,0.5,0.2,0.5c-0.1,1.2,0.1,0.9,0.1,0.9l1.2-1.7c0.1-0.2,0.5,0,0.5,0c0.4,0.1,0.1,0.3,0.1,0.3
		l-1.8,2.7C25,58.4,24.8,58.3,24.8,58.3z M28.5,58.7c0,0-0.6,0.6-2.1-0.2c0,0-0.4-0.1-0.2-0.4l0.2-0.3c0,0,0.2-0.4,0.5,0
		c0,0,0.1,0.5,0.8,0.5c0,0,0.8-0.1-0.1-1.3c0,0-0.8-1.3,0.3-1.6c0,0,0.6-0.1,1,0.1c0,0,0.2,0.1,0,0.4c0,0-0.1,0.3-0.3,0.1
		c0,0-0.3-0.4-0.5,0c0,0-0.2,0.1,0.6,0.9C28.7,57,29.6,57.8,28.5,58.7z M33.8,58.4c0,0-1.5,0.3-1.7-1.3c-0.1-1.6,1.3-1.5,1.3-1.5
		s1.1,0.1,1.2,1.2C34.6,58.1,33.8,58.4,33.8,58.4z M42.2,56.6c-0.6,0.3-1.1-0.4-1.1-0.4c-0.5-0.7-0.6-0.7-0.6-0.7
		c-0.5-0.3-0.5,0.1-0.5,0.1l0,1.7c0,0.3-0.3,0.4-0.3,0.4c-0.3,0.2-0.5-0.2-0.5-0.2L38,55.6c-0.5-0.9-0.8-1-0.8-1
		c-0.5-0.4-0.1-0.4-0.1-0.4c0.2,0,0.6-0.2,0.6-0.2c0.3-0.2,0.2,0.3,0.2,0.3c0,0.2,0.7,1.3,0.7,1.3c0.2,0.2,0.7,0.9,0.7,0.9
		c0.1-0.6-0.1-2.7-0.1-2.7c-0.1-0.4,0.1-0.4,0.1-0.4l0.8-0.2c1.2-0.3,1.2,0.6,1.2,0.6c0.2,0.6-0.4,1.2-0.4,1.2
		c0.3,0,0.8,0.6,0.8,0.6c0.4,0.5,0.7,0.6,0.7,0.6C42.5,56.4,42.2,56.6,42.2,56.6z M44.2,55.6l-1.1,0.6c0,0-0.4,0.2-0.5-0.1
		c0,0-0.2-0.4,0.2-0.5l0.3-0.1c0,0,0.2,0,0-0.4l-0.3-0.6c0,0,0-0.2-0.3,0c0,0-0.5,0.4-0.6,0.2c0,0-0.4-0.3,0-0.5l0.4-0.3
		c0,0,0.2,0,0-0.3c0,0-0.4-0.6-0.3-0.6c0,0-0.1-0.2-0.4,0l-0.2,0.3c0,0-0.1,0.3-0.3,0L41,53c0,0-0.1-0.2,0.3-0.3
		c0,0,1.2-0.6,1.4-0.7c0,0,0.2-0.3,0.4,0c0,0,0.3,0.3,0,0.4c0,0-0.6-0.1-0.4,0.2l1.3,2.5C43.9,55.1,44.4,55.4,44.2,55.6z M45.6,54.8
		c-1,0-1.1-0.4-1.1-0.4c0-0.7,0.6-0.4,0.6-0.4c0.6,0.3,0.9-0.2,0.9-0.2c0.4-0.9-0.7-0.9-0.7-0.9c-1.5,0-1.5-0.7-1.5-0.7
		s-0.4-1,0.5-1.3c1.1-0.5,1.4,0.2,1.4,0.2c0.3,0.3,0,0.6,0,0.6c-0.3,0.3-0.4-0.1-0.4-0.1c-0.2-0.5-0.8,0-0.8,0
		c-0.4,0.7,0.6,0.7,0.6,0.7c1.7,0.1,1.7,1,1.7,1C47.1,54.6,45.6,54.8,45.6,54.8z M48.9,52.6l-0.3,0.2c0,0-0.3,0.3-0.5-0.1
		c0,0-0.1-0.5-0.3-0.7l-1.3-1.8c0,0-0.1-0.2-0.3,0c0,0-0.2,0.2-0.2,0.3c0,0-0.1,0.3-0.3,0.1l-0.1-0.3c0,0-0.1-0.2,0.2-0.4l1.2-1
		c0,0,0.2-0.3,0.4,0c0,0,0.3,0.2,0,0.4c0,0-0.4,0.1-0.5,0.2c0,0-0.2,0.1,0,0.2l1.4,1.9c0,0,0.2,0.2,0.4,0.3
		C49.2,52.4,49,52.5,48.9,52.6z M50.6,51.1l-0.2,0.2c-0.2,0.2-0.3,0-0.3,0l-2-0.9c-0.6-0.2-0.2-0.5-0.2-0.5c0.1-0.3,0.5-0.1,0.5-0.1
		l1.5,0.8c0.2,0,0.1-0.1,0.1-0.1l-1-2.1c-0.2-0.5-0.4-0.4-0.4-0.4c-0.4-0.1,0-0.5,0-0.5l0.4-0.4c0.3-0.3,0.3,0.1,0.3,0.1
		c0,0.5,0.2,0.7,0.2,0.7l1.1,2.7C50.8,51,50.6,51.1,50.6,51.1z M53.2,48.4l-0.9,1.1c-0.4,0.5-0.5-0.2-0.5-0.2
		c-0.1-0.5-0.2-0.5-0.2-0.5c-1.4-1.7-2-1.9-2-1.9c-0.5-0.2-0.1-0.5-0.1-0.5c0.1,0,0.3-0.3,0.3-0.3c0.5-0.6,1.1-0.5,1.1-0.5
		c0.9,0,2,1.3,2,1.3C53.7,47.7,53.2,48.4,53.2,48.4z M54.5,46.8L54.3,47c-0.2,0.2-0.4-0.1-0.4-0.1L51.3,45c-0.5-0.1-0.2-0.4-0.2-0.4
		c0.3-0.5,0.7,0.1,0.7,0.1c0.3,0.2,1.8,1.3,1.8,1.3c0.6,0.4,0.8,0.4,0.8,0.4C54.8,46.5,54.5,46.8,54.5,46.8z M57.3,41.9l-0.1,0.3
		c-0.1,0.4-0.4,0.1-0.4,0.1c0-0.4-2.4-0.8-2.4-0.8l1.2,1.3c0.2,0.3-0.2,0.3-0.2,0.3L54,42.6c-0.3,0-0.1,0.1-0.1,0.1l1.7,1.8
		c0.3,0.3,0,0.6,0,0.6c-0.1,0.3-0.5,0.1-0.5,0.1l-3-1.1c-0.5-0.2-0.3-0.5-0.3-0.5c0.2-0.5,0.6-0.1,0.6-0.1c1.8,0.7,2.3,0.9,2.3,0.9
		c0-0.2-1.7-1.7-1.7-1.7c-0.5-0.4-0.2-0.7-0.2-0.7c0.2-0.4,0.5-0.2,0.5-0.2l0.8,0.2c0.4,0.1,0.1-0.2,0.1-0.2l-0.6-0.6
		c-0.4-0.3-0.2-0.6-0.2-0.6c0.1-0.3,0.8,0,0.8,0l2.8,0.7C57.6,41.5,57.3,41.9,57.3,41.9z"/>
	<path class="st0" d="M9.9,34.2c-0.3,0-0.6,0.2-0.9,0.3c-0.2,0.1-0.3,0.1-0.4,0c-0.2,0-0.3,0.1-0.4,0.2c-0.1,0.2-0.1,0.6-0.9,0.5
		c-0.1,0-0.7,0.5-0.9,0.6c-0.3,0.2-0.7,0.4-0.5,0.8c0,0.1,0.1,0.2,0.1,0.4c0.1,0.4-0.2,0.5-0.3,0.6c-0.2,0.3-0.4,0.7,0,1.1
		c0.2,0.2-0.1,0.7-0.1,0.8c-0.1,0.2,0.1,0.4,0.2,0.6c0.1,0.2,0,0.3,0,0.4c0,0.3,0.2,0.8,0.5,1c0.3,0,0.2-0.4,0.1-0.6
		c-0.3-0.2-0.2-0.8-0.2-1c-0.4-0.6,0.1-0.8,0.1-0.9c-0.1,0.2-0.1,0.4,0,0.6c0.1,0,0.3,0,0.3,0c0.1-0.5,2.1-3.8,2.6-4.7
		c0.1-0.2,0.2,0,0.2,0c-0.6,0.8-1,1.7-1.5,2.6c-0.4,0.7-0.7,1.4-1,2.2c-0.2,0.6-0.4,1.2-0.4,1.8c0.1,0,0.2,0,0.3,0
		c0-0.2,0.1-0.5,0.3-0.6c0.1,0,0.3-0.2,0.3-0.2c0-0.1-0.2-0.6,0.3-0.6c0.2,0,0.7-0.2,0.6-0.3c0.1-0.2,0.1-0.4,0.3-0.5
		c0.2-0.1,0.5-0.3,0.6-0.6c0.1-0.2,0.1-0.3,0.1-0.5c0-0.1,0.1-0.3,0.2-0.3c0.3,0,0.7-0.2,0.7-0.4c0-0.1-0.1-0.5-0.1-0.5
		c0-0.4-0.2-0.6-0.1-0.8c0.1-0.2,0.2-0.3,0.3-0.4c0.1-0.2,0.2-0.5-0.1-0.6c-0.2-0.1-0.2-0.3-0.2-0.5C10,34.4,10.1,34.2,9.9,34.2z
		 M8.7,35.2c-0.1,0.1-0.2,0.2-0.3,0.4c-0.3,0.2-0.6,0.5-0.8,0.8c-0.1,0.2-0.1,0.5-0.3,0.7c-0.2,0.2-0.4,0.3-0.6,0.6
		c-0.1,0.2-0.2,0.5-0.2,0.7c0,0.2,0,0.6-0.2,0.7C6,39.1,6,38.9,6,38.8c0-0.1,0-0.2-0.1-0.3c-0.1-0.2-0.2-0.4-0.1-0.7
		c0.1-0.3,0.3-0.4,0.4-0.7c0.1-0.2,0-0.5,0.1-0.7C6.5,36.1,6.8,36,7,35.9c0.2-0.2,0.4-0.3,0.6-0.4c0.3-0.1,0.4-0.2,0.5-0.4
		c0.1-0.1,0.1-0.2,0.2-0.2c0.1-0.1,0.2-0.1,0.3-0.1l0,0C8.9,34.7,8.8,35.1,8.7,35.2z M9.5,36.8c0,0.2,0.1,0.4,0,0.6
		c0,0.2-0.2,0.3-0.3,0.5c-0.2,0.2-0.3,0.3-0.4,0.6c-0.1,0.3-0.2,0.5-0.4,0.6c-0.1,0.1-0.2,0.1-0.3,0.2c-0.1,0.1-0.1,0.2-0.2,0.3
		c-0.1,0.1-0.4,0.1-0.5,0.3c0,0,0,0,0,0h0c0,0,0,0,0,0c0,0,0,0,0,0c0-0.1,0-0.2,0.1-0.3c0,0,0-0.1,0-0.1c0.1-0.1,0.2-0.2,0.2-0.3
		c0-0.1,0.1-0.2,0.2-0.3c0.2-0.1,0.4-0.3,0.5-0.5c0.1-0.1,0-0.2,0-0.4c0-0.1,0.1-0.2,0.2-0.3c0.1-0.2,0.3-0.4,0.3-0.6
		c0.1-0.2,0.1-0.4,0.2-0.7C9,36.3,9.2,36.2,9.3,36c0.1-0.1,0.3-0.5,0.4-0.4c0,0.3-0.1,0.4-0.2,0.6C9.4,36.4,9.5,36.6,9.5,36.8z"/>
	<path class="st0" d="M6.8,13.5c-0.1,0.1-0.2,0.2-0.3,0.3c-0.1,0.1,0,0.2,0.1,0.3c0.2,0.1,0.3,0.2,0.5,0.3c0.1,0.1,0.3,0.3,0.5,0.3
		c0.2-0.2,0.4-0.6,0.1-0.8C7.5,13.7,7.1,13.4,6.8,13.5z"/>
	<path class="st0" d="M40.1,53.6c0,0-0.4-0.1-0.3,0.3l0.1,1c0,0-0.1,0.3,0.2,0.1c0,0,0.5-0.2,0.4-0.7C40.6,54.2,40.5,53.6,40.1,53.6
		z"/>
	<path class="st0" d="M23.3,29.9c-0.1,0.1-0.4,0.3-0.4,0.5c-0.1,0.4-0.6,0.7-0.8,1c-0.2,0.1-0.5,0.5-0.2,0.5c0.2,0,0.5-0.1,0.7-0.1
		c1.4-0.1,2.3,0,3.5,0c0,0,0.1,0.8,1,0.5c0.1,0,0.2,0.1,0.3,0.2c0.5,0.5,1,1.1,1.6,1.6c0.4,0.4,0.9,0.9,1.3,1.3c0,0,0.1,0,0.2,0
		c0.2,0,3.7,0.1,5.3,0.1c0.7,0,1.4,0,2.2,0c0,0,0.7,0,0.7-0.1c0.1-0.1,0.3-0.1,0-0.9c-0.2-0.5-2-2.7-2.6-3.2
		c-1.6-1.2-3.7-1.4-5.7-1.5c-0.5,0-1.4,0-2,0c-1,0-1.2,0.6-1.2,0.6c0,0,0-0.6,0.6-0.7c0.5-0.1,1.2-0.1,1.7-0.1
		c1.3,0,2.6,0.1,3.8,0.3c0-0.2-0.6-1.5-1.2-1.5c-2.4-0.2-4.7-0.5-7.1-0.7c0.5,0.6,1,1.2,1.4,1.9c0.2,0.3,0.6,0.8,0.5,1.2
		c0,0.2-0.2,0.3-0.2,0.5c0,0.3,0.3,0.3,0.4,0.5l-0.2,0.1c-0.1-0.3-0.3-0.3-0.3-0.6c0-0.2,0.2-0.5,0.2-0.5c0-0.4-0.3-0.8-0.5-1.1
		c-0.2-0.4-0.9-1-0.9-1c-0.4,0-0.8,0-1.2,0c0.3,0.2,0.6,0.5,0.8,0.7c0.4,0.4,1.1,1.3,1.1,1.2c-0.3-0.4-1.4-1.3-1.5-1.3
		c0,0-0.7,0-1.1,0.3c0.2,0.2,0.4,0.2,0.6,0.3c0.5,0.1,2,1.2,2,1.2c-0.4-0.3-1.9-1-2.2-1.1C23.7,30.1,23.3,29.9,23.3,29.9z
		 M27.5,30.4c0.6-0.3,1.2,0.2,1.6,0.6c0.5,0.6,1.1,1.3,1.6,2c0.1,0.2,0.2,0.3,0.3,0.5c0,0.1,0.5,0,0.7,0c0.7,0,1.4,0,2.2,0
		c1.2,0,2.4,0,3.7,0l-0.1,0.2c-1.1,0.2-2.5,0.1-3.7,0.2c-0.7,0-1.4,0-2.2,0c-0.2,0-0.5-0.1-0.7-0.1c-0.1,0-0.1,0-0.1-0.1
		c-0.1-0.2-0.2-0.3-0.3-0.5c-0.5-0.7-1-1.4-1.5-2c-0.3-0.3-0.7-0.8-1.2-0.7c-0.2,0-0.6,0.3-0.6,0.3C27.3,30.7,27.3,30.5,27.5,30.4z"
		/>
	<path class="st0" d="M28.1,1.5l0,0.2c0.1,0.5,0.1,1.1,0.2,1.6c0,0.3,0.1,0.6,0.1,0.9c0,0.2,0.1,0.5,0.3,0.4C29,4.3,29,3.8,29,3.4
		C29,3,29,1.2,28.1,1.5z"/>
	<path class="st0" d="M18.1,5c0,0,0.1,0.7,0.1,1l0.1,0.3c0.1,0,0.1,0,0.2,0c0.1,0,0.4-0.2,0.5-0.2c0.1-0.1,0-0.2-0.1-0.3
		C18.8,5.7,18.3,5.1,18.1,5z"/>
	<path class="st0" d="M5.1,35.5c-0.2,0.3,0.4,1.4,0.6,1.7l0-0.1c-0.5-1.4,0.4-1.2,0.4-1.2c-0.1-0.1-0.4-0.2-0.6-0.3
		C5.4,35.6,5.2,35.5,5.1,35.5z"/>
	<path class="st0" d="M3.3,39.3c0,0.4,0,0.7,0.2,1c0.1,0.2,0.2,0.3,0.4,0.4c0,0,1,0.2,1,0.8c0.2,0,0.4,0.1,0.5,0.1
		C5.2,41.5,5,41.1,5,40.7c0-0.3,0.1-0.6,0.1-0.9c0-0.3-0.1-0.3-0.1-0.4c-0.2-0.1-0.5-0.3-0.7-0.4c-0.2-0.2-0.2-0.2-0.4-0.4l0,0v0
		C3.8,38.5,3.3,38.7,3.3,39.3z"/>
	<path class="st0" d="M21.9,2.7c-0.1,0.1-0.1,0.2-0.1,0.3C22,3.5,22.2,4,22.3,4.4c0.1,0.3,0.2,0.6,0.3,0.9c0.1,0.2,0.1,0.5,0.3,0.4
		c0.4-0.3,0.2-0.8,0.1-1.2C23,4,22.7,2.4,21.9,2.7z"/>
	<path class="st0" d="M21.7,53.8l-0.3-0.2c0,0-0.2-0.2-0.2,0.1l-0.5,1c0,0-0.2,0.3,0.2,0.3c0,0,0.6,0.1,0.7-0.2
		C21.6,54.8,22,54.1,21.7,53.8z"/>
	<polygon class="st0" points="28.1,1.5 28.1,1.5 28.1,1.5 	"/>
	<path class="st0" d="M9,43.9c0-0.2-0.2-0.5-0.3-0.6c-0.1-0.1-0.8,1-1.1,1.2c0.2,0.2,0.6,0.4,0.8,0.3C8.6,44.6,8.9,44.2,9,43.9z"/>
	<path class="st0" d="M4.9,32.3c-0.1,0.1-0.2,0.1-0.4,0.1C4.6,32.4,4.8,32.4,4.9,32.3z"/>
	<path class="st0" d="M52.7,20.4c-0.2-0.1-0.9-0.4-1.2,0c-0.3,0.4-0.1,0.8,0.3,0.8c0.2,0,0.2-0.2,0.4-0.3c0.2-0.1,0.3-0.1,0.4,0.2
		c0,0-0.4-0.3-0.6,0.2c-0.1,0.1-0.2,0.1-0.3,0.1c-0.1,0.3,0.2,0.3,0.2,0.2c0.7-0.2,0.8,0.2,0.8,0.2c-0.1-0.2-0.4-0.1-0.5-0.1
		c-0.2,0-0.3,0.1-0.5,0.1c0,0-0.6,1-0.8,1.5c-0.3,1.2,0.9,1.3,1.3,1.3c-0.1-0.1-0.3,0-0.4-0.4L51.8,24l-0.2,0.2c0,0-0.3-0.2-0.1-0.4
		c1.1-0.6,2.8,1.7,2.9,1.9c-0.2-1-1.4-2.1-2-2.4c1.1,0.4,1.9,1.3,2.1,2.3l0.2,0c-0.3-1.4-1.1-4.2-1.5-4.8
		C53.1,20.6,52.9,20.5,52.7,20.4z"/>
	<path class="st0" d="M54.1,36.4c0.2-0.8,0.3-1.3,0.5-2.1c-0.1,0-0.1,0-0.3,0.1c-0.1,1.4-0.5,2.1-0.8,3.5
		C53.4,38.1,53.8,37.8,54.1,36.4z"/>
	<path class="st0" d="M54.1,31.4c0.2-1.4,0.1-2.6,0-3.4c0-0.8-0.2-1.9-0.3-2.7c-0.3-0.3-0.5-0.6-0.8-0.8c-0.1-0.1-0.3-0.2-0.5-0.4
		c0.1,0.5,0.6,5.2,0.6,7C53.1,31.6,53.9,31.4,54.1,31.4z"/>
	<path class="st0" d="M53.3,34.1c-0.1,0-0.6,2.8-1,4.1c-0.2,0.6-0.7,2.1-0.7,2.3c0,0.4,0.4,0.2,0.8,0c0.5-1,1.4-4.9,1.5-6.3
		C53.7,34.2,53.4,34.1,53.3,34.1z"/>
	<path class="st0" d="M29,49.2c-0.1,0.2-0.1,0.4-0.2,0.5c-0.1,0.1-0.2,0.5-0.2,0.6c0,0.2,0,0.3-0.2,0.4c-0.1,0.1-1.2,1.4-0.9,1.8
		c0.1,0.2,0.3,0.1,0.4,0.1l0.1-0.1v0l-0.1,0.1c0.1,0,0.2-0.1,0.2-0.1c0.7-0.5,1.3-1.2,1.4-1.3c0,0-1,0.4-1.2,0.7
		c0,0-0.3,0.3-0.4,0.1c-0.1-0.2,0.4-0.5,1-0.8c1.9-0.8,4-1.3,5.4-1.2c-0.1-0.1-0.1-0.2-0.2-0.4c-0.3-0.7-0.5-1.4-0.6-2.2
		c-0.1-0.4-0.3-1.5-0.3-1.7c0-0.3,1-1.5,0.8-1.9c-0.1-0.1-1-1-1.2-1.2c-0.2,1,0,2.3,0,2.3c-0.3-0.5-0.2-1.8-0.3-2.6
		c0-0.1,0-0.2,0-0.3c-0.2,2-1.1,2.5-1.1,2.5l0.1-0.1c0.1-0.1,0.2-0.2,0.2-0.4c0.3-0.6,0.4-1.2,0.5-1.9c0.1-0.9-0.2-1.9-0.8-2.5
		c0,0,0.6,1.8-0.2,2.9c-0.7,1-2.2,0.7-2.2,0.7c1-0.1,2.1-0.8,2.2-1.8c0.2-1.2-0.4-2.4-1.1-3.3l0,0c-0.1,0-0.3-0.2-0.4-0.2
		C29.7,38,29.4,38,29.3,38c-0.4,0-0.7-0.2-1.1-0.2c-1.4,0-2.3,0.4-4.1-0.3c0,0,2.3,0.3,2.8,0.1c0.8-0.4,2.4,0.2,2.6,0.2
		c-0.7-0.5-2.7-0.9-2.7-1.4c0-0.5,0.6-0.2,0.6-0.2l0.8,0.5L27.9,36c-0.1-0.2,0-0.2,0.1-0.1c1.2,1.7,2.6,2.1,2.7,2.1l0-0.2
		c-0.6-0.4-1.6-1.7-2-2.2c-0.3-0.3-1.4-1.6-1.4-1.6c0,0,0.9,0.7,1.5,1.4c0.4,0.5,1,1,1.4,1.5c0.4,0.5,1,0.8,1.7,1
		c0.7,0.2,5.4,0.5,7,0.5c0.5,0,1,0,1.5,0c1.4,0.2,2.4-1.3,2.6-1.5c0.6-0.7,0.7-1.7,0.2-2.4c-0.3-0.3-0.6-0.6-0.9-0.8
		c-0.6-0.5-1.3-0.9-1.9-1.1c-0.1-0.1-1-0.6-1.3-0.7c-0.4-0.2-0.8-0.3-1.2-0.3c-0.1,0-0.9-0.4-1.6,0c0.2,0.1,0.3,0.2,0.4,0.4
		c0.1,0.1,0.3,0.3,0.4,0.4h0c0,0,1,0.2,1.8,1.7V34c-0.4-0.5-0.8-1.1-1.4-1.4c0.3,0.3,0.6,0.6,0.8,1c0.3,0.4,0.6,0.7,0.7,1.1
		c0.1,0.2,0.2,0.7,0.1,0.9c-0.2,0.3-3.9,0.3-4.3,0.3c-3.6-0.1-2.8-0.2-4.6-0.2c-0.1,0-2.9-3-3.1-3.1c0,0-1,0.2-1.1-0.5
		c0,0-1.6,0.3-2.4,1c-0.5,0.4-2.4,1.4-0.4,4.7c0.5,0.9,1.7,2.7,2.8,3.9c0,0-1.8-1.8-2.5-2.8c-0.6-1-1.2-2-1.4-3.1
		c-0.5-2.5,2.6-3.6,2.9-3.7c0,0-1.5,0-2.2,0c0,0-2.5,1.2-2.5,3.6c0,0.7,0.2,1.4,0.3,2.1c0.3,1.5,0.6,3.1,0.5,4.6
		c-0.1,0.7,0,2.9,0,3.2c0,0.1,0,0.4,0.2,0.4h0c0,0,0.6,0.1,0.9,0.2c0.1,0.1,0.5,0.2,0.5,0.4c0,0.6,0.4,0.6,0.5,0.6
		c0.4-0.1,0.7-0.1,1.1-0.1c0.5,0,0.9,0.1,1.3,0.2c0.7,0.2,1.2,0.1,1.4,0.1l0.9,0c0,0.1-0.1,0.1-0.1,0.2c0,0.1,0.1,0.2,0.2,0.2
		c0.3-0.1,0.8-0.9,0.9-1.1c0.1-0.1,0.3-0.3,0.4-0.1c-0.1,0.3,0.2,0.7,0.3,1c0.1,0.1,0,0.4-0.3,0.7C29.3,48.6,29.1,48.9,29,49.2z
		 M33,45.3c0,0.6-0.2,1.5-1.4,1.5C31.7,46.7,32.8,46.2,33,45.3z M37.9,32.2L37.9,32.2c1,0.3,2.4,1.8,2.3,1.9l-0.1,0
		C40.1,34.1,39.4,33.1,37.9,32.2z M30.5,43.5c0.7-0.4,1-0.8,1.1-1.2l0.2-0.1c0,0.2-0.1,1.7-1.1,2.7c-0.2,0.2-0.2,0-0.2,0
		c1-1.2,1.1-2,1.1-2.1C31.3,43.5,30.5,43.5,30.5,43.5z M21.2,37.1c0,0,1.3,2.2,2.2,3c0.8,0.8,1.9,1.5,2.9,2c0.9,0.4,2,0.6,2.9,0.3
		L29,42.5c-0.9,0.3-2,0.1-2.9-0.3c-1.1-0.5-2.1-1.2-3-2.1C22.3,39.3,21.6,38.2,21.2,37.1z M22.7,45.9L22.7,45.9L22.7,45.9
		c-0.2-0.5-0.2-1.1-0.3-1.7c-0.1-0.5-0.2-0.9-0.3-1.4c-0.1-0.4-0.2-0.7-0.5-1c0.1,0,0.2-0.1,0.3-0.2l0,0c0.4,0.7,0.6,1.4,0.7,2.1
		c0.1,0.4,0.1,0.8,0.2,1.2c0,0.2,0,0.4,0,0.6C22.7,45.6,22.8,45.9,22.7,45.9z M26.6,47l-0.2-0.3c0-0.6-0.5-1.1-0.9-1.6
		c-0.4-0.5-0.9-1-1.2-1.5c-0.7-1-1.4-2.3-1.7-3.1c0,0,1.6,2.8,3.2,4.6C26.8,46.2,26.6,47,26.6,47z M28.6,45.3c-1.4-0.3-2.8-1-3.8-2
		c0,0,2.1,1.5,5,1.7c0.2,0,0.3-0.1,0.5,0.1C30.2,45.1,29.9,45.6,28.6,45.3z"/>
	<path class="st0" d="M46.5,28c0,0.4,0,0.7,0.1,1.1c0.1,0.8,0.2,1.7,0.3,2.5c0.1,0.8,0.1,1.7,0.2,2.5c0,0.4,0.2,2.5-0.1,2.9
		c0,0.1-0.1,0.1-0.2,0.2c-0.2,0.1-0.3,0.3-0.5,0.5c-0.1,0.2-1.7,2.4-1.7,2.6c0,0.4,0.2,0.4,0.4,0.3c0.2-0.1,0.7-0.6,0.9-1
		c0.1-0.2,0.2-0.6,0.4-0.7l0.2-0.1c0.6-0.4,1-0.6,1.5-1c0.2-0.2,0.3-0.3,0.5-0.5c0.5-0.9,0.8-1.9,1-2.8c0.2-1.1,0.4-2.3,0.4-3.5
		c0-1,0-1.9-0.1-2.9c-0.3-2.1-0.8-4.2-1.8-6.1c-0.7,0.3-2.5,0.5-3.9,0.3c0.2,0.6,0.4,1.2,0.8,1.8c0.4,0.8,1.6,2.1,2,2.5
		c0,0-0.4-0.3-0.6-0.5C46.3,26.5,46.5,27.6,46.5,28z"/>
	<path class="st0" d="M37.7,53c2.7-0.8,4.9-1.9,7.1-3.5c-0.6-0.6,0.1-2.2,0.1-2.2c-0.3-0.6-0.7-1-1.3-1.3c-0.3-0.1-1.7-0.5-1.7-0.9
		c0-0.1,0-0.3,0-0.4c-0.4-0.3-1-0.5-1.5-0.7c-0.4-0.2-0.5-0.8-0.5-1.2c0-0.4,0.1-0.8,0.1-1.1c0-0.5-0.2-2.1-0.3-2.7
		c-0.8,0-1.7,0-2.5-0.1c-0.9-0.1-1.7-0.2-2.6-0.2c-0.8-0.1-1.6-0.2-2.5-0.3c-0.3,0-0.6-0.1-0.9-0.2c-0.2,0.1-0.4,0.2-0.6,0.2
		c0.2,0.3,0.4,0.6,0.5,0.9h0c0,0,1.3,1.2,1.6,3.1c0.4,0.3,0.7,0.7,1,1.1c0.9,0.8,0.7,1,0.7,1c0.5,0.9,2.2,1,2.5,1.1
		c0.5,0.2,1,0.6,1.1,1.1c0.1,0.5-0.1,1-0.3,1.5c-0.1,0.4-0.4,2-0.4,2.4c0,0.2,0.8,1.7,0.2,2.5C37.6,52.9,37.6,53,37.7,53z"/>
	<path class="st0" d="M55,31.3c0.1-1.7,0-3.4-0.2-5.1c-0.2-0.2-0.5,0-0.5,0c0,0,0.3,4,0.2,5.1C54.6,31.3,54.8,31.3,55,31.3z"/>
	<path class="st0" d="M43.2,21.2c0.1,0.3,0.3,0.6,0.3,0.7c0.2,0.2,0.5,0.2,0.8,0.3c0.5,0.1,2.7,0,3.9-0.5c0.2-0.1,0.1,0.2,0,0.2
		c-0.1,0-0.2,0.1-0.2,0.1c0.9,1.8,1.4,3.8,1.7,5.7c0.3,1.8,0.3,3.6,0.1,5.3c-0.2,1.4-0.5,3.2-1.1,4.4c-0.2,0.4-0.1,0.1-0.5,0.4
		c-0.5,0.5-1.8,1.2-1.8,1.3c-0.2,0.4-0.3,0.7-0.8,1.1c1.2-0.8,2.5-1.1,2.9-1.1c0,0-0.4,0.1-0.4,0.2c0,0-1.4,0.2-2,0.7
		c-0.4,0.3-0.6,0.5-0.8,0.4c0.1,0.5,1-0.1,1.4-0.4c0.3-0.2,0.8-0.3,1.2-0.1c0.1,0.1,0.2,0.2,0.3,0.2c0.2,0.1,0.7-0.2,0.8-0.2
		c0-0.1,0-0.2,0-0.4c0-0.1,0.2-0.3,0.3-0.3c0.1-0.2,0.3-0.4,0.3-0.6l0.2-0.1c0,0.3-0.1,0.5-0.3,0.7c-0.1,0.1-0.2,0.2-0.2,0.3
		c0,0.3-0.1,0.6-0.2,0.9c-0.5,1.6-1.3,3.2-2,4.7c-0.7,1.3-1.6,2.4-1.8,3.8c0,0.3-0.2,0.1-0.2,0.1c0.1-0.8,0.4-1.7,0.8-2.5
		c0.3-0.6,0.6-1.1,0.9-1.6c0.4-0.7,0.7-1.5,1.1-2.3c0.4-0.8,1.1-2.6,1.2-2.7c-0.2,0.1-0.4,0.2-0.6,0.2c0,0,0,0.3-0.7,1.6
		c-0.3,0.5-0.5,1.1-0.8,1.7c-0.5,1.1-1.2,2.2-1.6,3.3c-0.2,0.4-0.9,2.2-0.2,2.5c0.6-0.4,1.1-0.9,1.7-1.3c2.4-2.1,4.3-4.5,5.7-7.2
		c-0.4,0.1-1,0.3-1-0.2c0-0.2,0.1-0.4,0.1-0.5c0.2-0.6,0.3-1.2,0.5-1.8c0.3-1.2,0.6-2.4,0.7-3.7c0,0-0.3-0.2-1.3,0.9
		c-0.3,0.3-1.3,0.9-1.2,0.6c0.4-1.3,0.5-1.8,0.5-2.3c0,0,0.4,0.5,0.1,1.4c0,0.1-0.1,0.2,0,0.3c0.1,0,1.2-1.1,1.5-1.5
		c0.1-0.1,0.3-0.2,0.4-0.2c0.1,0,0.5,0,0.7,0.1c0-0.1-0.1-0.2-0.1-0.3c0,0,0.4,0.3,0.6,0.2c0.1,0-0.2,0.2-0.3,0.2
		c0.1,0.1,0.6,0,0.9-0.1c0-0.2,0.1-0.4,0.1-0.7c-0.3,0-0.8-0.4-0.6-0.6l0.2,0c0.1,0.3,0.5,0.4,0.5,0.5c0-0.2,0-0.3,0.1-0.5
		c-0.1-0.1-0.2-0.4-0.2-0.4s0.1,0.1,0.3,0.2c0-0.1,0-0.3,0-0.4c-0.2-0.1-0.4,0.2-0.8,0c0.1,0,0.5-0.3,0.8-0.1c0-0.1,0-0.1,0-0.2
		c-0.4-0.2-0.7-0.2-1-0.1c-0.2,0-0.4,0.1-0.6,0.1c-0.3,0-0.4-0.2-0.5-0.5c0,0-2,1.7-2.1,1.8c-0.1,0-0.1,0-0.1-0.1c0-0.4,0-0.9,0-1.3
		c0-2.3-0.1-4.5-0.7-6.7c-0.3-1-1-2.9-1-2.9c0.5,0.8,0.9,1.7,1.1,2.6c0.6,2.2,0.8,4.5,0.8,6.7c0,0.4,0,1.3,0.1,1.5l2-1.7
		c0-1.8-0.4-6.2-0.4-6.3c0,0-1-0.1-1.3-0.4c-0.3-0.3-0.3-0.7-0.2-1c0.1-0.6,0.5-1.2,0.8-1.7l0,0c-0.1-0.1-0.1-0.2-0.1-0.3l0,0
		l-0.1,0c-0.5-0.3-0.2-0.9-0.1-1c0.7-0.6,1.6,0.1,1.7,0.2c-1.4-3.1-3.5-5.7-5.3-7.6c-0.1-0.1-0.6-0.5-1.1-0.4l0,0c0,0,0,0,0,0
		c0,0,0,0,0,0c0,0,0,0,0,0c-0.5,0.2-1.4,1-0.3,4.3h0c0.2,0.2,1.2,1.9,1,2.2c-0.2,0.6-1.4,1.6-4.3,1.3c0,0.1,0.1,0.4,0.2,0.7
		c0,0,0.1,0,0.1,0c1.3,0.4,3.2,0.4,4.3-0.6c0.1-0.1,0.1,0,0.1,0C47,21.7,44.7,21.6,43.2,21.2z M53.9,33.1l0.1,0
		c0,0.1,0.4,0.4,0.4,0.4C54.1,33.5,53.7,33.3,53.9,33.1z"/>
	<path class="st0" d="M57.3,36.9c0.3-0.5,0.4-0.7,0.6-1c0.1-0.3,0.2-0.8,0.1-1.1c-0.1,0-1,0.3-1.1,1.7c-0.1,0.6-0.2,1.2-0.4,1.7
		c-0.1,0.2-0.1,0.3-0.2,0.5l0,0.1c0,0,0,0,0,0c-0.1,0.1-0.7,1.2-0.3,1.7c0-0.1-0.1-0.9,0.6-1.8l0,0c0-0.1,0-0.1,0-0.1c0,0,0,0,0,0
		l0,0l0,0c0.6-3.1,1.1-3.3,1.1-3.3c-0.1,0.2-0.5,1-0.4,1.5C57.2,36.8,57.3,36.8,57.3,36.9z"/>
	<path class="st0" d="M44.5,40c0,0-0.2,0-0.3,0.1c-0.8,1.1,1.5,1.9,2,1.6c0.9-0.5,1.5-1.2,1.5-1.2c0.1-0.1,0.3-0.3,0.3-0.3
		c0,0-0.4-0.4-1.1,0c0.1,0-0.4,0.3-0.7,0.5c-0.5,0.3-1.2,0.1-1.3,0.1c-0.2,0.1-0.5-0.1-0.5-0.4C44.5,40.2,44.5,40.1,44.5,40z"/>
	<path class="st0" d="M44.2,38.6c-0.6,0.2-1.3,0.2-2,0.3c-0.3,0-0.6,0-0.8,0c0.2,0.6,0.5,1.7,0.5,2c0.1,1,0.1,4.1,0.1,4.1
		c0.2,0.3,0.7,0.4,1,0.5c0.3,0.1,0.6,0.2,0.8,0.3c0.5,0.3,0.8,0.7,1.1,1.2c0.5-1.2,2.1-4.4,2.3-5c0.1-0.4,0.3-0.7,0.5-1.1
		c-0.9,0.9-1.6,1.1-1.6,1.1c-0.4,0.2-2.4-0.4-2.3-1.5c0-0.7,0.7-0.8,0.8-0.8c1.3-2.1,1.8-2.7,1.9-2.8c0.2-0.1,0.3-0.5,0.1-0.6
		C46.4,36.3,45.6,38.1,44.2,38.6z"/>
	<path class="st0" d="M35.8,54.9c0,0-0.4-0.1-0.3,0.6l0.1,0.6c0,0-0.1,0.3,0.3,0.2c0,0,0.5,0,0.4-0.7C36.3,55.5,36.3,54.7,35.8,54.9
		z"/>
	<path class="st0" d="M30.8,56.9c0,0,0.3-0.1,0.3-0.5c0,0,0.1-0.7-0.3-0.7c0,0-0.4-0.1-0.4,0.2l0,0.9C30.5,56.8,30.4,57.1,30.8,56.9
		z"/>
	<path class="st0" d="M31.3,54.7c0.2-0.1,0.3-0.2,0.4-0.3C31.6,54.5,31.5,54.6,31.3,54.7z"/>
	<path class="st0" d="M36.1,58.2c0,0,0.7,0,0.7-0.7c0-0.8-0.5-0.9-0.5-0.9s-0.8-0.1-0.7,0.4c0,0,0.2,0.7,0.2,1
		C35.8,58,35.8,58.2,36.1,58.2z"/>
	<path class="st0" d="M36.7,53.8c0.1-0.1,0.7-0.9,0.8-1.5c0-0.4-0.5-1.5-0.5-1.9c-0.1-0.8,0.4-1.5,0.6-2.2c0.1-0.3,0.3-0.7,0.3-1.1
		c0-0.3-0.1-1.3-1.1-1.6c-0.4-0.1-1.9-0.2-2.3-1l0,0c-0.2,0.2-0.7,0.9-0.8,1.1c-0.1,0.1-0.1,0.7-0.1,0.9c0,0.2,0.2,0.4,0.2,0.6
		c0.5,0.8,0.8,1.8,1,2.7c0.1,0.3,0.2,0.6,0.4,1c0.2,0.6,0.3,1.3-0.1,1.8c-0.2,0.2-0.5,0.4-0.5,0.4c-0.6,0.4-1.1,0.5-0.5,0.8
		c0.1-0.1,0.1-0.2,0.3-0.2c0.6-0.2,0.9-0.9,0.9-1c0,0.4-0.2,0.8-1,1.1c0,0-0.2,0.1,0,0.3c0.1,0.1,0.3,0.1,0.4,0
		c0.1-0.1,0.3-0.3,0.5-0.6c0.2-0.3,0.6-0.6,0.6-1c0,0,0.1,0.5-0.2,0.9c-0.1,0.2-0.7,0.6-0.6,0.8C35,54.6,36,54.6,36.7,53.8z"/>
	<path class="st0" d="M41.4,38.9c-0.5,0-1,0-1.5,0c0,0,0,0-0.1,0c0.2,0.7,0.5,2.1,0.4,2.6c0,0.4-0.1,0.8-0.1,1.1c0,0.4,0,1,0.5,1.2
		c0.4,0.1,0.9,0.3,1.3,0.6c-0.1-1-0.2-2.2-0.1-2.5C41.9,41.1,41.5,39.5,41.4,38.9z"/>
	<path class="st0" d="M31.2,38.1c-0.1,0.1-0.2,0.1-0.3,0.1C31,38.2,31.1,38.1,31.2,38.1z"/>
	<path class="st0" d="M6.6,43.4l-0.3,0.1l0.4,0.9C6.9,44.2,7,44,7.1,44c0,0,0.3-0.4,0.4-0.6C7.5,43.3,6.9,43.3,6.6,43.4z"/>
	<polygon class="st0" points="55.3,18.7 55.3,18.7 55.3,18.7 	"/>
	<path class="st0" d="M57.9,24.5c0.1,0,0.3,0,0.5,0l0.2,0c0.1,0,0.2-0.1,0.3-0.1c0.2-0.1,0.1-0.4,0.1-0.6c0-0.2-0.1-0.2-0.3-0.2
		c-0.3,0.1-0.7,0.1-1,0.2C57.5,23.9,57.8,24.4,57.9,24.5z"/>
	<polygon class="st0" points="57.6,23.7 57.6,23.8 57.6,23.7 	"/>
	<polygon class="st0" points="57.6,23.8 57.6,23.8 57.6,23.8 	"/>
	<path class="st0" d="M3.9,41c-0.3-0.2-0.5-0.4-0.6-0.7C2.8,40,2,39.2,2.1,38.5c0-0.1,0.1-0.4,0.1-0.4c-0.2-0.3-0.4-0.7-0.3-1
		C2,36.8,2,36.7,2,36.4c0-0.1,0-0.6,0-0.6c0-0.4,0.3-0.6,0.6-0.7c-0.3-0.1-0.6-0.2-1-0.4c-0.4-0.2-0.6-0.3-0.9-0.5
		c0.3,2,0.8,4,1.5,5.8c0.6,0.6,1.4,1.1,2.1,1.4C4.4,41.2,4,41.1,3.9,41z"/>
	<polygon class="st0" points="55.3,22.3 55.2,22.4 55.3,22.3 	"/>
	<path class="st0" d="M55.1,18.7l0.2,0l0.6-0.6C56,18,55.8,18,55.8,18c0,0-0.8,0-0.9,0c-0.1,0.1,0,0.2,0,0.3
		C55,18.4,55,18.6,55.1,18.7z"/>
	<polygon class="st0" points="53.5,18.3 53.5,18.3 53.5,18.3 	"/>
	<polygon class="st0" points="55.9,26.6 55.9,26.6 55.9,26.6 	"/>
	<path class="st0" d="M41.7,11.6c0.6,0.4,0.4-0.3,0.4-0.3c-0.1-0.3-0.9-0.4-0.9-0.4C41.4,11.7,41.7,11.6,41.7,11.6z"/>
	<path class="st0" d="M41.8,9.8c0,0,0.1-0.2-0.3-0.3c0,0-0.5-0.2-0.5-0.2c0,0-0.3,0.2,0.2,0.3C41.1,9.7,41.6,10,41.8,9.8z"/>
	<path class="st0" d="M37.8,3.6c0.4,0,0.6-0.6,0.4-0.9c-0.1-0.2-0.4-0.3-0.6-0.3l-0.1,0.1c0,0.2-0.1,0.5-0.1,0.7l0,0.3
		C37.5,3.6,37.7,3.6,37.8,3.6z"/>
	<polygon class="st0" points="56.1,26.8 56,26.7 56.1,26.8 	"/>
	<path class="st0" d="M33.3,22c-0.6,0.1-4.3,1.8-4.4,1.8c1,0,3,0,4,0c0,0,0-0.1,0-0.1c0-0.2,0.2-1.1,0.3-1.4
		C33.2,22.2,33.3,22.1,33.3,22z"/>
	<path class="st0" d="M31.9,15.4c-0.5,0-0.9,0-1.4,0c-0.3,0-0.7,0.2-0.8,0.2c-0.2,0.2-1.9,3.9-1.9,4c0.6-0.2,1.2-0.5,1.6-1
		c1-1.2,2.2-2.5,3.6-3.1l0,0l-0.1-0.1l0,0L31.9,15.4z"/>
	<path class="st0" d="M37.3,3.9L37.3,3.9c0,0.2-0.2,0.6-0.1,0.7c0.2,0.1,0.5,0.1,0.7,0.2c0.1-0.2,0.3-0.6,0-0.8
		C37.7,4,37.4,3.9,37.3,3.9z"/>
	<path class="st0" d="M30.5,0.4c-0.1,0-0.3,0-0.4,0C13.6,0.6,0.4,13.8,0.4,30c0,0.1,0,0.3,0,0.4c0,1.1,0.1,2.2,0.2,3.3
		c0.6,0.6,1.6,0.9,2.5,1.1c0.9,0.1,1.7,0.2,2.5,0.6c0.2,0.1,0.5,0.2,0.7,0.4l0,0l0.6-0.4C7,35.2,7,35.2,7.1,35.1
		C7.2,35.1,7.4,35,7.5,35c0.2,0,0.3,0,0.4-0.2c0.3-0.6,0.6-0.5,0.7-0.5c0.1,0,0.2,0.1,0.3,0.1c1.2-0.8,1.4-0.3,1.4,0
		c0,0.2-0.1,0.6,0.1,0.7c0.5,0.5,0.2,0.8,0,1.1c-0.1,0.2-0.2,0.6-0.1,1c0,0.2,0.2,0.4,0.2,0.5c0,0.2-0.2,0.6-0.5,0.7
		c-0.3,0.1-0.4,0.1-0.4,0.3c0,0.2-0.2,0.5-0.3,0.6c-0.2,0.2-0.7,0.7-0.8,0.8l0,0c-0.2,0.1-0.5,0.3-0.6,0.4c0,0.1,0,0.5-0.3,0.5
		c-0.4,0.1-0.2,0.3-0.2,0.5c0.7-0.2,1.3-0.7,1.3-0.8c1.1,2.2,2.6,4.3,4.4,6c0.9,0.9,1.9,1.7,2.9,2.4c0,0,0,0,0.1,0.1c0,0,0,0,0,0
		l0,0c0,0,0,0,0,0c0,0.1,0.1,0.1,0.2,0.2c0.1,0.1,0.1,0.1,0.2,0.2c2.7,1.8,5.7,3.1,8.9,3.8c1.3-0.2,1.9-0.7,2-0.7c0,0-0.3,0-0.3-0.4
		c0.2-1.1,1.1-1.9,1.1-2c0-0.2,0-0.5,0.1-0.6c0-0.1,0-0.1,0-0.2c0,0,0,0,0,0c0-0.1,0.1-0.3,0.1-0.4c0.1-0.4,1-1.2,1-1.2
		c0-0.1-0.3-0.6-0.3-0.9c-0.1,0.1-0.5,0.7-0.7,0.8c0,0-0.5,0.4-0.8,0.1c-0.1-0.1-0.1-0.1-0.2-0.2c-0.2-0.1-1.2-0.1-1.4-0.1
		c-0.7,0-1.4-0.2-2-0.2c-0.4,0-1.3,0.3-1.5-0.2c0-0.2,0-0.3-0.1-0.5c-0.1-0.2-0.2-0.3-0.4-0.3c-0.3-0.2-0.7-0.3-1.1-0.3
		c0,0-0.2,0-0.2-0.3c-0.1-0.6-0.2-3.5-0.2-3.6c0.1-1.1-0.3-4-0.4-4.4c-0.1-0.3-0.5-2.1-0.3-3c0.3-1.3,1.8-2.6,1.9-2.7l0,0l0,0
		c-0.2,0-0.4,0-0.4-0.2c0-0.4,0.3-0.6,0.5-0.8c0.5-0.5,0.8-1,0.8-1.1c0.4-0.6,0.9-0.7,1.6-0.8c-0.2-0.2-0.3-0.4-0.5-0.5l0,0l0.1-0.1
		c0.4,0,0.9,0,1.3,0c-0.2-0.3-0.5-0.6-0.7-0.9l0.2-0.1c0.7,0.1,1.4,0.2,2,0.2c1.6,0.2,3.2,0.3,4.8,0.5c0.2,0,0.4,0,0.6,0.1
		c0.3,0,0.5,0.3,0.6,0.5c0.3,0.3,0.5,0.7,0.6,1.1c0,0.1,0.5,0.2,0.6,0.2c0.4-1.4,1.6-3.1,1.6-3.1c-0.1-0.2-0.6-1.4-0.6-1.7
		c-0.3,0-1-0.1-1.6-0.8c-0.2-0.2-0.5-0.3-0.5-0.6c0-0.1,0-0.1,0.1-0.2c-1.1,0.2-3.5,0.1-4.7,0c-0.5,0-1.2,0.1-2,0.2
		c-0.5,0-1,0-1.5,0l0,0c0,0-5.2-0.1-5.8-0.1c-0.3,0-0.3-0.3-0.1-0.3c0.1,0,3,0.1,4.3,0.2c-0.2,0-0.3-0.1-0.4-0.2l-0.2-0.2
		c-0.4-0.5,0-1.5,0.2-2c0.8-2.1,2.2-4,3.6-5.7c0.1-0.2,0.6-0.7,0.6-0.8c0.8-1.4,1.7-1.7,1.8-1.8c0.4-0.2,0.8-0.5,1.2-0.6
		c0.4-0.2,0.9-0.2,1.4-0.3c-0.1-0.2,0-0.6,0.1-0.7c-0.3-0.2,0-0.7,0-0.7c0,0-0.4,0.1-0.6-0.1c-0.2-0.3,0-0.6,0.1-0.9
		c0.1-0.2,0.4-0.9,0.4-1c0-0.3,0-0.5,0-0.7c0-0.3-0.1-0.6,0-1c0-0.2,0.1-0.4,0.1-0.6c0-0.2-0.1-0.3-0.1-0.4c0-0.4,0.4-0.6,0.7-0.7
		c0.3-0.1,0.5-0.3,0.8-0.4c-0.3,0-2.1,0.2-2,0c0.1-0.3,0.2-0.8,0.2-1c0-0.1,0-2,0-2.2c0-0.2-0.1-0.4-0.2-0.5
		c-0.1-0.1-0.1-0.1-0.1-0.2c0.2-0.2,0.7-0.1,1-0.1c0.3,0,1.7,0.1,1.7,0.1c0.1,0.1,0.2,0.3,0.2,0.5C33.7,2,33.5,2,33.5,2
		c-0.2,0-0.3-0.1-0.4-0.2c-0.2-0.2-0.4-0.3-0.7-0.3c-0.1,0-0.3,0-0.4,0c0,0.3,0,0.7,0,1c0.1,0.1,0.5,0.1,0.7,0c0,0,0.3-0.2,0.3-0.1
		c0,0.2,0,0.8,0,0.9c0,0.1-0.2,0.1-0.3,0C32.5,3.1,32.3,3,32,3.1c0,0.3,0,1.2,0,1.4c0,0.2,0.3,0.1,0.5,0.1c0.3-0.1,0.5-0.2,0.7-0.5
		c0.1-0.1,0.4-0.5,0.6-0.4c0.1,0,0,0.2,0,0.3c0,0.1-0.1,0.6-0.1,0.7c0.8-0.2,1.6-0.3,2.4-0.2c0.1-0.6,0.3-1.1,0.5-1.7
		c0.1-0.3,0.1-0.5,0-0.8l0-0.2h0c0-0.1,0.3,0,0.4,0c0.2,0.1,0.4,0.1,0.6,0.2c0.5,0.1,1.2,0.1,1.5,0.6C39.5,3,39.3,3.8,38.7,4
		c0.3,0.3,0.4,0.8,0.2,1.2l-0.1,0.1c0.3,0.1,0.5,0.3,0.7,0.5c0,0,0.3-0.8,0.5-1.2c0.1-0.3,0.5-1.2,0.5-1.3c0-0.1-0.1-0.3,0-0.4
		c0,0,0.2-0.1,0.3,0C41,3,41.2,3.1,41.4,3.1c0.1,0,0.7,0.2,0.4,0.4h0c0,0-0.2,0.1-0.3,0.5c-0.1,0.3-0.7,1.6-0.8,2
		c-0.1,0.3,0.3,0.5,0.5,0.5c0.3,0,0.4-0.1,0.6-0.4C42,5.7,42.6,4.2,42.6,4c0-0.1-0.1-0.2,0-0.3l0,0c0,0,0.1-0.1,0.4,0.1
		c0.1,0,0.6,0.2,0.6,0.3c0.1,0.2-0.4,0.2-0.4,0.3c0,0.1-0.4,1-0.6,1.2c-0.5,1.2-1.1,1.5-1.1,1.5c-0.2,0.1-0.7,0.2-1.1-0.1
		c0.1,0.1,0.1,0.3,0.1,0.4c0.1,0.1,0.3,0.2,0.5,0.2c0,0,0.5,0,0.5,0.4c0,0,0.1,0.5-0.3,0.2c0,0-0.4-0.2-0.5-0.1c0,0.2,0,0.5,0,0.7
		c0.1,0.1,0.5,0.3,0.8,0.3c0,0,0.4-0.1,0.4,0.4c0,0,0.3,0.7-0.3,0.4c0,0-0.7-0.3-0.9-0.3c0,0.2,0,0.4,0.1,0.6
		c0.1,0.1,0.4,0.2,0.9,0.3c0,0,0.4-0.1,0.6,0.5c0,0,0.4,0.7,0.1,0.7c-1.9-0.3-1.8-1.4-1.9-2c-0.1-0.5,0-1.5,0-1.5
		c-0.2,0.4-0.4,0.9-0.5,1.3c-0.2,0.6-0.3,1.8,0.1,2.1c0,0-1.1-0.4-0.3-2.1c0.2-0.5,0.4-1.1,0.7-1.6c-0.1-1-0.5-2-1.4-2.6
		c-0.5-0.4-2.4-1.2-4.8-0.9c-0.9,0.1-1.8,0.4-2.5,0.9c-0.1,0.1-0.3,0.2-0.3,0.4c0,0.1,0.1,0.2,0.1,0.3c0,0.1-0.2,0.9-0.2,1.2
		c0.1-0.3,0.5-1.2,0.7-1.3c-0.1,0-0.2-0.1-0.3-0.1l0,0L32,6l0.7,0c0,0.1-0.3,0.2-0.3,0.2c0,0-0.2,0-0.2,0.1
		c-0.1,0.1-0.6,1.1-0.6,1.7c0,0.2,0,0.5,0,0.7c-0.2,0.5-0.4,0.9-0.5,1.4c-0.1,0.2-0.1,0.6,0.3,0.5c0.1-0.1,0.2-0.1,0.2-0.1
		c0,0,0.4,0.4,0.8,0c0,0.1-0.2,0.4-0.6,0.3l-0.2-0.1c-0.1,0.2-0.1,0.4,0,0.6c0.1,0.1,0.3,0.1,0.4,0.1c0.1,0,0.4,0.2,0.4,0.2
		c0,0.1-0.1,0-0.1,0c-0.1,0-0.3,0-0.3-0.1c-0.1,0-0.2-0.1-0.3-0.1h0c0,0.2,0.2,0.4,0.2,0.5c0,0.1-0.2,0.2-0.2,0.3
		c0,0.3,0.1,0.5,0.4,0.5c0.4,0,0.9,0.1,1.2,0.2c0.6,0.2,1.2,0.6,1.5,1.1c0.2,0.4,0.3,0.7,0.3,1.1c0,0.1,0,0.3,0.1,0.3
		c0.3,0.2,0.2,0.6,0.3,0.6c-0.1-0.4-0.5-0.6-0.5-0.6c-0.1-1.5-0.5-1.7-0.6-1.8c0.1,0.2,0.4,1.2,0.4,1.7c-0.1,0.8-0.7,0.2-0.7,0.2
		l-0.2,0.1c-0.2,0-0.5-0.2-0.5-0.2c-1.4,0.9-2.5,1.7-3.5,2.9c-0.5,0.5-1.5,1.2-2.2,1.5c0,0-0.5,0.9-1,1.4l-0.2,0
		c0.3-0.4,0.6-0.8,0.8-1.3c0.1-0.2,0.7-1.3,0.9-1.6c0.1-0.3,0.2-0.5,0.3-0.7c0.3-0.7,0.7-1.4,1.1-2.1c0.3-0.6,0.7-0.6,1-0.6
		c0.5-0.1,1,0,1.4,0c0.3,0,0.7,0,1-0.1c-0.3-1.3-2.3-0.7-2.7-0.5c1.2-0.6,1.9-0.4,2.1-0.3c0.4,0.1,0.7,0.6,0.8,0.9
		c0.3,1.1,0.6,0.5,0.6,0.5c-0.1-0.6-0.3-1-0.4-1.3c-0.1-0.2-0.4-0.5-0.8-0.7c0.4,0.1,0.7,0.2,0.8,0.3c0.5,0.5,0.6,1.6,0.6,1.8
		c0.2,0.4,0.4,0.1,0.4,0c0-0.2-0.2-1.7-0.5-2h0c-0.3-0.2-1.1-0.5-2.2-0.6c-0.3,0-0.4-0.6-0.4-0.6c-1,0.2-1.5,0.2-2.2,0.7
		c0,0-0.9,0.5-1.4,0.9c-0.1,0.1-0.5,0.9-0.8,1.1c-1.4,1.5-2.6,3.1-3.5,4.9c-0.3,0.6-0.9,2-0.9,2.4c0,0.3,0,0.6,0.2,0.8
		c0.4,0.4,1,0.3,1,0.3c1.9,0.5,4.4-0.1,4.9-0.3c0.9-0.3,1.4-0.6,2.3-1c0.7-0.3,1.4-0.8,2.2-0.9c-0.2-0.6-0.6-1.1-0.7-1.2
		c0.5,0.4,1,1,0.9,1.7c0,0.3-0.3,1.6-0.3,1.7c0,0.1-0.1,0.3,0,0.4c0,0.1,0.1,0.2,0.2,0.3l0.3,0.1c0.9,1.4,3,0.4,3.1,0.4
		c-0.4,0.3-0.9,0.5-1.3,0.6c0.1,0.7,0.6,1.6,0.6,1.6c-0.1,0.1-0.7,1.2-1,1.7c-0.3,0.5-0.5,1-0.7,1.6c0,0,1.4,0.6,1.8,0.9
		c0,0,1.1-0.4,1.8,0c0.1,0.1,0.2,0.1,0.3,0.1c0.4,0.1,0.9,0.2,1.3,0.3c0.3,0.1,1.1,0.7,1.3,0.7c0.8,0.1,1.6,0.6,2.1,1.1
		c0.3,0.3,0.5,0.6,0.8,0.9c0.3,0.3,0.7,0.9,0.7,1.4c0,0.2-0.1,0-0.1,0c0-0.3-0.2-0.5-0.3-0.8c0,0,0.1,0.8-0.1,1.2
		c-0.1,0.2-0.3,0.5-0.4,0.7c-0.5,0.7-0.9,1.1-1.2,1.3l0.6,0c0.3,0,0.6,0,0.9-0.1c1.9-0.4,2.5-1.8,2.6-2.3c0.3-1,0.4-2.1,0.5-3.2
		c0,0-0.5-4.1-0.6-4.9c-0.1-0.5-0.1-1-0.3-1.4c-0.2-0.5-1-1.9-1.1-2.2c-0.4-0.6-0.7-1.3-0.8-2c0,0-0.5-0.3-0.6-0.5
		c0,0-0.2-0.5-0.3-0.6c0,0,0,0-0.1-0.1c0,0,0,0,0-0.1c-0.2-0.3-0.2-0.6-0.3-0.9c-0.1-0.3-0.3-0.7-0.4-1c0.1,0.1,0.5,0.6,0.5,0.6
		c0.2,0.3,0.5,0.5,0.5,0.5s2.6,0,3.6-0.9c0,0-0.6-1.6-0.7-1.9c-0.6-1.1-2.2-3.1-2.2-3.2c-0.4-0.2-2.6-0.9-3.2-1
		c-0.7-0.3-1.6-0.5-2.2-1c-0.1-0.1-0.4-0.5-0.4-0.7c0,0-0.4-0.8-0.9-1.1c-0.1,0.2-0.3,0.4-0.5,0.6c-0.2,0.2-0.6,0.3-1,0.2
		c0.3,0.1,1-0.4,1.1-1c0,0-0.6-0.3-1-0.5c-0.7-0.3-1.2-1.1-1.6-1.7c0.3,0.4,1.3,1.4,2.1,1.8c0.7,0.3,1.2,0.7,1.3,0.9
		c0.2,0.2,0.3,0.5,0.5,0.7c0.1-0.1,0.1-0.4,0.1-0.4c-0.1-0.2-0.2-0.4-0.4-0.6c0,0-0.4-0.3-0.5-0.5c0,0,0-0.1,0.1-0.1
		c0.1,0.1,0.3,0.2,0.4,0.3c0.2,0.1,0.4,0.3,0.5,0.5c0,0,0.3-0.8-0.2-1.1c-0.3-0.1-0.9-0.4-0.9-0.4l0.2,0c0.1,0,1.1,0.3,1.2,0.5
		c0.1,0.1,0.1,0.3,0.1,0.4c0.1-0.1,0.3-0.4,0.3-0.4l0.1,0c0,0.2-0.3,0.9-0.6,1.1c-0.1,0.2-0.2,0.7-0.3,0.7c0,0.6,0.9,0.9,1.3,1.1
		c0.1,0,0-0.4,0.1-0.4c0.1,0,0.7,0.7,0.7,0.7c0.1,0-0.1-0.4,0-0.3c0.2,0.1,0.6,0.6,0.8,0.7c0.1,0,0.2,0.1,0.2,0.1
		c-0.4-0.7-0.5-1.5-0.8-2.2c0,0,0.4,0.8,0.6,1.2c0.3,0.3,1.7,0.8,2,0.7c-0.1,0-0.4,0.5-1.8-0.1c0.1,0.2,0.2,0.3,0.2,0.5
		c0.1,0,1.3,0.4,1.9,0.7h0l0.3,0.1h0c0,0,0,0,0,0l0,0h0c0.1,0,0.1,0,0.2,0.1c0,0,0,0,0,0c0.5,0.5,1.1,1.2,1.7,2
		c-0.8-2.6-0.1-3.6,0.5-3.8l0,0c0.2-0.1,0.5-0.1,1-0.1c0.2,0,0.6,0.2,0.7,0.3c0,0,0,0,0,0c0,0,0,0,0,0l0,0c1.8,1.9,3.2,3.9,4.5,6.1
		c1.3,2.2,2.4,6.9,2.4,6.9c0.5,2.6,0.5,5.3,0.1,7.9c-0.1,0.6-0.2,1.3-0.4,2c0.1,0,0.2,0,0.2,0c0.9-0.7,1.8-0.9,2.9-1.1
		c0.5-0.1,1-0.2,1.5-0.4c0.4-0.1,0.9-0.4,1.3-0.7c0.1-1.1,0.2-2.3,0.2-3.4c0-0.1,0-0.3,0-0.4C60.5,13.4,47,0.4,30.5,0.4z M5,32.2
		c-0.4,0.3-1.1,0.3-1.6,0.3c-0.4,0-1.7,0-1.9,0.1c-0.1,0.1-0.2,0.3-0.3,0.2c-0.1,0-0.1-0.8-0.1-0.9c0-0.2-0.1-0.5,0.1-0.6l0.1,0l0,0
		v0c0.1,0,0.2,0,0.2,0.1c0.1,0.1,0.2,0.1,0.3,0.1c0.8,0,1.7,0,2.5,0c0.1,0,0.3-0.1,0.3-0.1l0,0c0.3-0.3,0.3-0.9-0.2-1.1
		c-0.3-0.1-2.2-0.1-2.8-0.1c-0.2,0-0.4,0.2-0.4,0.2c-0.1,0-0.2,0-0.2-0.1c0-0.2,0-0.4,0-0.5c0-0.1,0-0.2,0-0.3h0l0.2-0.1
		c0.1,0,0.1,0.1,0.2,0.1c0.1,0.1,0.2,0.1,0.3,0.1c0.1,0,0.9,0.1,1.3,0.1c0.4,0,1.8,0.1,2.1,0.3c0.3,0.3,0.3,0.7,0.3,1.1
		C5.3,31.6,5.3,32,5,32.2z M5.4,26.3L5.4,26.3L5.4,26.3c0,0-2.2,1.3-2.8,1.5c0.1,0.1,1.6,0.3,1.9,0.3c0.1,0,0.3,0,0.4,0
		c0.1,0,0.2-0.2,0.2-0.2c0,0,0.2-0.1,0.2,0c0,0.3,0,0.5-0.1,0.8c0,0.1,0,0.4-0.2,0.3c0,0-0.2,0-0.2-0.2l-0.1-0.1
		c0-0.1-2.1-0.2-2.9-0.2c-0.1,0-0.3,0-0.4,0l-0.4,0.2h0c0,0-0.1,0-0.1-0.2c0-0.2,0.1-0.8,0.2-0.9c0.2-0.1,0.3-0.2,0.5-0.3
		c0.4-0.2,1.5-0.9,1.4-0.8c0.1,0-1.3-0.2-1.4-0.2c-0.1,0-0.1,0.1-0.2,0.1l-0.1,0l0,0v0c-0.1,0.1-0.1-0.1-0.1-0.2
		c0-0.2,0.1-0.4,0.1-0.5c0-0.2,0-0.3,0.1-0.4v0l0,0l0.1-0.1h0c0.1-0.1,0.2,0.1,0.2,0.2c0,0.1,0.1,0.1,0.2,0.2
		c0.6,0.1,1.2,0.2,1.8,0.3C4.1,26,4.9,26.1,5,26.1C5,26.1,5.5,26.1,5.4,26.3z M5.9,24.1c0,0.1-0.1,0.2-0.1,0.3
		c-0.1,0.2-0.1,0.4-0.1,0.6c0,0.1-0.1,0.4-0.2,0.3C5.3,25.2,5.2,25,5,24.9c-0.5-0.2-2.8-0.6-2.9-0.6c-0.1,0-0.1,0-0.1,0h0l0,0
		c0,0-0.1,0.1-0.1,0.1c0,0-0.1,0-0.1-0.1c0-0.3,0.1-0.6,0.2-0.9C2,22.9,2,23,2,23c0.1,0,0.3,0.2,0.4,0.3C2.8,23.5,4.6,23.9,5,24
		c0.4,0.1,0.8,0,0.8,0C5.9,23.9,6,23.9,5.9,24.1z M6.5,21.7c-0.1,0.2-0.1,0.5-0.3,0.7c0,0-0.1,0.2-0.3-0.1c-0.1-0.1-3.1,0-3.2,0
		c-0.1,0-0.2,0-0.3,0c0,0,0,0-0.1,0.1c-0.1,0.1-0.2,0-0.2-0.1c0.1-0.2,0.3-1.1,0.4-1.1v0c0,0,0.1-0.1,0.2,0c0.2,0.1,0.3,0.2,0.5,0.2
		c0.2,0,1.7,0.1,1.8,0c0.2-0.2-0.7-0.7-0.8-0.8C4,20.4,3.4,19.9,3.1,20c0,0-0.2,0.1-0.2,0c0-0.1,0.2-0.9,0.5-1.1
		c0.1-0.1,0.2,0.2,0.2,0.3c0,0.1,0.1,0.2,0.2,0.2c0.6,0.6,1.4,1.2,2.2,1.7c0.1,0.1,0.3,0.1,0.4,0.1c0.1,0,0.2,0,0.3,0
		C6.7,21.3,6.6,21.7,6.5,21.7z M7.2,20L7.1,20c-0.1,0-0.1-0.2-0.2-0.2c0-0.1-0.4-0.3-0.5-0.4h0c-0.5-0.3-1-0.5-1.4-0.8
		c-0.3-0.1-0.6-0.4-0.9-0.4c-0.1,0-0.2,0-0.2,0l-0.1,0.1c-0.3,0,0.1-0.5,0.1-0.6c0.1-0.3,0.7-1.5,0.9-1.6c0,0,0.1-0.1,0.2,0
		c0.2,0,0.4,0.1,0.6,0.1c0.1,0,0.3,0.1,0.1,0.2c-0.1,0.1-0.5,0.1-0.7,0.2c-0.2,0-0.5,0.7-0.4,0.8c0.1,0,0.8,0.4,1.1,0.6
		c0.2-0.2,0.1-0.4,0.1-0.5c0-0.1-0.2-0.6,0-0.5C6,17,7,17.4,6.9,17.6c-0.1,0.1-0.3,0.1-0.4,0.1c-0.3,0.1-0.4,0.4-0.4,0.4
		c0.1,0,1.2,0.6,1.3,0.7c0.1-0.2,0.2-0.6,0.2-0.7c0-0.2,0-0.4-0.1-0.6c0-0.1-0.3-0.4-0.2-0.5c0.2-0.4,1.1,0.8,1.1,0.8L7.2,20z
		 M10.8,14.2c-0.1,0.2-0.3,0.3-0.4,0.3c-0.4,0.1-0.8,0.2-1.3,0.2c-0.3,0-0.6,0-0.9,0.1c-0.4,0.3,0.2,0.5,0.4,0.7
		c0.2,0.1,0.3,0.2,0.5,0.3c0.1,0.1,0.6,0,0.4,0.3C9.3,16.2,8.8,17,8.7,17v0h0c-0.1,0.1-0.1-0.2-0.1-0.2c0-0.2-0.1-0.3-0.3-0.4
		c-0.5-0.4-1.1-0.7-1.6-1.1c-0.2-0.2-0.5-0.4-0.9-0.4c-0.2,0-0.5,0.1-0.3-0.2c0.1-0.2,0.2-0.3,0.3-0.5c0.7-1.1,1-1.3,1-1.3
		c0.4-0.2,0.9-0.2,1.3,0.1c0.2,0.2,0.3,0.4,0.3,0.6c0,0.2,0,0.2,0.2,0.2c0.4,0.1,1.5,0.2,1.7,0.2C10.5,14,10.9,13.9,10.8,14.2z
		 M12.2,12.4c-0.1,0.3-0.4,0.5-0.6,0.7c-0.2,0.2-0.4,0.4-0.5,0.6l-0.1,0.1c-0.1,0-0.3-0.1-0.4-0.1c-0.2-0.1-0.5-0.2-0.7-0.3
		c-0.1-0.1,0-0.2,0-0.2v0c0.1,0,0.2-0.1,0.3-0.1c0.4-0.1,0.9-0.2,1.3-0.5c0.2-0.2,0.5-0.5,0.4-0.8c0-0.5-0.5-0.4-0.9-0.2
		c-0.2,0.1-0.9,0.5-0.9,0.5c-0.5,0.2-1.1,0.2-1.5-0.2c-0.4-0.4-0.3-1,0.1-1.4c0.1-0.1,0.7-0.5,0.8-0.5C9.5,10,9.5,9.6,9.6,9.7
		c0,0,0.2,0.1,0.3,0.1c0.1,0.1,0.8,0.3,0.6,0.5c-0.2,0.1-0.5,0.1-0.7,0.2c-0.3,0-0.5,0.1-0.8,0.2c-0.2,0.1-0.4,0.5-0.3,0.7
		c0.2,0.2,0.4,0.2,0.7,0.1c0.1,0,1.3-0.7,1.8-0.7c0.5,0,1,0.4,1.1,0.9C12.4,11.9,12.3,12.1,12.2,12.4z M14.5,10.6
		c0,0-0.6,0.4-0.9,0.7v0c0,0-0.2,0.3-0.3-0.1c-0.1-0.2-0.1-0.4-0.3-0.6c-0.5-0.7-1.1-1.2-1.7-1.7c-0.1-0.1-0.2-0.2-0.3-0.2
		c0,0-0.3,0-0.3-0.1c0-0.1,0.1-0.1,0.1-0.2c0.5-0.6,1-0.8,1-0.8l0,0l0.1,0c0.1,0.2,0.1,0.4,0.2,0.6c0.1,0.2,1.4,1.5,1.8,2
		c0.2,0.1,0.3,0.2,0.5,0.2h0C14.8,10.4,14.6,10.5,14.5,10.6z M16.7,8.7c-0.1,0.2-0.9,0.7-1.1,0.9c-0.1,0.1-0.3,0.2-0.4,0.3l-0.1,0
		c-0.1-0.1-0.1-0.2-0.1-0.3c0-0.1,0-0.3-0.1-0.4c-0.2-0.3-0.4-0.5-0.5-0.8c-0.2-0.3-0.4-0.6-0.7-1c-0.2-0.3-0.4-0.4-0.7-0.5
		c-0.1,0-0.3-0.1-0.2-0.2C13,6.7,14.2,6,14.4,5.9h0c0.5-0.2,1-0.3,1.5,0c0.6,0.4,1,1,1.1,1.7C17,8,16.9,8.4,16.7,8.7z M21.2,6.6
		c0,0-1.1,0.5-1.3,0.6c-0.1,0-0.2-0.1-0.1-0.2c0-0.1,0-0.2,0-0.2c0,0-0.3-0.4-0.3-0.4c-0.1,0-0.7,0.3-0.9,0.3
		c-0.1,0.1-0.1,0.4,0,0.5c0.1,0.1,0.4,0.2,0.4,0.3c0,0.1-0.1,0.1-0.2,0.2c0,0-0.6,0.2-0.8,0.4l0,0c0,0,0,0,0,0c0,0,0,0,0,0l0,0
		c0,0-0.2,0.1-0.2,0c0-0.1,0.1-0.2,0.1-0.3c0.1-0.2,0.1-0.4,0.1-0.6c0-0.3,0-0.7-0.1-1c0-0.4-0.1-0.9-0.2-1.3c0-0.2,0-0.4-0.2-0.6
		l-0.1-0.3c0-0.1,0.5-0.3,0.6-0.3c0.1,0,0.8-0.3,0.8-0.2c0,0.2,0,0.4,0.1,0.5c0.4,0.6,1.8,2.1,2,2.2C20.9,6.4,21.4,6.5,21.2,6.6z
		 M23.3,5.9c-0.3,0.2-0.7,0.3-1.1,0.4c-0.1,0-0.6,0.3-0.7,0.1c-0.1-0.1,0-0.2,0-0.3c0-0.1,0-0.3,0-0.4c-0.2-0.8-0.5-1.6-0.7-2.4
		c-0.1-0.2-0.2-0.3-0.4-0.4c-0.1-0.1-0.1-0.1,0-0.2c0.2-0.2,0.4-0.2,0.6-0.3c0.5-0.1,1.1-0.3,1.6-0.2c0.4,0.1,0.7,0.4,0.9,0.8
		C24.2,4,24.4,5.3,23.3,5.9z M25.5,3.9c-0.4,0-0.6-0.2-0.6-0.5c0-0.3,0.3-0.6,0.6-0.6c0.3,0,0.6,0.2,0.6,0.6
		C26.1,3.6,25.9,3.9,25.5,3.9z M29.6,4.6c-0.1,0.1-0.2,0.1-0.2,0.2C29.3,4.8,29.2,4.9,29,5c-0.5,0.2-1.1,0.2-1.6,0.2
		c-0.1,0-0.3,0-0.2-0.2c0-0.1,0.1-0.2,0.1-0.2c0-0.1,0-0.2,0-0.4c0-0.5,0-1-0.1-1.4c-0.1-0.3-0.1-0.7-0.2-1c0-0.1-0.1-0.2-0.1-0.3
		c-0.1-0.1-0.1-0.1-0.2-0.2c-0.1-0.2,0.3-0.3,0.4-0.3c0.6-0.1,1.2-0.2,1.8-0.1c0.4,0,0.8,0.2,1,0.5c0.3,0.4,0.4,1,0.4,1.5
		C30.2,3.6,30,4.2,29.6,4.6z M34.8,3.6c-0.4,0-0.6-0.2-0.6-0.5c0-0.3,0.2-0.6,0.6-0.6c0.3,0,0.6,0.3,0.6,0.6
		C35.4,3.3,35.1,3.6,34.8,3.6z M44.7,34l-0.1,0.2c-0.6-1.2-1.5-1.6-2.8-1.9C41.9,32.3,44.3,32.3,44.7,34z M42.7,27.3
		c-0.4,0.2-0.7,0.6-0.7,1c0.1,0.7,0.1,1.7-0.6,2.2l-0.2,0.1c0.4-0.3,0.6-0.9,0.6-1.4c0-0.5,0-1.2,0-1.2c-0.3-0.4-0.9-0.5-1.3-0.7
		c0,0,1.1,0.2,1.4,0.6C42.2,27.7,42.5,27.5,42.7,27.3z M40.3,22c0.2,0,0.4,0.2,0.4,0.3c0,0.2-0.2,0.5-0.4,0.3
		c-0.2,0.1-0.4,0-0.4-0.2C39.9,22.2,40.1,22.1,40.3,22z M40.2,24.1c1.2-0.1,1.7-1,1.8-1.4l0.2-0.1C42,23,41.8,23.9,41,24.3
		c-0.5,0.2-1.1,0.2-1.6,0c-0.4-0.2-0.7-0.5-1.1-0.8C38.4,23.5,39.1,24.1,40.2,24.1z M37.2,28c0.1,0,0.2,0.1,0.2,0.1
		c0,0.1-0.1,0.2-0.2,0.2c-0.1,0-0.2-0.1-0.2-0.2C37,28,37,27.9,37.2,28z M33.3,9.3c-0.2,0.1-0.5,0-0.6-0.2c-0.4-0.5-0.5-0.4-0.7-0.6
		c0,0,0.2,0.2,0.2,0.5c0,0.3,0.2,0.5,0.5,0.4l0,0c0,0-0.3,0.1-0.5,0.1C32,9.4,32,9.1,32,8.9c0-0.2-0.1-0.4-0.3-0.6v0
		c0.1-0.2,0.5,0,0.6,0.1c0.2,0.1,0.4,0.3,0.5,0.4c0.2,0.2,0.4,0.3,0.6,0.2L33.3,9.3z M34.9,8c-0.5-0.3-1-0.7-1.4-1.2
		C33.4,6.6,33,6.1,33,6.1l0.3,0.2c0.2,0.2,0.4,0.3,0.5,0.5c0.4,0.3,0.7,0.7,1.1,1C35.1,7.9,34.9,8,34.9,8z M37.8,8.5
		c-1-0.5-1.9-1.1-2.7-1.8c-0.3-0.3-1-1-1-1.1l0.5,0.3c0.4,0.3,0.7,0.5,1,0.8c0.7,0.5,1.3,1.2,2.2,1.5C38,8.3,37.8,8.5,37.8,8.5z
		 M39.4,8.5c0,0.3-0.1,0.5-0.2,0.7l-0.1,0.1l-0.2-0.1l0-0.2v0c-0.3-0.7-0.6-1.2-1.1-1.8c-0.1-0.1,0.1-0.1,0.1-0.1
		C38.3,7.6,38.7,8,39,8.5c0-0.5-0.1-0.9-0.3-1.3c-0.2-0.5-0.4-0.9-0.8-1.3c-0.1-0.1-0.4-0.4-0.4-0.5l0,0c0.1,0,1.2,1.3,1.4,1.7
		C39.2,7.5,39.4,8,39.4,8.5z M44.8,9.4c-0.1,0-0.2-0.1-0.3-0.2c-0.2-0.1-1.3-0.8-1.7-1c-0.1,0-0.6-0.2-0.4-0.3c0,0,0-0.1,0.4-0.2
		c0.2-0.2,1.1-1.6,1.4-2.1c0.1-0.2,0.2-0.4,0.2-0.6c0-0.1,0-0.2,0-0.3c0-0.3,0.5-0.1,0.6,0c0.5,0.3,1.1,0.7,1.6,1
		c0.1,0,0.3,0.2,0.3,0.2c0,0.1-0.2,0.5-0.2,0.7c0,0.1-0.1,0.1-0.2,0.2c0,0-0.2,0-0.3-0.1C46.2,6.4,46.1,6.2,46,6
		c-0.1-0.1-0.3-0.5-0.6-0.5c-0.2,0.3-0.4,0.6-0.6,0.9c0.1,0.2,0.2,0.1,0.4,0.2l0.2,0c0.1,0,0.3-0.1,0.4-0.1c0.1,0-0.1,0.4-0.1,0.5
		c-0.1,0.2-0.2,0.5-0.3,0.6c-0.1,0.1-0.2,0-0.2-0.1c0-0.2-0.1-0.4-0.3-0.6c-0.1-0.1-0.2-0.2-0.3-0.2c-0.2,0.3-0.4,0.7-0.6,1
		c-0.1,0.2-0.2,0.3,0.1,0.5c0.3,0.2,0.7,0.2,1.1,0.2c0.2,0,0.3-0.2,0.5-0.2c0.2,0,0.1,0.2,0,0.3C45,9.3,44.8,9.4,44.8,9.4z
		 M48.1,10.9c-0.1,0.2-0.1,0.4-0.2,0.6l-0.1,0.1c-0.2,0-0.4-0.1-0.3-0.3c0.1-0.6,0.3-2.5,0.3-2.9c0-0.1,0-0.4,0-0.4
		c-0.4,0.5-0.8,1.1-1.1,1.6c-0.1,0.2-0.1,0.4-0.1,0.6c0,0.1-0.1,0.4-0.4,0.1c-0.1-0.1-0.3-0.3-0.5-0.3c-0.3-0.2-0.2-0.3-0.2-0.3l0,0
		c0.3-0.1,0.5-0.2,0.6-0.5c0.2-0.3,1.1-1.4,1.4-1.7c0.1-0.1,0.2-0.3,0.2-0.4c0-0.1,0-0.2,0.1-0.4c0-0.1,0-0.2,0-0.2l0.1-0.1
		c0.2,0,0.7,0.4,0.9,0.6c0.2,0.2,0.1,0.5,0.1,0.8c0,0.4-0.2,1.7-0.1,1.8c0.2-0.3,0.4-0.6,0.6-0.9c0.1-0.2,0.2-0.4,0.1-0.6
		c-0.1-0.3,0.1-0.2,0.2-0.3c0,0,0.1,0,0.2,0.1c0.2,0.2,0.4,0.4,0.6,0.5c0.1,0.1,0.1,0.2,0,0.2l-0.3,0.1c-0.2,0-0.4,0.2-0.5,0.3
		c-0.5,0.5-1,1.1-1.5,1.6C48.2,10.8,48.1,10.8,48.1,10.9z M49.6,13.4c-0.5-0.3-0.9-0.8-0.8-1.4c0.1-0.5,0.4-1,0.8-1.4
		c0.6-0.5,1.5-1.1,2.3-0.7c0.5,0.3,0.9,0.8,0.8,1.4c-0.1,0.5-0.4,1-0.8,1.4C51.3,13.2,50.4,13.8,49.6,13.4z M52.5,16.5
		c-0.6,0-1.1-0.3-1.3-0.9c-0.1-0.3-0.2-0.6-0.5-0.8c-0.2-0.1,0-0.3,0.1-0.4c0.2-0.2,0.7-0.7,0.7-0.7l0,0l0,0c0,0,0,0,0,0
		c0.1-0.1,0.2,0,0.2,0.1c0,0.3-0.2,0.6-0.1,0.9c0,0.5,0.3,1.6,1,1.2c0.4-0.3,0.3-0.7,0.2-1.1c-0.1-0.5-0.3-0.9-0.2-1.4
		c0-0.3,0.4-0.7,0.5-0.7l0.2-0.1c0.5-0.3,1.2,0.2,1.5,0.6c0,0.1,0.1,0.2,0.1,0.2c0.1,0.1,0.1,0.2,0.2,0.4c0.1,0.2,0.5,0.4,0.2,0.6
		c0,0-0.7,0.6-0.9,0.6c-0.1,0,0-0.1,0-0.2c0.1-0.2,0.1-0.4,0.1-0.7c0-0.3-0.2-1.1-0.7-0.9c-0.1,0.1-0.1,0.1-0.1,0.2
		c0,0.4,0.2,0.8,0.3,1.2c0.1,0.5,0,1.1-0.4,1.4C53.2,16.3,52.8,16.4,52.5,16.5z M55.1,16.5c0,0.3-0.3,0.6-0.6,0.6
		c-0.4,0-0.6-0.2-0.6-0.5c0-0.3,0.2-0.6,0.6-0.6C54.8,16,55.1,16.2,55.1,16.5z M54.1,20.7c-0.1-0.2-0.1-0.4-0.2-0.6
		c-0.1-0.1-0.1-0.2-0.2-0.3c0-0.1,0.1-0.2,0.1-0.2h0l0.2,0c0.1,0,0.7-0.4,0.7-0.5c0-0.1,0-0.2-0.1-0.3c-0.1-0.2-0.2-0.4-0.3-0.5
		c-0.1-0.1-0.1-0.2-0.3-0.1c-0.2,0-0.3,0.1-0.5,0.2l-0.3,0.2c-0.1,0.1-0.3,0.1-0.3,0c0,0-0.1-0.3-0.2-0.4c0,0-0.2-0.2-0.1-0.3l0.1,0
		c0.2-0.1,0.4,0.1,0.7,0c0.2,0,2-0.2,2.7-0.3l0.3-0.1c0.2-0.3,0.3-0.3,0.4-0.3c0,0,0.1,0,0.1,0.1c0,0.2,0.7,1,0.5,1.2h0l0,0l0,0
		c0,0.1-0.5,0.1-0.5,0.1c0,0-1.3,1.1-1.8,1.7c-0.2,0.2-0.4,0.4-0.6,0.6c0,0.1-0.1,0.1-0.1,0.2C54.4,21,54.2,21.1,54.1,20.7z
		 M54.7,22.2c0-0.2-0.1-0.4-0.2-0.5c-0.1-0.2,0.4-0.2,0.5-0.3c0.1,0,0.1,0,0.3-0.1c0,0,1.8-0.7,2.2-0.8c0.1,0,0.4-0.2,0.5-0.3
		l0.2-0.2v0c0.3-0.1,0.2,0.3,0.3,0.4c0.1,0.2,0.1,0.4,0.2,0.6c0.1,0.3-0.1,0.3-0.1,0.3c-0.1,0-0.2-0.1-0.3,0
		c-0.4,0.1-2.6,0.9-2.6,0.9c-0.1,0-0.2,0.1-0.3,0.1c-0.2,0.1-0.2,0.3-0.4,0.4C54.8,22.8,54.7,22.3,54.7,22.2z M55.7,25.8
		c0.2-0.4,0.5-0.8,0.9-1.1c0.1-0.1,0.8-0.6,0.3-0.7c-0.1,0-0.7,0.2-0.9,0.2c-0.1,0-0.3,0.1-0.4,0.2c-0.1,0.1-0.3,0.2-0.3,0.1
		c-0.1-0.4-0.1-0.8-0.3-1.2c-0.1-0.2,0.2-0.3,0.3-0.2c0.1,0.1,0.3,0.1,0.5,0.1c0.4-0.1,2.2-0.5,2.4-0.6c0.1,0,0.2-0.1,0.3-0.1
		c0.1-0.1,0.2-0.1,0.2-0.2l0.1-0.1l0,0l0,0v0l0,0l0,0h0l0,0l0,0l0,0l0,0l0,0h0c0.1,0,0.1,0,0.2,0.2c0.1,0.3,0.1,0.5,0.2,0.8
		c0.1,0.4,0.2,0.7,0.2,1.1c0,0.4-0.3,0.7-0.6,0.9c-0.3,0.1-0.7,0.2-1,0.1l-0.4-0.2l-1.5,1.1v0l0,0l-0.2,0.1
		C55.5,26.3,55.6,26,55.7,25.8z M55.9,26.6L55.9,26.6c0.2,0.1,0.1,0.1,0.2,0.2c0.3,0.1,1.6,0,1.9-0.2c0.2-0.1,1.1,0,1.3-0.1
		c0.1,0,0.2-0.1,0.3-0.2c0.1-0.1,0.2,0,0.2,0c0,0,0,0.1,0.1,0.4c0,0.6,0.1,1.2,0.1,1.9c0,0.1,0.1,0.2,0,0.3l-0.7,0.2
		c-0.4,0-0.2-0.2-0.2-0.2c0.1-0.2,0.3-0.3,0.4-0.5c0.1-0.2,0.2-0.8,0-0.9c-0.4,0-0.7,0-1.1,0.1c-0.2,0-0.2,0-0.2,0.2
		c0,0.1-0.1,0.2,0.3,0.6c0,0,0.1,0.1-0.1,0.1c-0.2,0-0.7,0.2-0.9,0.2c-0.2,0-0.2-0.1-0.1-0.2c0.2-0.2,0.3-0.2,0.3-0.5
		c0-0.1,0-0.2,0-0.3c-0.4,0-0.8,0.1-1.2,0.1c-0.2,0-0.4,0-0.3,0.3c0,0.3,0.4,1,0.9,1.2c0.2,0.1,0.1,0.2-0.2,0.2c-0.2,0-1-0.1-1-0.1
		l-0.1,0c0-0.1,0-0.1,0-0.2c0-0.2,0-0.4,0-0.6c0-0.4-0.1-0.9-0.1-1.3C55.7,27,55.7,26.6,55.9,26.6z M59.9,31.2
		c0,0.1-0.1,0.5-0.1,0.7c0,0.2,0,0.3-0.1,0.4c0,0-0.7,0.2-0.9,0.2c-0.2,0-0.1-0.2-0.1-0.2c-0.1,0,0.5-0.4,0.7-0.6
		c0.2-0.3,0.4-1.1-0.1-1.2c-0.1,0-0.2,0-0.3,0.1c-0.4,0.3-0.3,0.7-0.6,1.3c-0.2,0.5-0.5,0.9-1.1,0.9c-0.3,0-0.7,0-1-0.2
		c-0.5-0.3-0.7-1-0.5-1.6c0.1-0.3,0.2-0.7,0.1-0.9l1.3-0.2c0.2-0.1,0,0.1,0,0.1c-0.2,0.1-0.3,0.3-0.6,0.5c-0.4,0.3-1,1.4,0.1,1.7
		c0.5,0,0.7-0.4,0.8-0.8c0.2-0.5,0.4-1.1,0.8-1.4c0.2-0.2,0.8-0.2,0.8-0.2C59.8,29.9,60,30.7,59.9,31.2z"/>
	<path class="st0" d="M3,35.1c-0.3,0.1-0.8,0.2-0.6,0.9c0.1,0.2,0,0.5-0.1,0.7c-0.1,0.3-0.1,0.6,0,0.9c0,0.1,0.1,0.3,0.1,0.4
		c0,0.1-0.4,0.8,0.8,1.9l0-0.2h0c-0.1-0.3-0.6-1.2-0.6-1.3c0-0.1,0.1-0.4,0-0.8c0-0.2-0.2-0.3-0.2-0.5c0-0.2,0.1-0.2,0.1-0.4
		c0.1-0.3,0.1-0.8,0.1-0.8c0,0,0.1-0.2,0.2-0.1c0,0,0,0.6-0.1,0.9c-0.1,0.1-0.1,0.2-0.1,0.4c0,0.1,0,0.3,0.1,0.4
		c0,0.1,0.1,0.5,0.1,0.7c0,0.1,0,0.2,0,0.3c0,0,0.1,0.5,0.3,0.6c-0.1-0.3,0.3-0.6,0.5-0.7c-0.2-0.6-0.1-2.2-0.1-2.5
		c0-0.2,0-0.5,0.1-0.7C3.5,35.2,3,35.2,3,35.1z"/>
	<path class="st0" d="M52.1,10.6c-0.1-0.8-1.4,0.3-1.6,0.5c-0.3,0.3-0.6,0.5-0.9,0.8c-0.1,0.2-0.3,0.4-0.2,0.6
		c0.1,0.2,0.3,0.4,0.5,0.4c0.1,0,0.2-0.1,0.3-0.1c0.1-0.1,0.2-0.1,0.3-0.2c0.1-0.1,0.2-0.2,0.3-0.3c0.3-0.3,0.6-0.6,0.9-0.9
		C51.9,11.2,52.1,10.9,52.1,10.6z"/>
	<path class="st0" d="M4,36.6c0.1,0,0.1-0.1,0.2-0.2c0.1-0.1,0.2-0.2,0.3,0c0.1,0.1,0.1,0.1,0,0.2c-0.1,0.1-0.1,0.1-0.1,0.1l0,0l0,0
		c0,0-0.1,0.1-0.1,0.1c-0.2,0.2-0.4,0.4-0.5,0.6c0,0.2,0.1,0.5,0.1,0.7c0.1,0.2,0.3,0.4,0.4,0.5c0-0.4,0.4-0.8,0.6-1.1
		C5,37.4,5,37.4,5,37.4c0.3,0.2-0.7,0.9-0.6,1.4l0,0l0.1,0c0.1,0.1,0.3,0.2,0.4,0.3c0-0.4,0.3-0.8,0.4-1.2c0.1-0.2,0.4-0.4,0.4-0.6
		c-0.7-0.8-0.8-1.6-0.9-1.9c-0.2-0.1-0.8-0.1-0.9-0.2c-0.1,0.1-0.2,0.3-0.2,0.5c0,0.4,0,0.7,0,1.1C3.8,36.8,3.9,36.7,4,36.6z"/>
	<polygon class="st0" points="38.9,9.2 38.9,9.2 38.9,9.2 	"/>
	<polygon class="st0" points="42.7,7.7 42.7,7.7 42.6,7.8 	"/>
	<polygon class="st0" points="56.9,18.5 56.9,18.5 56.9,18.5 	"/>
	<polygon class="st0" points="55.3,18.7 55.3,18.7 55.3,18.7 55.3,18.7 	"/>
	<polygon class="st0" points="56.9,18.5 56.9,18.5 56.9,18.5 56.9,18.5 57,18.5 	"/>
	<path class="st1" d="M37.2,28.3c0.1,0,0.2-0.1,0.2-0.2c0,0-0.1-0.1-0.2-0.1C37,27.9,37,28,37,28.1C37,28.2,37.1,28.3,37.2,28.3z"/>
	<path class="st1" d="M30.7,44.9c1-1,1.2-2.4,1.1-2.7l-0.2,0.1c-0.1,0.3-0.3,0.8-1.1,1.2c0,0,0.7,0,1.1-0.7c0,0.1-0.2,0.8-1.1,2.1
		C30.5,44.9,30.5,45.1,30.7,44.9z"/>
	<path class="st1" d="M40.3,22.7c0.3,0,0.4-0.2,0.4-0.4c0-0.1-0.2-0.4-0.4-0.3c-0.2,0.1-0.4,0.2-0.4,0.5
		C39.9,22.7,40.1,22.7,40.3,22.7z"/>
	<path class="st1" d="M5,30.1c-0.3-0.2-1.7-0.3-2.1-0.3c-0.4,0-1.2-0.1-1.3-0.1c-0.1,0-0.2,0-0.3-0.1c-0.1-0.1-0.1-0.1-0.2-0.1
		l-0.2,0.1h0c-0.1,0.1,0,0.2,0,0.3c0,0.2,0,0.4,0,0.5c0,0.1,0.1,0.1,0.2,0.1c0,0,0.2-0.2,0.4-0.2c0.7,0,2.5,0,2.8,0.1
		c0.5,0.1,0.5,0.8,0.2,1.1l0,0c0,0-0.2,0.1-0.3,0.1c-0.8,0-1.7,0-2.5,0c-0.1,0-0.2,0-0.3-0.1c-0.1-0.1-0.1-0.1-0.2-0.1v0l0,0l-0.1,0
		c-0.2,0.1-0.1,0.4-0.1,0.6c0,0.1,0,0.9,0.1,0.9c0.1,0,0.2-0.2,0.3-0.2c0.2-0.1,1.5-0.1,1.9-0.1c0.5,0,1.1,0,1.6-0.3
		c0.3-0.2,0.3-0.6,0.3-0.9C5.3,30.9,5.4,30.4,5,30.1z M4.5,32.4c0.2,0,0.3-0.1,0.4-0.1C4.8,32.4,4.6,32.4,4.5,32.4z"/>
	<path class="st1" d="M5,26.1c-0.1,0-0.9-0.1-1.2-0.2c-0.6-0.1-1.2-0.2-1.8-0.3c-0.1,0-0.2-0.1-0.2-0.2c0-0.1-0.1-0.2-0.2-0.2h0
		l-0.1,0.1l0,0v0c-0.1,0.1-0.1,0.2-0.1,0.4c0,0.2,0,0.4-0.1,0.5c0,0.1,0,0.2,0.1,0.2v0l0,0l0.1,0c0.1,0,0.1-0.1,0.2-0.1
		c0.1,0,1.5,0.1,1.4,0.2c0.1,0-1.1,0.6-1.4,0.8c-0.2,0.1-0.4,0.2-0.5,0.3C1.1,27.6,1,28.2,1,28.4c-0.1,0.2,0.1,0.2,0.1,0.2h0
		l0.4-0.2c0.1-0.1,0.3,0,0.4,0c0.7,0.1,2.8,0.2,2.9,0.2l0.1,0.1C4.9,29,5,29,5,29c0.1,0.1,0.1-0.2,0.2-0.3c0-0.3,0.1-0.5,0.1-0.8
		c0-0.1-0.2,0-0.2,0c0,0-0.1,0.2-0.2,0.2c-0.1,0-0.3,0-0.4,0c-0.3,0-1.8-0.2-1.9-0.3c0.5-0.3,2.7-1.5,2.7-1.5v0l0,0
		C5.5,26.1,5,26.1,5,26.1z M1.5,26.3L1.5,26.3l0.2-0.1L1.5,26.3z"/>
	<path class="st1" d="M50.2,8.8l0.3-0.1c0.1,0,0.1-0.1,0-0.2c-0.2-0.2-0.5-0.3-0.6-0.5c-0.1-0.1-0.2-0.1-0.2-0.1c0,0-0.3,0-0.2,0.3
		c0.1,0.2,0,0.5-0.1,0.6c-0.2,0.3-0.4,0.6-0.6,0.9c-0.1-0.1,0.1-1.4,0.1-1.8c0-0.2,0.1-0.6-0.1-0.8c-0.1-0.1-0.7-0.5-0.9-0.6
		l-0.1,0.1c0,0.1,0,0.1,0,0.2c0,0.1,0,0.2-0.1,0.4c0,0.2-0.1,0.3-0.2,0.4c-0.2,0.2-1.1,1.4-1.4,1.7c-0.2,0.2-0.4,0.3-0.6,0.5l0,0
		c0,0-0.2,0.1,0.2,0.3c0.2,0.1,0.3,0.2,0.5,0.3c0.3,0.3,0.4,0,0.4-0.1c0-0.2,0-0.4,0.1-0.6c0.4-0.5,0.8-1.1,1.1-1.6c0,0,0,0.3,0,0.4
		c0,0.4-0.3,2.3-0.3,2.9c0,0.2,0.2,0.4,0.3,0.3l0.1-0.1c0.1-0.2,0.1-0.4,0.2-0.6c0-0.1,0.1-0.1,0.2-0.2c0.5-0.5,1-1.1,1.5-1.6
		C49.8,8.9,50,8.8,50.2,8.8z"/>
	<path class="st1" d="M5.8,23.9c0,0-0.4,0.2-0.8,0c-0.4-0.1-2.2-0.4-2.5-0.7C2.4,23.2,2.2,22.9,2,23c0,0-0.1,0-0.2,0.5
		c-0.1,0.3-0.1,0.6-0.2,0.9c0,0.1,0.1,0.1,0.1,0.1c0.1,0,0.1-0.1,0.1-0.1l0,0h0c0,0,0.1,0,0.1,0c0.1,0,2.5,0.4,2.9,0.6
		c0.2,0.1,0.3,0.3,0.4,0.4c0.1,0.1,0.2-0.2,0.2-0.3c0-0.2,0.1-0.4,0.1-0.6c0-0.1,0.1-0.2,0.1-0.3C6,23.9,5.9,23.9,5.8,23.9z"/>
	<path class="st1" d="M55.3,22.3c0.1,0,0.2-0.1,0.3-0.1c0,0,2.2-0.8,2.6-0.9c0.1,0,0.2,0.1,0.3,0c0,0,0.2,0,0.1-0.3
		c-0.1-0.2-0.1-0.4-0.2-0.6c0-0.2,0-0.5-0.3-0.4v0l-0.2,0.2c0,0-0.4,0.2-0.5,0.3c-0.4,0.2-2.2,0.8-2.2,0.8c-0.2,0-0.2,0-0.3,0.1
		c-0.1,0-0.6,0-0.5,0.3c0.1,0.2,0.1,0.4,0.2,0.5c0,0.1,0.2,0.6,0.3,0.5C55.1,22.6,55.2,22.4,55.3,22.3z M55.3,22.3L55.3,22.3
		L55.3,22.3L55.3,22.3z"/>
	<path class="st1" d="M14.6,10.3L14.6,10.3c-0.2,0-0.4-0.1-0.5-0.2c-0.4-0.5-1.7-1.8-1.8-2C12.1,8,12.1,7.8,12,7.6l-0.1,0l0,0
		c0,0-0.5,0.3-1,0.8c-0.1,0.1-0.1,0.1-0.1,0.2c0,0.1,0.2,0.1,0.3,0.1c0.2,0,0.3,0.1,0.3,0.2c0.6,0.5,1.2,1.1,1.7,1.7
		c0.1,0.2,0.2,0.4,0.3,0.6c0.1,0.3,0.3,0.1,0.3,0.1v0c0.3-0.3,0.8-0.6,0.9-0.7C14.6,10.5,14.8,10.4,14.6,10.3z"/>
	<path class="st1" d="M52.7,11.3c0.1-0.6-0.3-1.1-0.8-1.4c-0.8-0.4-1.7,0.2-2.3,0.7c-0.4,0.4-0.7,0.9-0.8,1.4
		c-0.1,0.6,0.3,1.1,0.8,1.4c0.8,0.4,1.7-0.2,2.2-0.7C52.2,12.3,52.6,11.9,52.7,11.3z M50.8,12.3c-0.1,0.1-0.2,0.2-0.3,0.3
		c-0.1,0.1-0.2,0.2-0.3,0.2c-0.1,0-0.2,0.1-0.3,0.1c-0.2,0-0.4-0.2-0.5-0.4c-0.1-0.2,0.1-0.5,0.2-0.6c0.2-0.3,0.6-0.5,0.9-0.8
		c0.2-0.2,1.5-1.3,1.6-0.5c0,0.3-0.3,0.6-0.4,0.8C51.4,11.7,51.1,12,50.8,12.3z"/>
	<path class="st1" d="M10.4,14c-0.2,0-1.3-0.1-1.7-0.2c-0.2,0-0.2,0-0.2-0.2c0-0.2-0.1-0.5-0.3-0.6c-0.4-0.3-0.9-0.4-1.3-0.1
		c0,0-0.4,0.2-1,1.3c-0.1,0.2-0.2,0.3-0.3,0.5c-0.2,0.3,0.1,0.2,0.3,0.2c0.3,0,0.6,0.3,0.9,0.4c0.5,0.4,1.1,0.7,1.6,1.1
		c0.1,0.1,0.2,0.3,0.3,0.4c0,0,0,0.3,0.1,0.2h0v0c0.1,0,0.6-0.8,0.8-1.1c0.2-0.3-0.2-0.2-0.4-0.3c-0.2-0.1-0.3-0.2-0.5-0.3
		c-0.2-0.1-0.8-0.4-0.4-0.7c0.2-0.1,0.6-0.1,0.9-0.1c0.4,0,0.9-0.1,1.3-0.2c0.2-0.1,0.4-0.2,0.4-0.3C10.9,13.9,10.5,14,10.4,14z
		 M7.6,14.7c-0.1,0-0.3-0.2-0.5-0.3c-0.2-0.1-0.3-0.2-0.5-0.3c-0.1-0.1-0.2-0.2-0.1-0.3c0.1-0.1,0.2-0.2,0.3-0.3
		c0.3-0.1,0.7,0.2,0.9,0.4C8,14.1,7.8,14.5,7.6,14.7z"/>
	<polygon class="st1" points="58.7,22.4 58.7,22.4 58.7,22.4 	"/>
	<polygon class="st1" points="58.8,22.3 58.8,22.3 58.8,22.3 	"/>
	<path class="st1" d="M55.9,26.3L55.9,26.3L55.9,26.3l1.5-1.1l0.4,0.2c0.3,0.1,0.7,0.1,1-0.1c0.4-0.2,0.6-0.5,0.6-0.9
		c0-0.4-0.1-0.8-0.2-1.1c-0.1-0.3-0.1-0.5-0.2-0.8c-0.1-0.1-0.1-0.2-0.2-0.2h0l0,0l0,0h0l0,0l0,0l-0.1,0.1c0,0.1-0.1,0.2-0.2,0.2
		c-0.1,0-0.2,0.1-0.3,0.1c-0.1,0-2,0.5-2.4,0.6c-0.2,0-0.4,0-0.5-0.1c-0.1-0.1-0.4,0-0.3,0.2c0.2,0.3,0.2,0.8,0.3,1.2
		c0,0.1,0.2,0,0.3-0.1c0.1-0.1,0.3-0.2,0.4-0.2c0.2-0.1,0.8-0.3,0.9-0.2c0.4,0.1-0.2,0.6-0.3,0.7c-0.4,0.3-0.7,0.7-0.9,1.1
		c-0.1,0.2-0.2,0.5,0.1,0.5L55.9,26.3z M58.6,23.5c0.2,0,0.3,0,0.3,0.2c0.1,0.2,0.1,0.4-0.1,0.6c-0.1,0-0.2,0.1-0.3,0.1l-0.2,0
		c-0.2,0-0.3,0-0.5,0c-0.2-0.1-0.4-0.5-0.3-0.7C57.9,23.7,58.3,23.6,58.6,23.5z M57.6,23.7L57.6,23.7L57.6,23.7L57.6,23.7z
		 M57.6,23.8L57.6,23.8L57.6,23.8L57.6,23.8z"/>
	<path class="st1" d="M11.2,10.7c-0.5,0-1.7,0.7-1.8,0.7c-0.2,0.1-0.5,0.1-0.7-0.1c-0.2-0.2,0-0.6,0.3-0.7c0.2-0.1,0.5-0.1,0.8-0.2
		c0.2,0,0.5,0,0.7-0.2c0.2-0.2-0.5-0.4-0.6-0.5C9.8,9.7,9.6,9.7,9.6,9.7C9.5,9.6,9.5,10,9.3,10.1c-0.1,0-0.6,0.4-0.8,0.5
		C8.2,11,8,11.6,8.5,12c0.4,0.4,1,0.3,1.5,0.2c0,0,0.7-0.4,0.9-0.5c0.5-0.2,0.9-0.3,0.9,0.2c0,0.3-0.2,0.6-0.4,0.8
		c-0.4,0.3-0.8,0.4-1.3,0.5c-0.1,0-0.2,0-0.3,0.1v0c0,0-0.1,0.1,0,0.2c0.2,0.1,0.5,0.2,0.7,0.3c0.1,0,0.3,0.2,0.4,0.1l0.1-0.1
		c0.1-0.2,0.3-0.4,0.5-0.6c0.3-0.2,0.5-0.4,0.6-0.7c0.1-0.3,0.2-0.6,0.2-0.8C12.3,11,11.8,10.7,11.2,10.7z"/>
	<path class="st1" d="M53.8,14.6c-0.1-0.4-0.3-0.8-0.3-1.2c0-0.1,0-0.2,0.1-0.2c0.5-0.2,0.7,0.6,0.7,0.9c0,0.2,0,0.5-0.1,0.7
		c0,0.1-0.1,0.2,0,0.2c0.2,0,0.8-0.6,0.9-0.6c0.2-0.2-0.2-0.4-0.2-0.6c-0.1-0.1-0.1-0.2-0.2-0.4c0-0.1-0.1-0.2-0.1-0.2
		c-0.3-0.4-0.9-0.9-1.5-0.6L53,12.7c0,0-0.4,0.3-0.5,0.7c0,0.5,0.1,1,0.2,1.4c0.1,0.4,0.1,0.8-0.2,1.1c-0.7,0.3-1-0.8-1-1.2
		c0-0.3,0.1-0.6,0.1-0.9c0-0.1-0.1-0.2-0.2-0.1c0,0-0.5,0.5-0.7,0.7c-0.1,0.2-0.3,0.3-0.1,0.4c0.3,0.2,0.4,0.5,0.5,0.8
		c0.2,0.6,0.7,0.9,1.3,0.9c0.3,0,0.7-0.2,0.9-0.5C53.8,15.6,53.9,15.1,53.8,14.6z"/>
	<path class="st1" d="M51.5,13.6L51.5,13.6C51.5,13.6,51.5,13.6,51.5,13.6L51.5,13.6z"/>
	<path class="st1" d="M59.1,29.9c0,0-0.6,0-0.8,0.2c-0.4,0.3-0.6,1-0.8,1.4c-0.1,0.4-0.3,0.7-0.8,0.8c-1-0.4-0.5-1.4-0.1-1.7
		c0.3-0.2,0.4-0.4,0.6-0.5c0,0,0.2-0.2,0-0.1l-1.3,0.2c0.1,0.2,0.1,0.6-0.1,0.9c-0.2,0.6,0,1.3,0.5,1.6c0.3,0.2,0.7,0.2,1,0.2
		c0.6-0.1,0.9-0.5,1.1-0.9c0.3-0.6,0.2-1,0.6-1.3c0.1-0.1,0.2-0.1,0.3-0.1c0.5,0.1,0.3,1,0.1,1.2c-0.1,0.2-0.7,0.6-0.7,0.6
		c0,0-0.1,0.2,0.1,0.2c0.2,0,0.8-0.2,0.9-0.2c0.2-0.1,0.1-0.2,0.1-0.4c0-0.1,0.1-0.6,0.1-0.7C60,30.7,59.8,29.9,59.1,29.9z"/>
	<path class="st1" d="M15.9,5.9c-0.5-0.3-1-0.2-1.5,0h0C14.2,6,13,6.7,12.9,6.8C12.9,6.9,13.1,7,13.1,7c0.3,0.1,0.5,0.3,0.7,0.5
		c0.2,0.3,0.4,0.6,0.7,1C14.7,8.8,14.8,9,15,9.3c0,0.1,0.1,0.2,0.1,0.4c0,0.1,0,0.2,0.1,0.3l0.1,0c0.1-0.1,0.3-0.2,0.4-0.3
		c0.2-0.1,1-0.7,1.1-0.9C16.9,8.4,17,8,17,7.6C16.9,7,16.4,6.3,15.9,5.9z M16.1,8.8c-0.2,0.1-0.3-0.1-0.4-0.3
		c-0.2-0.2-0.3-0.5-0.5-0.7c-0.3-0.4-0.5-0.8-0.8-1.2c-0.2-0.2-0.1-0.2,0-0.3c0.4-0.2,0.6,0.1,0.8,0.4C15.6,7,15.8,7.4,16,7.7
		C16.2,8.1,16.4,8.5,16.1,8.8z"/>
	<path class="st1" d="M22.8,2.3c-0.5-0.1-1.1,0.1-1.6,0.2c-0.2,0.1-0.5,0.1-0.6,0.3c-0.1,0.1,0,0.1,0,0.2c0.2,0.1,0.3,0.2,0.4,0.4
		c0.2,0.8,0.4,1.6,0.7,2.4c0,0.1,0,0.3,0,0.4c0,0.1-0.1,0.2,0,0.3c0.1,0.1,0.6-0.1,0.7-0.1c0.4-0.1,0.8-0.2,1.1-0.4
		c1.1-0.6,0.9-1.9,0.4-2.8C23.6,2.7,23.3,2.4,22.8,2.3z M22.9,5.7c-0.3,0.1-0.3-0.2-0.3-0.4c-0.1-0.3-0.2-0.6-0.3-0.9
		C22.2,4,22,3.5,21.9,3c0-0.1,0-0.2,0.1-0.3c0.8-0.3,1,1.2,1.2,1.7C23.2,4.8,23.3,5.4,22.9,5.7z"/>
	<path class="st1" d="M28.8,1.1c-0.6-0.1-1.2,0-1.8,0.1c-0.1,0-0.5,0.1-0.4,0.3c0,0.1,0.1,0.1,0.2,0.2C26.9,1.8,27,1.9,27,2
		c0.1,0.3,0.1,0.7,0.2,1c0.1,0.5,0.1,1,0.1,1.4c0,0.1,0,0.2,0,0.4c0,0.1-0.1,0.2-0.1,0.2c-0.1,0.1,0.2,0.2,0.2,0.2
		C28,5.1,28.5,5.1,29,5c0.1,0,0.3-0.1,0.4-0.2c0.1,0,0.2-0.1,0.2-0.2c0.4-0.4,0.5-0.9,0.5-1.5c0-0.5-0.1-1-0.4-1.5
		C29.6,1.3,29.2,1.2,28.8,1.1z M28.1,1.5L28.1,1.5L28.1,1.5L28.1,1.5z M28.7,4.6c-0.3,0.1-0.3-0.2-0.3-0.4c0-0.3-0.1-0.6-0.1-0.9
		c-0.1-0.5-0.1-1.1-0.2-1.6l0-0.2C29,1.2,29,3,29,3.4C29,3.8,29,4.3,28.7,4.6z"/>
	<path class="st1" d="M20.8,6.3c-0.2-0.1-1.5-1.6-2-2.2c-0.1-0.1-0.1-0.3-0.1-0.5c0-0.1-0.7,0.2-0.8,0.2c-0.1,0-0.5,0.2-0.6,0.3
		l0.1,0.3c0.1,0.2,0.1,0.4,0.2,0.6c0.1,0.4,0.1,0.9,0.2,1.3c0,0.3,0,0.7,0.1,1c0,0.2,0,0.4-0.1,0.6c0,0.1-0.2,0.2-0.1,0.3
		c0,0.1,0.2,0,0.2,0l0,0C17.9,8.2,18,8.1,18.2,8c-0.1,0.1-0.2,0.1-0.3,0.2l0,0c0.2-0.2,0.8-0.4,0.8-0.4c0.1,0,0.2-0.1,0.2-0.2
		c0-0.1-0.3-0.2-0.4-0.3c-0.1-0.1-0.1-0.4,0-0.5c0.2-0.1,0.8-0.3,0.9-0.3c0.1,0,0.4,0.3,0.3,0.4c0,0.1,0,0.1,0,0.2
		c0,0.1,0,0.2,0.1,0.2c0.1,0,1.2-0.6,1.3-0.6C21.4,6.5,20.9,6.4,20.8,6.3z M18.9,6.1c0,0-0.4,0.2-0.5,0.2c-0.1,0-0.2,0-0.2,0L18.2,6
		c0-0.3-0.1-1-0.1-1c0.2,0.1,0.7,0.7,0.8,0.8C19,5.9,19.1,6,18.9,6.1z"/>
	<path class="st1" d="M17.9,8.3C17.9,8.2,17.9,8.2,17.9,8.3L17.9,8.3C17.9,8.2,17.9,8.3,17.9,8.3z"/>
	<path class="st1" d="M55.1,20.2c0.6-0.5,1.8-1.6,1.8-1.7l0,0l0,0l0,0c0,0,0.5-0.1,0.5-0.1l0,0l0,0h0c0.2-0.2-0.5-1-0.5-1.2
		c0-0.1-0.2-0.1-0.1-0.1c0,0-0.2,0-0.4,0.3l-0.3,0.1c-0.7,0.1-2.5,0.3-2.7,0.3c-0.2,0-0.4-0.1-0.7,0l-0.1,0
		c-0.1,0.1,0.1,0.2,0.1,0.3c0.1,0.1,0.2,0.4,0.2,0.4c0,0.1,0.2,0.1,0.3,0l0.3-0.2c0.2-0.1,0.3-0.1,0.5-0.2c0.2,0,0.2,0,0.3,0.1
		c0.1,0.2,0.2,0.4,0.3,0.5c0.1,0.1,0.1,0.2,0.1,0.3c0,0.1-0.6,0.4-0.7,0.5l-0.2,0h0c0,0-0.1,0-0.1,0.2c0,0.1,0.1,0.2,0.2,0.3
		c0.1,0.2,0.1,0.4,0.2,0.6c0.1,0.4,0.3,0.2,0.3,0.2c0-0.1,0.1-0.1,0.1-0.2C54.6,20.6,54.9,20.4,55.1,20.2z M56.9,18.5L56.9,18.5
		L56.9,18.5L56.9,18.5L56.9,18.5L56.9,18.5z M55.3,18.7L55.3,18.7L55.3,18.7L55.3,18.7L55.3,18.7z M55,18c0.1,0,0.9,0,0.9,0
		c0,0,0.2,0,0.1,0.2l-0.6,0.6l0,0l0,0l0,0l-0.2,0C55,18.6,55,18.4,55,18.3C54.9,18.2,54.9,18.1,55,18z M53.5,18.3L53.5,18.3
		L53.5,18.3L53.5,18.3z"/>
	<path class="st1" d="M7.3,16.9c-0.1,0.1,0.1,0.4,0.2,0.5c0.1,0.2,0.1,0.4,0.1,0.6c0,0.2,0,0.6-0.2,0.7c-0.1,0-1.2-0.6-1.3-0.7
		c0,0,0.1-0.4,0.4-0.4c0.1,0,0.4,0,0.4-0.1C7,17.4,6,17,5.7,16.9c-0.2-0.1-0.1,0.4,0,0.5c0,0.1,0.1,0.3-0.1,0.5
		c-0.3-0.1-1-0.5-1.1-0.6c-0.1,0,0.3-0.7,0.4-0.8c0.2,0,0.6-0.1,0.7-0.2c0.2-0.1,0-0.2-0.1-0.2c-0.2,0-0.4,0-0.6-0.1
		c-0.1,0-0.2,0-0.2,0c-0.2,0.1-0.7,1.3-0.9,1.6c0,0.1-0.4,0.6-0.1,0.6l0.1-0.1c0.1,0,0.1-0.1,0.2,0c0.3,0,0.6,0.2,0.9,0.4
		c0.5,0.3,0.9,0.5,1.4,0.8h0c0.1,0.1,0.5,0.3,0.5,0.4C7,19.9,6.9,20,7.1,20L7.2,20l1.2-2.2C8.4,17.8,7.5,16.5,7.3,16.9z"/>
	<path class="st1" d="M45.7,8.3c-0.2,0-0.4,0.2-0.5,0.2c-0.4,0.1-0.8,0-1.1-0.2c-0.3-0.1-0.2-0.3-0.1-0.5c0.2-0.3,0.4-0.7,0.6-1
		c0.1,0,0.2,0.1,0.3,0.2c0.2,0.2,0.2,0.3,0.3,0.6c0,0.1,0.1,0.2,0.2,0.1c0.2-0.2,0.2-0.4,0.3-0.6C45.8,7,46,6.6,45.8,6.6
		c-0.1,0-0.3,0.1-0.4,0.1l-0.2,0c-0.2-0.1-0.3,0-0.4-0.2c0.2-0.3,0.4-0.6,0.6-0.9c0.2,0,0.5,0.3,0.6,0.5c0.1,0.2,0.2,0.4,0.3,0.6
		c0.1,0.2,0.3,0.1,0.3,0.1c0.1,0,0.1-0.1,0.2-0.2c0.1-0.2,0.2-0.6,0.2-0.7c0-0.1-0.3-0.2-0.3-0.2c-0.5-0.3-1.1-0.7-1.6-1
		c-0.1-0.1-0.6-0.3-0.6,0c0,0.1,0,0.2,0,0.3c0,0.2-0.1,0.4-0.2,0.6c-0.3,0.5-1.2,2-1.4,2.1c-0.4,0.1-0.4,0.1-0.4,0.2
		c-0.2,0.1,0.3,0.3,0.4,0.3c0.4,0.2,1.6,0.9,1.7,1c0.1,0.1,0.2,0.1,0.3,0.2c0,0,0.2,0,0.9-0.8C45.8,8.5,45.9,8.3,45.7,8.3z
		 M42.7,7.7L42.7,7.7L42.7,7.7L42.7,7.7z"/>
	<path class="st1" d="M55.9,29c0,0.1,0,0.1,0,0.2l0.1,0c0,0,0.8,0.1,1,0.1c0.2,0,0.3-0.1,0.2-0.2c-0.6-0.2-0.9-0.9-0.9-1.2
		c0-0.3,0.1-0.3,0.3-0.3c0.4,0,0.8-0.1,1.2-0.1c0,0.1,0,0.2,0,0.3c-0.1,0.2-0.1,0.3-0.3,0.5c-0.1,0.1-0.1,0.2,0.1,0.2
		c0.2,0,0.7-0.2,0.9-0.2c0.2,0,0.1-0.1,0.1-0.1c-0.4-0.3-0.3-0.5-0.3-0.6c-0.1-0.2,0-0.1,0.2-0.2c0.4,0,0.7-0.1,1.1-0.1
		c0.1,0.2,0,0.8,0,0.9c-0.1,0.2-0.3,0.3-0.4,0.5c0,0-0.2,0.2,0.2,0.2l0.7-0.2c0.1-0.1,0-0.2,0-0.3c0-0.6-0.1-1.2-0.1-1.9
		c0-0.3-0.1-0.4-0.1-0.4c-0.1-0.1-0.1-0.1-0.2,0c-0.1,0.1-0.1,0.1-0.3,0.2c-0.2,0.1-1.1,0-1.3,0.1c-0.2,0.1-1.6,0.2-1.9,0.2
		c-0.1-0.1-0.1-0.1-0.2-0.2l0,0l0,0h0l0,0c-0.2,0-0.2,0.4-0.2,0.5c0.1,0.4,0.1,0.9,0.1,1.3C55.9,28.6,55.9,28.8,55.9,29z M56.1,26.8
		L56.1,26.8L56.1,26.8L56.1,26.8z"/>
	<path class="st1" d="M6.4,21.3c-0.2,0-0.3,0-0.4-0.1c-0.7-0.5-1.5-1-2.2-1.7c-0.1-0.1-0.1-0.1-0.2-0.2c-0.1-0.1-0.1-0.4-0.2-0.3
		c-0.3,0.1-0.5,0.9-0.5,1.1c0,0.1,0.2,0,0.2,0c0.3-0.1,0.9,0.4,1.1,0.6c0.1,0.1,1,0.6,0.8,0.8c-0.1,0-1.7,0-1.8,0
		c-0.2,0-0.3-0.1-0.5-0.2c-0.1-0.1-0.2,0-0.2,0v0c-0.1,0-0.3,1-0.4,1.1c0,0.1,0.1,0.2,0.2,0.1c0.1-0.1,0-0.1,0.1-0.1
		c0.1,0,0.2,0,0.3,0c0.2,0,3.2-0.1,3.2,0c0.2,0.3,0.3,0.1,0.3,0.1c0.1-0.2,0.2-0.5,0.3-0.7c0-0.1,0.2-0.4,0.1-0.4
		C6.6,21.2,6.4,21.3,6.4,21.3z"/>
	<path class="st1" d="M35,7.8c-0.4-0.2-0.8-0.6-1.1-1c-0.2-0.2-0.4-0.3-0.5-0.5L33,6.1c0,0,0.3,0.5,0.5,0.7C34,7.3,34.4,7.6,34.9,8
		C34.9,8,35.1,7.9,35,7.8z"/>
	<path class="st1" d="M37.9,8.3c-0.8-0.4-1.5-1-2.2-1.5c-0.3-0.3-0.7-0.5-1-0.8l-0.5-0.3c0,0,0.7,0.8,1,1.1c0.8,0.7,1.7,1.3,2.7,1.8
		C37.8,8.5,38,8.3,37.9,8.3z"/>
	<path class="st1" d="M32.9,8.9c-0.2-0.2-0.3-0.3-0.5-0.4c-0.1-0.1-0.5-0.3-0.6-0.1v0C31.9,8.5,32,8.8,32,8.9c0,0.2,0,0.5,0.3,0.5
		c0.2,0,0.5-0.1,0.5-0.1l0,0c-0.3,0.1-0.5,0-0.5-0.4c0-0.3-0.2-0.4-0.2-0.5c0.2,0.2,0.3,0.1,0.7,0.6c0.1,0.1,0.4,0.3,0.6,0.2
		l0.2-0.1C33.3,9.2,33.1,9,32.9,8.9z"/>
	<path class="st1" d="M39.4,24.3c0.5,0.3,1.1,0.3,1.6,0c0.8-0.4,1-1.3,1.1-1.7L42,22.7c-0.1,0.4-0.5,1.4-1.8,1.4
		c-1.2,0.1-1.8-0.6-1.8-0.6C38.7,23.8,39,24.1,39.4,24.3z"/>
	<path class="st1" d="M40.6,27.3c0.4,0.1,1,0.3,1.3,0.7c0,0,0,0.7,0,1.2c0,0.5-0.1,1.1-0.6,1.4l0.2-0.1c0.6-0.5,0.6-1.5,0.6-2.2
		c0-0.4,0.3-0.8,0.7-1c-0.2,0.1-0.5,0.3-0.7,0.6C41.7,27.6,40.6,27.4,40.6,27.3z"/>
	<path class="st1" d="M44.6,34.2l0.1-0.2c-0.3-1.6-2.8-1.7-2.8-1.7C43.1,32.6,44,33,44.6,34.2z"/>
	<path class="st1" d="M27.8,30.5c0.4-0.1,0.9,0.4,1.2,0.7c0.5,0.6,1.1,1.3,1.5,2c0.1,0.2,0.2,0.3,0.3,0.5c0,0.1,0,0.1,0.1,0.1
		c0.2,0,0.5,0.1,0.7,0.1c0.8,0,1.4,0,2.2,0c1.2,0,2.6,0,3.7-0.2l0.1-0.2c-1.2,0-2.4,0-3.7,0c-0.7,0-1.4,0-2.2,0
		c-0.2,0-0.7,0.1-0.7,0c-0.1-0.2-0.2-0.3-0.3-0.5c-0.5-0.7-1-1.4-1.6-2c-0.3-0.4-1-0.9-1.6-0.6c-0.2,0.1-0.2,0.3-0.4,0.4
		C27.2,30.8,27.6,30.5,27.8,30.5z"/>
	<path class="st1" d="M26.1,42.2c0.9,0.4,2,0.6,2.9,0.3l0.2-0.1c-0.9,0.3-2,0.1-2.9-0.3c-1.1-0.5-2.1-1.2-2.9-2
		c-0.9-0.8-2.2-3-2.2-3c0.4,1.1,1.1,2.2,2,3.1C24,41,25,41.7,26.1,42.2z"/>
	<path class="st1" d="M30.1,45c-0.1-0.1-0.3,0-0.5-0.1c-2.8-0.2-4.9-1.7-5-1.7c1,1.1,2.4,1.7,3.8,2C29.9,45.6,30.2,45.1,30.1,45z"/>
	<path class="st1" d="M33,45.3c-0.2,1-1.4,1.5-1.4,1.5C32.8,46.7,33.1,45.8,33,45.3z"/>
	<path class="st1" d="M22.6,40.5c0.3,0.8,1,2.1,1.7,3.1c0.4,0.5,0.8,1,1.2,1.5c0.3,0.4,0.8,1,0.9,1.6l0.2,0.3c0,0,0.1-0.8-0.9-1.9
		C24.2,43.3,22.6,40.5,22.6,40.5z"/>
	<path class="st1" d="M22.7,44.9c0-0.4-0.1-0.8-0.2-1.2c-0.1-0.7-0.3-1.5-0.7-2.1l0,0c-0.1,0.1-0.2,0.1-0.3,0.2
		c0.3,0.3,0.4,0.7,0.5,1c0.1,0.5,0.2,0.9,0.3,1.4c0.1,0.6,0.2,1.2,0.2,1.8l0.1,0l0,0c0-0.1,0-0.3,0-0.4
		C22.7,45.3,22.7,45.1,22.7,44.9z"/>
	<path class="st1" d="M40.1,34.1L40.1,34.1c0.2-0.1-1.2-1.6-2.1-2l-0.1,0C39.4,33.1,40.1,34.1,40.1,34.1z"/>
	<path class="st1" d="M54.4,33.6c0,0-0.4-0.3-0.4-0.4l-0.1,0C53.7,33.3,54.1,33.5,54.4,33.6z"/>
	<path class="st1" d="M37.5,5.4L37.5,5.4c0,0.1,0.3,0.4,0.4,0.5c0.3,0.4,0.6,0.8,0.8,1.3C38.8,7.6,39,8.1,39,8.5
		c-0.3-0.5-0.7-0.9-1.1-1.3c0,0-0.2,0-0.1,0.1c0.5,0.6,0.8,1.1,1.1,1.8v0l0,0.2l0.2,0.1l0.1-0.1c0.1-0.2,0.2-0.5,0.2-0.7
		c0-0.5-0.2-1-0.5-1.5C38.6,6.7,37.5,5.4,37.5,5.4z M38.9,9.2L38.9,9.2L38.9,9.2L38.9,9.2z"/>
	<path class="st1" d="M8.2,45.8l0-0.4c0.2,0,0.7,0,0.9,0c0.5-0.2,0.6-0.7,0.5-1.1l0,0c-0.1-0.4-0.7-1.2-0.7-1.3l-0.4-0.5l-0.3,0.2
		c-0.2,0.1-0.4,0.1-0.6,0.2c-0.4,0.1-2.1,0.2-2.4,0.3c-0.2,0-0.4,0-0.6,0c-0.1,0-0.2-0.2-0.3-0.1c-0.1,0-0.1,0.1,0,0.1
		c0,0,0.4,0.4,0.4,0.8c0,0,0.6-0.4,1.1-0.2c0.1,0.2,0.6,1,0.6,1.3c-0.1,0.2-0.6,0.6-0.6,0.6l0,0.1l0,0l0.4,0.7c0,0,0.2,0.3,0.2,0
		c0-0.2,0.3-0.7,0.5-0.9C7,45.1,7.2,45,7.3,44.8L7.5,45c0.1,0.2,0.3,0.3,0.2,0.7c-0.2,0.4-0.6,1-0.7,1.3c-0.1,0.1,0.3,0.6,0.3,0.6
		c0.1,0.1,0.1,0,0.2-0.1C7.7,46.8,8.2,46.1,8.2,45.8z M7.1,44C7,44,6.9,44.2,6.7,44.3l-0.4-0.9l0.3-0.1c0.3,0,0.9-0.1,0.9,0
		C7.5,43.5,7.2,43.9,7.1,44z M7.6,44.5c0.2-0.2,1-1.3,1.1-1.2C8.7,43.4,9,43.6,9,43.9c0,0.3-0.3,0.7-0.6,0.9
		C8.1,44.8,7.7,44.7,7.6,44.5z"/>
	<path class="st1" d="M12.2,48.6c0,0,0.4-0.5,0.4-0.1c0,0,0.1,0.6,0.3,0.3c0,0,0.2-0.3,0.3-0.4c0,0,0.3,0,0-0.3L12,47
		c0,0-0.1-0.3-0.4,0l-0.2,0.2c0,0-0.3,0.2,0.1,0.3c0,0,0.3,0,0.5,0.4l-1.2,1.1c0,0-0.1,0.2-0.3,0l-0.6-0.7c0,0-0.2-0.3-0.3,0.1
		c0,0-0.1,0.5-0.6,0.6c0,0-0.3,0.1-0.5-0.4c0,0-0.1-0.2,0.4-0.7l1.4-1.3c0,0,0.3-0.3,0.5-0.1c0,0,0.3,0.2-0.2,0.7l0.3,0.3
		c0,0,0.3-0.2,0.4-0.4c0-0.1,0.3-0.6-0.3-1c0,0-0.6-0.6-1.6,0.1c0,0-1.7,1.1-1.4,2.3c0,0,0.4,1.1,1.5,1c0,0,0.4,0,0.6-0.3
		c0,0,0-0.2,0.2,0.1c0,0,0.2,0.2,0,0.3c0,0-0.3,0.4-0.6,0.5c0,0-0.3,0-0.1,0.3l0.5,0.5c0,0,0.3,0.2,0.3-0.1
		C10.3,50.6,11,49.6,12.2,48.6z"/>
	<path class="st1" d="M15.8,50.3c0,0-0.2-0.1-0.6,0.2l-1.4,0.9c0,0-0.2,0-0.2-0.2c0,0,0.3-0.9,0.3-1.1c0,0,0.3-0.9,0.1-1.1
		c0,0-0.3-0.3-0.5-0.1l-2.5,2.3c0,0-0.3,0.3-0.1,0.5l0.3,0.3c0,0,0.2,0.2,0.3-0.1c0,0,0-0.2,0.3-0.5l1-1c0,0,0.1-0.2,0.1,0l-0.5,2
		c0,0-0.1,0.5,0.3,0.4l2-1.3c0,0,0.2-0.2,0.2,0.2l-0.9,1.9c0,0-0.1,0.2,0.1,0.3l0.3,0.2c0,0,0.3,0.2,0.3-0.1l1.3-3.2
		C16,50.9,16.3,50.4,15.8,50.3z"/>
	<path class="st1" d="M18.9,52.1L18.6,52c0,0-0.3-0.2-0.5,0.2c0,0,0,0.3-0.5,0.6l-0.8,0.7c0,0-0.2,0.1-0.1-0.1l0.5-1.6
		c0,0,0.3-0.4-0.3-0.6c0,0-0.3-0.3-0.4,0.1l-1,3.3c0,0-0.2,0.3,0.1,0.4c0,0,0.2,0.1,0.2,0.2c0,0,0.3,0.1,0.5-0.1l2.6-2.5
		C19,52.5,19.3,52.3,18.9,52.1z"/>
	<path class="st1" d="M19.9,52.6c-0.2-0.2-0.1-0.1-0.1-0.1s-0.3-0.2-0.5,0.2l-1.5,2.9c0,0-0.4,0.3-0.1,0.4l0.3,0.2
		c0,0,0.2,0.2,0.4-0.1l1.5-2.9C19.8,53.1,20.1,52.7,19.9,52.6z"/>
	<path class="st1" d="M26.9,55.1c0,0-0.4-0.2-0.5,0l-1.2,1.7c0,0-0.2,0.3-0.1-0.9c0,0,0.3-0.6-0.2-0.5c0,0-0.6-0.2-0.7,0.5
		c0,0,0,0.3,0.1,0.5l0.2,1.7c0,0,0,0.3,0.2,0.3c0,0,0.2,0.1,0.5-0.2l1.8-2.7C27.1,55.4,27.3,55.2,26.9,55.1z"/>
	<path class="st1" d="M28.1,56.1c0.2-0.4,0.5,0,0.5,0c0.2,0.2,0.3-0.1,0.3-0.1c0.2-0.3,0-0.4,0-0.4c-0.4-0.3-1-0.1-1-0.1
		c-1.1,0.3-0.3,1.6-0.3,1.6c0.9,1.1,0.1,1.3,0.1,1.3c-0.7,0-0.8-0.5-0.8-0.5c-0.3-0.4-0.5,0-0.5,0l-0.2,0.3
		c-0.2,0.3,0.2,0.4,0.2,0.4c1.4,0.8,2.1,0.2,2.1,0.2c1-0.9,0.2-1.7,0.2-1.7C27.8,56.2,28.1,56.1,28.1,56.1z"/>
	<path class="st1" d="M24.8,54.7c0,0,0.1-0.3-0.3-0.4c0,0-0.2,0-0.8-0.2c0,0-0.6-0.4-0.8-0.1c0,0-0.4,0.5,0,0.6c0,0,0.3-0.1,0.4-0.1
		c0,0,0.1-0.1,0.1,0.3L22.5,57c0,0-0.1,0.4-0.5,0c0,0-0.2-0.2-0.2-0.7c0,0,0-0.6-0.2-0.8c0,0,0.4-0.1,0.7-0.5c0,0,0.3-0.5,0.2-1.1
		c0,0-0.1-0.4-0.6-0.5l-1-0.4c0,0-0.5-0.2-0.4,0.2c0,0,0,0.3-0.2,0.6l-1.2,2.4c0,0-0.2,0.3,0.1,0.4l0.5,0.2c0,0,0.2,0.2,0.3-0.1
		c0,0,0.1-0.5,0.3-0.9l0.3-0.6c0,0,0.6,0.1,0.6,1c0,0-0.1,1.2,0.7,1.4c0,0,1,0.4,1.3-0.5L24,55c0,0,0-0.3,0.2-0.3c0,0,0.1,0,0.2,0.1
		C24.5,54.8,24.8,55,24.8,54.7z M20.9,55c-0.3,0-0.2-0.3-0.2-0.3l0.5-1c0.1-0.3,0.2-0.1,0.2-0.1l0.3,0.2c0.3,0.3-0.2,1-0.2,1
		C21.4,55.1,20.9,55,20.9,55z"/>
	<path class="st1" d="M33.4,55.7c0,0-1.4-0.1-1.3,1.5c0.1,1.6,1.7,1.3,1.7,1.3s0.8-0.3,0.8-1.5C34.5,55.8,33.4,55.7,33.4,55.7z
		 M33.3,58c0,0-0.5,0.1-0.5-1c-0.1-1.1,0.5-0.9,0.5-0.9s0.6,0.1,0.6,0.9C33.9,58.1,33.3,58,33.3,58z"/>
	<path class="st1" d="M42.2,56.2c0,0-0.3-0.1-0.7-0.6c0,0-0.4-0.5-0.8-0.6c0,0,0.6-0.6,0.4-1.2c0,0,0-0.9-1.2-0.6l-0.8,0.2
		c0,0-0.2,0-0.1,0.4c0,0,0.2,2.1,0.1,2.7c0,0-0.5-0.8-0.7-0.9c0,0-0.7-1.1-0.7-1.3c0,0,0.1-0.5-0.2-0.3c0,0-0.5,0.2-0.6,0.2
		c0,0-0.4-0.1,0.1,0.4c0,0,0.2,0.1,0.8,1l1.1,1.7c0,0,0.2,0.4,0.5,0.2c0,0,0.3,0,0.3-0.4l0-1.7c0,0,0-0.4,0.5-0.1
		c0,0,0.1,0.1,0.6,0.7c0,0,0.5,0.8,1.1,0.4C42.2,56.6,42.5,56.4,42.2,56.2z M40.1,54.9c-0.3,0.2-0.2-0.1-0.2-0.1l-0.1-1
		c-0.1-0.4,0.3-0.3,0.3-0.3c0.4,0,0.4,0.7,0.4,0.7C40.6,54.7,40.1,54.9,40.1,54.9z"/>
	<path class="st1" d="M43.9,55.1l-1.3-2.5c-0.2-0.3,0.4-0.2,0.4-0.2c0.4-0.1,0-0.4,0-0.4c-0.2-0.3-0.4,0-0.4,0
		c-0.1,0.1-1.4,0.7-1.4,0.7C40.9,52.7,41,53,41,53l0.1,0.3c0.2,0.3,0.3,0,0.3,0l0.2-0.3c0.3-0.2,0.4,0,0.4,0c0,0.1,0.3,0.6,0.3,0.6
		c0.2,0.3,0,0.3,0,0.3L42,54.2c-0.4,0.2,0,0.5,0,0.5c0.2,0.2,0.6-0.2,0.6-0.2c0.3-0.2,0.3,0,0.3,0l0.3,0.6c0.2,0.4,0,0.4,0,0.4
		l-0.3,0.1c-0.4,0.1-0.2,0.5-0.2,0.5c0.1,0.3,0.5,0.1,0.5,0.1l1.1-0.6C44.4,55.4,43.9,55.1,43.9,55.1z"/>
	<path class="st1" d="M45.1,52.3c0,0-1,0-0.6-0.7c0,0,0.7-0.6,0.8,0c0,0,0,0.4,0.4,0.1c0,0,0.3-0.3,0-0.6c0,0-0.2-0.7-1.4-0.2
		c-0.9,0.4-0.5,1.3-0.5,1.3s0.1,0.7,1.5,0.7c0,0,1.1,0,0.7,0.9c0,0-0.3,0.4-0.9,0.2c0,0-0.7-0.3-0.6,0.4c0,0,0.1,0.4,1.1,0.4
		c0,0,1.5-0.2,1.2-1.5C46.8,53.3,46.7,52.3,45.1,52.3z"/>
	<path class="st1" d="M48.9,52.2c-0.3-0.1-0.4-0.3-0.4-0.3L47,50c-0.2-0.1,0-0.2,0-0.2c0.1-0.1,0.5-0.2,0.5-0.2c0.3-0.2,0-0.4,0-0.4
		c-0.2-0.3-0.4,0-0.4,0l-1.2,1c-0.3,0.2-0.2,0.4-0.2,0.4l0.1,0.3c0.2,0.2,0.3-0.1,0.3-0.1c0-0.1,0.2-0.3,0.2-0.3
		c0.2-0.2,0.3,0,0.3,0l1.3,1.8c0.2,0.2,0.3,0.7,0.3,0.7c0.1,0.4,0.5,0.1,0.5,0.1l0.3-0.2C49,52.5,49.2,52.4,48.9,52.2z"/>
	<path class="st1" d="M49.5,47.9c0,0-0.2-0.2-0.2-0.7c0,0,0-0.4-0.3-0.1l-0.4,0.4c0,0-0.3,0.4,0,0.5c0,0,0.2-0.1,0.4,0.4l1,2.1
		c0,0,0.1,0.1-0.1,0.1l-1.5-0.8c0,0-0.3-0.2-0.5,0.1c0,0-0.4,0.3,0.2,0.5l2,0.9c0,0,0.1,0.2,0.3,0l0.2-0.2c0,0,0.2-0.1,0-0.5
		L49.5,47.9z"/>
	<path class="st1" d="M50.9,45.7c0,0-0.7-0.1-1.1,0.5c0,0-0.2,0.3-0.3,0.3c0,0-0.3,0.3,0.1,0.5c0,0,0.5,0.2,2,1.9c0,0,0.1,0,0.2,0.5
		c0,0,0.1,0.6,0.5,0.2l0.9-1.1c0,0,0.4-0.8-0.3-1.4C53,47,51.8,45.7,50.9,45.7z M52.4,48.6l-1.9-1.7c-0.5-0.2-0.1-0.5-0.1-0.5
		c0.3-0.3,0.9,0.1,0.9,0.1c0.6,0.4,1.3,1.2,1.3,1.2C52.9,48.1,52.4,48.6,52.4,48.6z"/>
	<path class="st1" d="M54.4,46.4c0,0-0.2,0-0.8-0.4c0,0-1.5-1.2-1.8-1.3c0,0-0.4-0.6-0.7-0.1c0,0-0.3,0.3,0.2,0.4l2.6,1.9
		c0,0,0.2,0.3,0.4,0.1l0.2-0.2C54.5,46.8,54.8,46.5,54.4,46.4z"/>
	<path class="st1" d="M57,41.5l-2.8-0.7c0,0-0.7-0.3-0.8,0c0,0-0.2,0.2,0.2,0.6l0.6,0.6c0,0,0.3,0.2-0.1,0.2l-0.8-0.2
		c0,0-0.4-0.2-0.5,0.2c0,0-0.3,0.2,0.2,0.7c0,0,1.6,1.5,1.7,1.7c0,0-0.5-0.1-2.3-0.9c0,0-0.4-0.5-0.6,0.1c0,0-0.3,0.3,0.3,0.5l3,1.1
		c0,0,0.4,0.1,0.5-0.1c0,0,0.3-0.3,0-0.6l-1.7-1.8c0,0-0.2-0.1,0.1-0.1l1.5,0.4c0,0,0.4,0,0.2-0.3l-1.2-1.3c0,0,2.4,0.4,2.4,0.8
		c0,0,0.3,0.3,0.4-0.1l0.1-0.3C57.3,41.9,57.6,41.5,57,41.5z"/>
	<path class="st1" d="M25.5,2.7c-0.4,0-0.6,0.3-0.6,0.6c0,0.3,0.3,0.6,0.6,0.5c0.3,0,0.6-0.3,0.6-0.6C26.1,3,25.9,2.8,25.5,2.7z"/>
	<path class="st1" d="M34.8,2.5c-0.4,0-0.6,0.3-0.6,0.6c0,0.3,0.3,0.6,0.6,0.5c0.3,0,0.6-0.3,0.6-0.6C35.4,2.7,35.1,2.5,34.8,2.5z"
		/>
	<path class="st1" d="M53.9,16.5c0,0.3,0.2,0.6,0.6,0.5c0.3,0,0.6-0.3,0.6-0.6c0-0.3-0.3-0.5-0.6-0.6C54.1,16,53.9,16.3,53.9,16.5z"
		/>
	<path class="st1" d="M56.6,38.5C56.6,38.5,56.6,38.4,56.6,38.5L56.6,38.5L56.6,38.5z"/>
	<path class="st1" d="M61.1,29.6C60.9,13.2,47.2,0,30.5,0h-0.4C13.4,0.2,0,13.6,0,30c0,0.1,0,0.3,0,0.4C0.2,46.8,13.9,60,30.6,60
		c0.1,0,0.3,0,0.4,0c16.7-0.2,30.2-13.6,30.2-30C61.1,29.9,61.1,29.8,61.1,29.6z M0.7,34.2c0.2,0.2,0.5,0.3,0.9,0.5
		c0.3,0.2,0.6,0.3,1,0.4c-0.3,0.1-0.6,0.3-0.6,0.7c0,0,0,0.5,0,0.6c0,0.3-0.1,0.5-0.2,0.7c-0.1,0.3,0.2,0.7,0.3,1
		c0,0-0.1,0.3-0.1,0.4C2,39.2,2.8,40,3.2,40.3c0.1,0.3,0.4,0.5,0.6,0.7c0.2,0.1,0.5,0.2,0.4,0.4c-0.8-0.3-1.5-0.8-2.1-1.4
		C1.5,38.1,1,36.2,0.7,34.2z M3.6,35.9c0,0.4-0.2,2,0.1,2.5c-0.2,0.1-0.5,0.4-0.5,0.7c-0.3-0.2-0.3-0.6-0.3-0.6c0-0.1,0-0.2,0-0.3
		c0-0.2-0.1-0.6-0.1-0.7c-0.1-0.1-0.1-0.2-0.1-0.4c0-0.2,0-0.3,0.1-0.4c0.1-0.2,0.1-0.9,0.1-0.9c-0.1-0.1-0.2,0.1-0.2,0.1
		c0,0,0,0.6-0.1,0.8c-0.1,0.1-0.1,0.2-0.1,0.4c0,0.2,0.1,0.3,0.2,0.5c0.1,0.4,0,0.7,0,0.8c0,0,0.4,1,0.6,1.3h0l0,0.2
		c-1.2-1-0.8-1.8-0.8-1.9c-0.1-0.1-0.1-0.3-0.1-0.4c-0.1-0.3-0.1-0.6,0-0.9c0.1-0.2,0.2-0.5,0.1-0.7c-0.2-0.6,0.3-0.7,0.6-0.9
		c0.1,0,0.5,0.1,0.7,0.1C3.5,35.4,3.6,35.7,3.6,35.9z M3.8,35.8c0-0.2,0.1-0.4,0.2-0.5c0.1,0,0.7,0.1,0.9,0.2c0,0.3,0.1,1,0.9,1.9
		c0,0.2-0.3,0.4-0.4,0.6c-0.1,0.4-0.4,0.9-0.4,1.2c-0.1-0.1-0.3-0.2-0.4-0.3l-0.1,0l0,0c-0.1-0.5,0.9-1.2,0.6-1.4
		c-0.1,0-0.1,0-0.2,0.1c-0.2,0.3-0.6,0.7-0.6,1.1c-0.2-0.1-0.3-0.3-0.4-0.5c0-0.2,0-0.4-0.1-0.7c0.1-0.2,0.3-0.5,0.5-0.6
		c0,0,0.1,0,0.1-0.1l0,0l0,0c0,0,0.1-0.1,0.1-0.1c0.1-0.1,0.1-0.1,0-0.2c-0.1-0.1-0.2-0.1-0.3,0c-0.1,0-0.1,0.1-0.2,0.2
		c-0.1,0.1-0.2,0.1-0.2,0.2C3.7,36.5,3.7,36.1,3.8,35.8z M10.1,35.3c0.3,0.1,0.2,0.4,0.1,0.6c-0.1,0.2-0.2,0.3-0.3,0.4
		c-0.1,0.2,0.1,0.5,0.1,0.8c0,0.1,0.2,0.5,0.1,0.5c0,0.2-0.4,0.4-0.7,0.4c-0.1,0-0.2,0.2-0.2,0.3c0,0.2,0,0.3-0.1,0.5
		c-0.1,0.2-0.4,0.4-0.6,0.6c-0.2,0.1-0.2,0.3-0.3,0.5c0,0.1-0.4,0.2-0.6,0.3c-0.4,0-0.2,0.5-0.3,0.6C7.3,40.9,7.1,41,7,41
		c-0.2,0.1-0.3,0.4-0.3,0.6c-0.1,0-0.2,0-0.3,0c-0.1-0.6,0.2-1.2,0.4-1.8c0.3-0.8,0.6-1.5,1-2.2c0.5-0.9,0.9-1.8,1.5-2.6
		c0,0.1-0.1-0.1-0.2,0c-0.6,0.8-2.6,4.2-2.6,4.7c0,0.1-0.2,0.1-0.3,0c-0.1-0.2-0.1-0.4,0-0.6c0,0.1-0.5,0.3-0.1,0.9
		c0,0.2-0.2,0.8,0.2,1c0.1,0.2,0.2,0.6-0.1,0.6c-0.3-0.3-0.4-0.7-0.5-1c0-0.1,0.1-0.2,0-0.4c-0.1-0.2-0.3-0.4-0.2-0.6
		c0-0.1,0.3-0.6,0.1-0.8c-0.5-0.4-0.2-0.8,0-1.1c0.1-0.1,0.5-0.2,0.3-0.6c0-0.1-0.1-0.2-0.1-0.4c-0.1-0.4,0.2-0.6,0.5-0.8
		c0.2-0.1,0.8-0.6,0.9-0.6c0.9,0,0.8-0.3,0.9-0.5c0.1-0.2,0.2-0.3,0.4-0.2c0.2,0,0.3,0,0.4,0c0.3-0.1,0.6-0.3,0.9-0.3
		c0.2,0,0.1,0.2,0.1,0.6C9.9,34.9,9.9,35.1,10.1,35.3z M5.7,37.1l0,0.1c-0.2-0.3-0.7-1.4-0.6-1.7c0.1,0,0.2,0.1,0.3,0.1
		c0.2,0.1,0.4,0.1,0.6,0.3C6,35.9,5.2,35.7,5.7,37.1z M3.8,38.5L3.8,38.5L3.8,38.5c0.2,0.2,0.3,0.3,0.5,0.4c0.2,0.1,0.4,0.3,0.7,0.4
		c0.1,0.2,0.1,0.1,0.1,0.4c0,0.3-0.1,0.6-0.1,0.9c0,0.3,0.2,0.7,0.4,0.9c-0.2,0-0.4-0.1-0.5-0.1c0-0.6-1-0.8-1-0.8
		c-0.2-0.1-0.3-0.3-0.4-0.4c-0.2-0.3-0.1-0.7-0.2-1C3.3,38.7,3.8,38.5,3.8,38.5z M31,59.6h-0.4c-12.8,0-23.7-7.8-28.1-18.9
		c2.9,2.7,5.8,0.7,6,0.5c1.9,3.5,4.7,6.6,8.2,8.8c2.6,1.7,5.4,3.1,8.5,3.7c0.1,0.4,0.3,0.8,0.7,0.8c0.3,0,0.5-0.1,0.5-0.1
		c0.2,0.9,1.7-0.2,1.9-0.4c0,0-1.6,0.9-1.7,0.4c0-0.1,0.1-0.2,0.2-0.3c0.2-0.1,0.7-0.5,0.7-0.5c-0.7,0.4-1.1,0.6-1.1,0.6
		c-0.3,0-0.6,0-0.7-0.2c-0.1-0.2,0-0.4,0-0.4c0.3,0,0.6-0.1,0.9-0.2c1.5-0.4,3.3-1.9,3.4-2.5c1.4-0.5,3.7-0.9,4.4-0.9
		c0.3,0.4,0.6,0.8,0.7,1.3c0.1,0.6-0.1,1.2-0.6,1.6c-0.1,0-2.4,1.3-2.6,1.4c-0.6,0.5-1.7,0.6-1.7,0.6s-0.5,0.3-0.8,0.3
		c-0.5-0.1,0.1-0.5,0.2-0.6h0c0,0-0.8,0.6-1.1,0.5c-0.3,0-0.3-0.2-0.1-0.4c0.3-0.2,0.6-0.5,0.6-0.5c0,0-0.9,0.5-1.1,0.6
		c-0.4,0.1-0.5-0.2-0.5-0.2c0,0.1,0,0.5,0.6,0.4c0.2,0.4,0.6,0.3,1,0.1c0,0.5,0.4,0.4,0.8,0.3l0,0.1l-0.1,2.7c0,0,0,0.2,0,0.4
		c0,0-0.3,0.3,0.2,0.4l0.4,0c0,0,0.4,0.1,0.3-0.3l0-1.3c0,0,0.4-0.4,0.7,0.5c0,0,0.5,1.3,1.5,0.8c0,0,0.3-0.2-0.1-0.3
		c0,0-0.4,0.1-0.8-0.9c0,0-0.1-0.3-0.4-0.5c0,0,0.6-0.1,0.6-1c0,0,0.1-0.7-0.8-0.8L30,55.3c0.1-0.1,0.2-0.1,0.2-0.1
		c1-0.1,1.6-0.6,1.8-0.8l2-0.3c0.2,0.2,0.5,0.1,0.6,0.1c0,0.1,0.1,0.2,0.2,0.3c0,0-0.1,0.1-0.2,0.1c0,0-0.3,0.1,0,0.4
		c0,0,0.2,0,0.3,1.5c0,0,0.2,1.1,0.2,1.5c0,0-0.2,0.5,0.2,0.5c0,0,0.1-0.1,0.8-0.1c0,0,0.9-0.2,1-0.3c0,0,0.7-0.2,0.5-1.3
		c0,0-0.1-0.5-0.7-0.7c0,0-0.2,0-0.1-0.2c0,0,0.6-1.1-0.6-1.5c0,0,0,0-0.1,0c0.4-0.3,0.7-0.7,0.9-1l0.1-0.1
		c4.4-1.2,8.6-3.8,11.6-7.1c2.7-2.9,4.7-6.5,5.7-10.3c0.2-0.1,0.3-0.2,0.5-0.3C55,35.9,55,36,54.8,36.3c-0.1,0.3,0.1,0,0.1,0
		c0.3-0.4,1.5-1.3,1.7-1.4c-0.1,0.3,0.1,1,0.1,1.5c-0.1,0.6-0.2,1.1-0.4,1.6c0,0,0,0-0.6,1.6c-0.1,0.3,0.1,0.6,0.2,0.8l-0.7-0.2
		c-0.2-0.1-0.3-0.1-0.5-0.1c-0.1,0-0.3-0.1-0.4-0.1L54,39.3c-0.1-0.1-0.2-0.1-0.2,0.1c0,0.8,0.6,0.9,0.7,1c0.2,0.1,1.2,0,1.5,0.3
		c0,0,0-0.2,0.1-0.4c0-0.1,0.1-0.2,0.1-0.4c0-0.1,0.1-0.3,0.1-0.4c0,0,0,0,0,0c0-0.1,1.5-3.4,2.3-4.6c0.4-0.5,0.7-0.6,1.2-0.8
		c0,0,0,0,0,0l0,0c0,0.2,0.1,0.4,0.1,0.6c0,1.4-0.5,2.7-1.1,3.9c-0.2,0.3-0.5,0.6-0.8,0.9l-0.2,0l-0.2,0h-0.1c0,0,0,0,0-0.1
		c0,0,0,0,0-0.1c0.1-0.1,0.1-0.3,0.2-0.5c0.2-0.4,0.5-0.7,0.7-1.1c0.1-0.2,0.2-0.4,0.4-0.6c0.1-0.2,0.2-0.5,0.3-0.7
		c0.1-0.2,0.2-0.5,0.3-0.7c0.1-0.3,0.3-0.5,0.3-0.8c0-0.1,0-0.2-0.1-0.2c-0.1,0-0.3,0-0.4,0.1c-0.1,0.1-0.2,0.3-0.3,0.5
		c-0.1,0.2-0.1,0.3-0.2,0.5c-0.1,0.2-0.2,0.4-0.3,0.7c-0.1,0.2-0.2,0.5-0.3,0.8c-0.1,0.2-0.2,0.5-0.4,0.7c-0.1,0.2-0.2,0.5-0.4,0.7
		c-0.1,0.1-0.1,0.3-0.2,0.4c0,0.1-0.1,0.2-0.1,0.2c-0.2,0.5-0.8,0.8-0.8,1.3c0,0,0.1,0,0.2-0.1c0.3-0.5,0.6-0.8,0.9-1.1l0,0
		c0.2,0,0.5,0,0.7,0.2c0,0,0.3,0.3-0.4,1c-0.2,0-0.4,0-0.6-0.1c-0.5-0.1-0.4,0.2-0.4,0.2c0.7,0.1,1.4,0.2,2-0.1
		C54.3,51.7,43.6,59.5,31,59.6z M29.8,47.7c-0.1-0.3-0.4-0.6-0.3-1c-0.1-0.2-0.3,0-0.4,0.1c-0.2,0.2-0.6,0.9-0.9,1.1
		c-0.1,0-0.2-0.1-0.2-0.2c0-0.1,0.1-0.1,0.1-0.2l-0.9,0c-0.1,0-0.7,0.1-1.4-0.1c-0.4-0.1-0.9-0.1-1.3-0.2c-0.4,0-0.7,0-1.1,0.1
		c-0.1,0-0.5,0-0.5-0.6c0-0.2-0.4-0.3-0.5-0.4c-0.3-0.2-1-0.2-0.9-0.2h0c-0.2,0-0.2-0.3-0.2-0.4c-0.1-0.3-0.1-2.5,0-3.2
		c0.1-1.5-0.2-3.1-0.5-4.6c-0.1-0.7-0.3-1.4-0.3-2.1c0.1-2.4,2.5-3.6,2.5-3.6c0.7,0,2.1,0,2.2,0c-0.3,0.1-3.4,1.1-2.9,3.7
		c0.2,1.1,0.8,2.2,1.4,3.1c0.7,1,2.5,2.8,2.5,2.8c-1.1-1.2-2.2-3-2.8-3.9c-2-3.3,0-4.3,0.4-4.7c0.8-0.6,2.3-1,2.4-1
		c0.1,0.7,1.1,0.5,1.1,0.5c0.2,0.2,3,3.1,3.1,3.1c1.7,0,0.9,0.1,4.6,0.2c0.3,0,4,0,4.3-0.3c0.1-0.2,0-0.7-0.1-0.9
		c-0.2-0.4-0.5-0.8-0.7-1.1c-0.3-0.3-0.5-0.6-0.8-1c0.6,0.3,1,0.9,1.4,1.4v-0.1c-0.8-1.5-1.8-1.7-1.8-1.7h0
		c-0.1-0.1-0.3-0.3-0.4-0.4c-0.1-0.1-0.3-0.3-0.4-0.4c0.8-0.4,1.5,0,1.6,0c0.4,0,0.8,0.1,1.2,0.3c0.3,0.1,1.2,0.7,1.3,0.7
		c0.7,0.2,1.4,0.6,1.9,1.1c0.3,0.3,0.6,0.5,0.9,0.8c0.4,0.8,0.3,1.7-0.2,2.4c-0.2,0.3-1.2,1.7-2.6,1.5c-0.5,0-1,0-1.5,0
		c-1.6,0-6.3-0.3-7-0.5c-0.7-0.2-1.2-0.5-1.7-1c-0.5-0.5-1-1-1.4-1.5c-0.6-0.8-1.5-1.4-1.5-1.4c0,0,1.1,1.3,1.4,1.6
		c0.4,0.5,1.4,1.8,2,2.2l0,0.2c-0.1-0.1-1.5-0.5-2.7-2.1c-0.1-0.1-0.2-0.1-0.1,0.1l0.5,0.7l-0.8-0.5c0,0-0.7-0.2-0.6,0.2
		c0,0.4,2,0.9,2.7,1.4c-0.1,0-1.8-0.6-2.6-0.2c-0.6,0.2-2.8-0.1-2.8-0.1c1.8,0.7,2.7,0.3,4.1,0.3c0.4,0,0.7,0.2,1.1,0.2
		c0.1,0,0.4,0,0.5-0.1c0.1,0,0.3,0.2,0.4,0.2l0,0c0.8,0.9,1.3,2.1,1.1,3.3c-0.2,1-1.2,1.7-2.2,1.8c0,0,1.4,0.3,2.2-0.7
		c0.8-1.1,0.2-2.9,0.2-2.9c0.7,0.7,1,1.6,0.8,2.5c-0.1,0.6-0.3,1.3-0.5,1.9c-0.1,0.1-0.1,0.3-0.2,0.4l-0.1,0.1c0,0,0.9-0.5,1.1-2.5
		c0,0.1,0,0.2,0,0.3c0.1,0.8,0,2.2,0.3,2.6c0,0-0.2-1.3,0-2.3c0.2,0.2,1.1,1.1,1.2,1.2c0.2,0.4-0.8,1.6-0.8,1.9
		c0,0.2,0.2,1.3,0.3,1.7c0.1,0.7,0.3,1.5,0.6,2.2c0.1,0.1,0.1,0.2,0.2,0.4c-1.4-0.1-3.5,0.3-5.4,1.2c-0.6,0.3-1.2,0.6-1,0.8
		c0.1,0.2,0.4-0.1,0.4-0.1c0.2-0.3,1.2-0.7,1.2-0.7c0,0.1-0.6,0.8-1.3,1.3c0,0-0.1,0.1-0.2,0.1l0.1-0.1v0l-0.1,0.1
		c-0.1,0.1-0.3,0.1-0.4-0.1c-0.3-0.4,0.8-1.7,0.9-1.8c0.2-0.1,0.2-0.2,0.2-0.4c0-0.1,0.2-0.5,0.2-0.6c0.1-0.1,0.2-0.3,0.2-0.5
		c0.1-0.3,0.3-0.6,0.6-0.8C29.8,48,29.9,47.8,29.8,47.7z M21.1,46.2L21.1,46.2L21.1,46.2z M24.1,30.1c-0.2,0-0.5-0.1-0.6-0.3
		c0.3-0.2,1.1-0.3,1.1-0.3c0.1,0,1.1,0.9,1.5,1.3c0,0-0.7-0.9-1.1-1.2c-0.3-0.2-0.5-0.5-0.8-0.7c0.4,0,0.8,0,1.2,0
		c0,0,0.7,0.7,0.9,1c0.2,0.3,0.5,0.7,0.5,1.1c0,0.1-0.2,0.3-0.2,0.5c0,0.3,0.3,0.3,0.3,0.6l0.2-0.1c-0.1-0.2-0.4-0.2-0.4-0.5
		c0-0.2,0.1-0.3,0.2-0.5c0.1-0.4-0.3-0.9-0.5-1.2C26,29.2,25.5,28.5,25,28c2.4,0.2,4.7,0.5,7.1,0.7c0.5,0,1.1,1.3,1.2,1.5
		c-1.2-0.3-2.6-0.4-3.8-0.3c-0.5,0-1.3-0.1-1.7,0.1c-0.6,0.1-0.6,0.8-0.6,0.7c0,0,0.2-0.6,1.2-0.6c0.6,0,1.5,0,2,0
		c2,0.1,4.1,0.3,5.7,1.5c0.6,0.5,2.4,2.7,2.6,3.2c0.4,0.8,0.1,0.8,0,0.9c-0.1,0.1-0.7,0.1-0.7,0.1c-0.7,0-1.4,0-2.2,0
		c-1.6,0-5.1-0.1-5.3-0.1c-0.1,0-0.1,0-0.2,0c-0.4-0.4-0.9-0.9-1.3-1.3c-0.5-0.5-1.1-1.1-1.6-1.6c-0.1-0.1-0.1-0.2-0.3-0.2
		c-0.9,0.2-1-0.6-1-0.5c-1.2,0-2.2-0.1-3.5,0c-0.2,0-0.5,0.2-0.7,0.1c-0.4,0,0-0.4,0.2-0.5c0.3-0.3,0.7-0.6,0.8-1
		c0.1-0.2,0.3-0.4,0.4-0.5c0,0,0.4,0.2,0.6,0.2c0.3,0.1,1.8,0.8,2.2,1.1C26.1,31.3,24.7,30.2,24.1,30.1z M22.9,32.1L22.9,32.1
		L22.9,32.1z M44.8,24.1c-0.3-0.6-0.6-1.2-0.8-1.8c1.4,0.2,3.2,0,3.9-0.3c1,1.9,1.5,4,1.8,6.1c0.1,0.9,0.1,1.9,0.1,2.9
		c0,1.1-0.2,2.3-0.4,3.5c-0.2,1-0.5,2-1,2.8c-0.1,0.2-0.3,0.3-0.5,0.5c-0.5,0.4-0.9,0.5-1.5,1l-0.2,0.1c-0.2,0.1-0.3,0.5-0.4,0.7
		c-0.2,0.4-0.8,0.9-0.9,1c-0.2,0.1-0.4,0.1-0.4-0.3c0-0.2,1.5-2.4,1.7-2.6c0.1-0.2,0.3-0.4,0.5-0.5c0.1,0,0.2-0.1,0.2-0.2
		c0.2-0.4,0.1-2.5,0.1-2.9c-0.1-0.8-0.1-1.7-0.2-2.5c-0.1-0.8-0.2-1.7-0.3-2.5c-0.1-0.4-0.1-0.7-0.1-1.1c0-0.4-0.2-1.6-0.3-1.9
		c0.2,0.2,0.6,0.5,0.6,0.5C46.4,26.3,45.2,25,44.8,24.1z M47.6,20.5c-1.1,1-3,1-4.3,0.6c-0.1,0-0.1,0-0.1,0C43,20.7,43,20.5,43,20.4
		c2.9,0.3,4.1-0.7,4.3-1.3c0.1-0.4-0.9-2-1-2.2h0c-1.1-3.3-0.2-4.1,0.3-4.3c0,0,0,0,0,0c0,0,0,0,0,0c0,0,0,0,0,0l0,0
		c0.5-0.1,0.9,0.3,1.1,0.4c1.8,1.9,3.9,4.5,5.3,7.6c-0.1-0.1-1-0.8-1.7-0.2c-0.1,0.1-0.4,0.7,0.1,1l0.1,0l0,0c0,0.1,0,0.3,0.1,0.3
		l0,0c-0.4,0.5-0.7,1.1-0.8,1.7c-0.1,0.4-0.1,0.8,0.2,1c0.3,0.3,1.3,0.4,1.3,0.4c0,0,0.4,4.5,0.4,6.3l-2,1.7c-0.1-0.1,0-1.1-0.1-1.5
		c0-2.3-0.2-4.5-0.8-6.7c-0.2-0.9-0.6-1.8-1.1-2.6c0,0,0.7,2,1,2.9c0.6,2.2,0.7,4.4,0.7,6.7c0,0.4,0,0.9,0,1.3c0,0.1,0,0.1,0.1,0.1
		c0.1,0,2.1-1.8,2.1-1.8c0.1,0.2,0.2,0.4,0.5,0.5c0.2,0,0.4,0,0.6-0.1c0.3-0.1,0.7-0.1,1,0.1c0,0.1,0,0.1,0,0.2
		c-0.3-0.1-0.7,0.2-0.8,0.1c0.4,0.2,0.6-0.1,0.8,0c0,0.1,0,0.3,0,0.4c-0.1-0.1-0.3-0.2-0.3-0.2s0.1,0.3,0.2,0.4c0,0.2,0,0.3-0.1,0.5
		c0,0-0.4-0.2-0.5-0.5l-0.2,0c-0.1,0.1,0.3,0.5,0.6,0.6c0,0.3-0.1,0.5-0.1,0.7c-0.3,0.1-0.8,0.2-0.9,0.1c0.1,0,0.4-0.2,0.3-0.2
		c-0.2,0-0.6-0.2-0.6-0.2c0,0.1,0.1,0.2,0.1,0.3c-0.2,0-0.7-0.1-0.7-0.1c-0.1,0-0.3,0.1-0.4,0.2c-0.3,0.4-1.4,1.5-1.5,1.5
		c-0.1-0.1,0-0.2,0-0.3c0.3-0.9-0.1-1.4-0.1-1.4c0,0.5-0.1,1.1-0.5,2.3c-0.1,0.4,0.9-0.3,1.2-0.6c1-1.2,1.3-0.9,1.3-0.9
		c-0.1,1.2-0.4,2.5-0.7,3.7c-0.2,0.6-0.3,1.2-0.5,1.8c-0.1,0.2-0.1,0.3-0.1,0.5c0,0.5,0.6,0.3,1,0.2c-1.4,2.7-3.3,5.2-5.7,7.2
		c-0.5,0.5-1.1,0.9-1.7,1.3c-0.6-0.3,0-2.1,0.2-2.5c0.5-1.1,1.1-2.2,1.6-3.3c0.3-0.5,0.5-1.1,0.8-1.7c0.7-1.3,0.7-1.6,0.7-1.6
		c0.2,0,0.4-0.1,0.6-0.2c0,0.1-0.8,1.9-1.2,2.7c-0.3,0.8-0.7,1.5-1.1,2.3c-0.3,0.6-0.6,1.1-0.9,1.6c-0.4,0.7-0.7,1.6-0.8,2.5
		c0,0,0.1,0.2,0.2-0.1c0.2-1.4,1.2-2.6,1.8-3.8c0.8-1.5,1.5-3.1,2-4.7c0.1-0.3,0.2-0.6,0.2-0.9c0-0.2,0.1-0.2,0.2-0.3
		c0.2-0.2,0.3-0.4,0.3-0.7l-0.2,0.1c0,0.2-0.1,0.4-0.3,0.6c-0.1,0.1-0.3,0.3-0.3,0.3c0,0.1,0,0.2,0,0.4c0,0-0.5,0.3-0.8,0.2
		c-0.1-0.1-0.2-0.2-0.3-0.2c-0.3-0.2-0.9,0-1.2,0.1c-0.5,0.3-1.3,0.9-1.4,0.4c0.2,0,0.5-0.1,0.8-0.4c0.7-0.5,2-0.7,2-0.7
		c0-0.1,0.4-0.2,0.4-0.2c-0.4-0.1-1.7,0.3-2.9,1.1c0.4-0.4,0.6-0.7,0.8-1.1c0,0,1.3-0.8,1.8-1.3c0.3-0.3,0.3,0,0.5-0.4
		c0.6-1.2,0.9-3,1.1-4.4c0.2-1.8,0.2-3.6-0.1-5.3c-0.3-2-0.8-3.9-1.7-5.7c0.1,0,0.2-0.1,0.2-0.1c0.1-0.1,0.1-0.3,0-0.2
		c-1.2,0.5-3.4,0.6-3.9,0.5c-0.3,0-0.6,0-0.8-0.3c0,0-0.2-0.4-0.3-0.7c1.5,0.4,3.7,0.5,4.5-0.7C47.7,20.4,47.7,20.4,47.6,20.5z
		 M54.3,26.2c0,0,0.3-0.2,0.5,0c0.2,1.7,0.3,3.4,0.2,5.1c-0.2,0-0.3,0-0.5,0C54.6,30.2,54.2,26.2,54.3,26.2z M54.5,25.7
		c-0.3-1-1.1-2-2.1-2.3c0.6,0.3,1.8,1.4,2,2.4c-0.1-0.2-1.8-2.6-2.9-1.9c-0.3,0.2,0.1,0.3,0.1,0.4l0.2-0.2l0.2,0.1
		c0.1,0.4,0.3,0.3,0.4,0.4c-0.4,0-1.6-0.1-1.3-1.3c0.1-0.6,0.8-1.5,0.8-1.5c0.2,0,0.3,0,0.5-0.1c0.2,0,0.4,0,0.5,0.1
		c0,0-0.1-0.4-0.8-0.2c-0.1,0-0.3,0.1-0.2-0.2c0.1,0,0.2,0,0.3-0.1c0.2-0.4,0.6-0.2,0.6-0.2c-0.1-0.3-0.3-0.3-0.4-0.2
		c-0.2,0.1-0.2,0.3-0.4,0.3c-0.4,0-0.6-0.4-0.3-0.8c0.3-0.4,1-0.2,1.2,0c0.2,0.1,0.3,0.3,0.5,0.4c0.3,0.7,1.2,3.4,1.5,4.8L54.5,25.7
		z M52.5,24c0.2,0.1,0.3,0.2,0.5,0.4c0.3,0.2,0.6,0.5,0.8,0.8c0.1,0.8,0.3,1.9,0.3,2.7c0.1,0.9,0.2,2.1,0,3.4c-0.2,0-1,0.3-1.1-0.4
		C53.1,29.2,52.6,24.6,52.5,24z M53.5,38c0.3-1.4,0.7-2.1,0.8-3.5c0.1,0,0.2-0.1,0.3-0.1c-0.1,0.8-0.2,1.3-0.5,2.1
		C53.8,37.8,53.4,38.1,53.5,38z M52.4,40.5c-0.3,0.2-0.7,0.4-0.8,0c0-0.2,0.5-1.7,0.7-2.3c0.4-1.4,0.9-4.2,1-4.1
		c0.1,0,0.4,0.1,0.6,0.1C53.8,35.6,52.9,39.5,52.4,40.5z M52.4,34.8l-0.2,0.1L52.4,34.8z M37.5,50.3c0-0.4,0.3-2,0.4-2.4
		c0.1-0.5,0.4-0.9,0.3-1.5C38,46,37.5,45.6,37,45.4c-0.3-0.1-1.9-0.3-2.5-1.1c0,0,0.1-0.1-0.7-1c-0.3-0.4-0.7-0.7-1-1.1
		c-0.3-2-1.6-3.1-1.6-3.1h0c-0.1-0.3-0.3-0.6-0.5-0.9c0.2,0,0.5,0,0.6-0.2c0.3,0.1,0.6,0.2,0.9,0.2c0.8,0.1,1.6,0.2,2.5,0.3
		c0.9,0.1,1.7,0.2,2.6,0.2c0.8,0.1,1.7,0.1,2.5,0.1c0.1,0.6,0.3,2.2,0.3,2.7c0,0.4-0.1,0.7-0.1,1.1c0,0.4,0,1,0.5,1.2
		c0.5,0.2,1.1,0.4,1.5,0.7c0,0.1,0,0.3,0,0.4c0,0.4,1.4,0.8,1.7,0.9c0.6,0.3,1,0.8,1.3,1.3c0,0-0.7,1.7-0.1,2.2
		c-2.1,1.5-4.4,2.7-7.1,3.5c-0.1,0-0.1,0-0.1-0.1C38.2,52,37.4,50.5,37.5,50.3z M35.9,56.2c-0.4,0.2-0.3-0.2-0.3-0.2l-0.1-0.6
		c-0.2-0.7,0.3-0.6,0.3-0.6c0.6-0.2,0.6,0.6,0.6,0.6C36.4,56.3,35.9,56.2,35.9,56.2z M35.7,56.9c-0.1-0.4,0.7-0.4,0.7-0.4
		s0.5,0,0.5,0.9c0,0.8-0.7,0.7-0.7,0.7c-0.3,0.1-0.3-0.2-0.3-0.2C35.8,57.6,35.7,56.9,35.7,56.9z M34.9,54.2
		c-0.1-0.2,0.5-0.6,0.6-0.8c0.3-0.4,0.2-0.9,0.2-0.9c0,0.4-0.4,0.7-0.6,1c-0.2,0.2-0.4,0.5-0.5,0.6c-0.1,0.1-0.3,0.1-0.4,0
		c-0.2-0.3,0.1-0.4,0-0.3c0.8-0.4,1-0.7,1-1.1c0,0.1-0.3,0.7-0.9,1c-0.2,0.1-0.2,0.1-0.3,0.2c-0.5-0.3-0.1-0.5,0.5-0.8
		c0,0,0.3-0.2,0.5-0.4c0.5-0.5,0.4-1.2,0.1-1.8c-0.1-0.3-0.3-0.6-0.4-1c-0.3-0.9-0.5-1.9-1-2.7c-0.1-0.2-0.2-0.4-0.2-0.6
		c0-0.2,0-0.8,0.1-0.9c0.1-0.1,0.6-0.9,0.8-1.1l0,0c0.5,0.8,2,0.9,2.3,1c1.1,0.3,1.2,1.2,1.1,1.6c0,0.4-0.2,0.7-0.3,1.1
		c-0.2,0.7-0.6,1.4-0.6,2.2c0,0.4,0.6,1.5,0.5,1.9c-0.1,0.6-0.7,1.4-0.8,1.5C36,54.6,35,54.6,34.9,54.2z M30.9,38.2
		c0.1,0,0.2-0.1,0.3-0.1C31.1,38.1,31,38.2,30.9,38.2z M41.9,44.4c-0.4-0.3-0.9-0.5-1.3-0.6c-0.5-0.1-0.5-0.8-0.5-1.2
		c0-0.4,0.1-0.7,0.1-1.1c0-0.6-0.2-1.9-0.4-2.6c0,0,0,0,0.1,0c0.5,0,1,0,1.5,0c0.2,0.6,0.6,2.3,0.4,3C41.7,42.2,41.8,43.4,41.9,44.4
		z M44.9,40.7c0.1,0.1,0.8,0.3,1.3-0.1c0.3-0.2,0.8-0.6,0.7-0.5c0.7-0.4,1.1,0,1.1,0c0,0-0.2,0.2-0.3,0.3c0,0-0.6,0.8-1.5,1.2
		c-0.6,0.3-2.8-0.5-2-1.6c0.1-0.1,0.3-0.1,0.3-0.1c-0.1,0.1-0.1,0.2-0.1,0.3C44.3,40.7,44.7,40.8,44.9,40.7z M46.6,37.3l0.1-0.1
		L46.6,37.3z M46.5,37.1c-0.1,0.1-0.6,0.7-1.9,2.8c0,0-0.7,0.1-0.8,0.8c0,1,1.9,1.6,2.3,1.5c0,0,0.7-0.2,1.6-1.1
		c-0.2,0.4-0.4,0.7-0.5,1.1c-0.2,0.6-1.8,3.7-2.3,5c-0.2-0.5-0.6-0.9-1.1-1.2c-0.3-0.2-0.5-0.2-0.8-0.3c-0.3-0.1-0.8-0.2-1-0.5
		c0,0,0-3.1-0.1-4.1c0-0.3-0.3-1.4-0.5-2c0.3,0,0.5,0,0.8,0c0.7,0,1.4-0.1,2-0.3c1.4-0.4,2.2-2.3,2.4-2.1
		C46.8,36.6,46.7,37,46.5,37.1z M31.7,54.4c-0.1,0.1-0.3,0.2-0.4,0.3C31.5,54.6,31.6,54.5,31.7,54.4z M29,55l0.1-0.1L29,55z
		 M30.5,55.8c0-0.2,0.4-0.2,0.4-0.2c0.4,0,0.3,0.7,0.3,0.7c0,0.4-0.3,0.5-0.3,0.5c-0.4,0.2-0.3-0.1-0.3-0.1L30.5,55.8z M57.7,35.2
		c0,0-0.5,0.2-1.1,3.3c0,0,0,0.1,0,0.1l0,0c-0.7,0.9-0.6,1.7-0.6,1.8c-0.4-0.4,0.2-1.5,0.3-1.7c0,0,0,0,0,0l0-0.1
		c0.1-0.2,0.1-0.3,0.2-0.5c0.2-0.6,0.3-1.1,0.4-1.7c0.1-1.4,1.1-1.7,1.1-1.7c0.1,0.3,0,0.8-0.1,1.1c-0.1,0.4-0.3,0.5-0.6,1
		c0,0-0.1-0.1,0-0.2C57.2,36.2,57.6,35.4,57.7,35.2z M58.8,40.5c-0.2,0.2-0.4,0.3-0.7,0.3c0.1-0.2,0.3-0.4,0.4-0.6
		c0-0.2-0.1-0.3,0-0.4c0.1-0.2,0.4-0.7,0.6-1.1c0.8-1.4,1.2-3,1-4.6c0.2-0.1,0.3-0.2,0.5-0.3C60.2,36.1,59.6,38.4,58.8,40.5z
		 M60.5,33.5c-0.4,0.3-1,0.6-1.3,0.7c-0.5,0.1-1,0.3-1.5,0.4c-1.1,0.2-2,0.4-2.9,1.1c0,0-0.1,0-0.2,0c0.2-0.7,0.3-1.3,0.4-2
		c0.4-2.6,0.4-5.3-0.1-7.9c0,0-1-4.7-2.4-6.9c-1.3-2.2-2.7-4.3-4.5-6.1l0,0c0,0,0,0,0,0c0,0,0,0,0,0c-0.1-0.1-0.5-0.3-0.7-0.3
		c-0.5-0.1-0.8,0-1,0.1l0,0c-0.6,0.2-1.3,1.2-0.5,3.8c-0.6-0.9-1.2-1.6-1.7-2c0,0,0,0,0,0c-0.1,0-0.1-0.1-0.2-0.1h0l0,0c0,0,0,0,0,0
		h0L43.6,14h0c-0.6-0.3-1.9-0.7-1.9-0.7c-0.1-0.1-0.2-0.3-0.2-0.5c1.4,0.6,1.7,0.2,1.8,0.1c-0.4,0.1-1.7-0.4-2-0.7
		c-0.2-0.4-0.5-1.2-0.6-1.2c0.3,0.7,0.4,1.5,0.8,2.2c-0.1,0-0.2,0-0.2-0.1c-0.2-0.1-0.6-0.6-0.8-0.7c-0.1,0,0.1,0.4,0,0.3
		c0,0-0.6-0.7-0.7-0.7c-0.1,0,0,0.4-0.1,0.4c-0.4-0.2-1.3-0.5-1.3-1.1c0.1,0,0.2-0.5,0.3-0.7c0.3-0.2,0.6-0.9,0.6-1.1l-0.1,0
		c0,0-0.2,0.3-0.3,0.4c0-0.2,0-0.3-0.1-0.4c-0.1-0.2-1.1-0.5-1.2-0.5l-0.2,0c0,0,0.6,0.2,0.9,0.4c0.5,0.3,0.3,1,0.2,1.1
		c-0.1-0.2-0.3-0.4-0.5-0.5c-0.1-0.1-0.3-0.2-0.4-0.3c-0.1,0-0.1,0.1-0.1,0.1c0.2,0.1,0.5,0.4,0.5,0.5c0.2,0.2,0.3,0.4,0.4,0.6
		c0,0,0,0.2-0.1,0.4c-0.1-0.3-0.3-0.5-0.5-0.7c-0.1-0.1-0.6-0.6-1.3-0.9c-0.8-0.3-1.8-1.3-2.1-1.8c0.4,0.7,0.9,1.4,1.6,1.7
		c0.4,0.2,1,0.5,1,0.5c-0.2,0.6-0.9,1-1.1,1c0.3,0.1,0.7,0,1-0.2c0.2-0.1,0.3-0.3,0.5-0.6c0.4,0.3,0.9,1.1,0.9,1.1
		c0,0.2,0.3,0.6,0.4,0.7c0.6,0.5,1.4,0.8,2.2,1c0.6,0.2,2.7,0.8,3.2,1c0,0,1.7,2,2.2,3.2c0.2,0.3,0.7,1.8,0.7,1.9
		c-1,0.9-3.6,0.9-3.6,0.9s-0.3-0.2-0.5-0.5c0,0-0.4-0.6-0.5-0.6c0.1,0.3,0.3,0.7,0.4,1c0.1,0.3,0.2,0.6,0.3,0.9c0,0,0,0,0,0.1
		c0,0,0,0,0.1,0.1c0.1,0.2,0.3,0.6,0.3,0.6c0,0.3,0.6,0.5,0.6,0.5c0.2,0.7,0.5,1.4,0.9,2c0.1,0.3,0.9,1.8,1.1,2.2
		c0.2,0.5,0.2,1,0.3,1.4c0.1,0.8,0.6,4.9,0.6,4.9c0,1.1-0.2,2.2-0.5,3.2c-0.2,0.5-0.8,1.8-2.6,2.3c-0.3,0.1-0.6,0-0.9,0.1l-0.6,0
		c0.3-0.3,0.7-0.6,1.2-1.3c0.2-0.2,0.3-0.5,0.4-0.7c0.2-0.4,0.1-1.2,0.1-1.2c0.2,0.2,0.3,0.5,0.3,0.8c0,0,0.1,0.2,0.1,0
		c0-0.5-0.4-1-0.7-1.4c-0.3-0.3-0.5-0.6-0.8-0.9c-0.5-0.6-1.3-1-2.1-1.1c-0.1,0-0.9-0.6-1.3-0.7c-0.4-0.2-0.8-0.3-1.3-0.3
		c-0.1,0-0.2-0.1-0.3-0.1c-0.7-0.4-1.8,0-1.8,0c-0.4-0.3-1.8-0.9-1.8-0.9c0.1-0.5,0.4-1.1,0.7-1.6c0.2-0.5,0.9-1.6,1-1.7
		c0,0-0.5-1-0.6-1.6c0.5,0,0.9-0.3,1.3-0.6c-0.1,0-2.1,1-3.1-0.4l-0.3-0.1c-0.1-0.1-0.1-0.2-0.2-0.3c0-0.1,0-0.3,0-0.4
		c0-0.1,0.3-1.4,0.3-1.7c0.1-0.6-0.4-1.3-0.9-1.7c0.1,0.1,0.5,0.6,0.7,1.2c-0.8,0.1-1.5,0.6-2.2,0.9c-0.9,0.4-1.4,0.7-2.3,1
		c-0.6,0.2-3,0.8-4.9,0.3c0,0-0.6,0-1-0.3c-0.2-0.2-0.2-0.5-0.2-0.8c0-0.4,0.6-1.8,0.9-2.4c0.9-1.8,2.2-3.4,3.5-4.9
		c0.2-0.2,0.7-1,0.8-1.1c0.5-0.5,1.4-0.9,1.4-0.9c0.7-0.5,1.2-0.6,2.2-0.7c0,0,0.1,0.5,0.4,0.6c1.1,0.1,1.9,0.4,2.2,0.6h0
		c0.3,0.4,0.5,1.8,0.5,2c0,0.1-0.2,0.4-0.4,0c0-0.1-0.1-1.2-0.6-1.8c-0.1-0.1-0.4-0.2-0.8-0.3c0.4,0.2,0.7,0.5,0.8,0.7
		c0.2,0.3,0.4,0.7,0.4,1.3c0,0.1-0.3,0.6-0.6-0.5c-0.1-0.4-0.4-0.9-0.8-0.9c-0.2,0-0.9-0.3-2.1,0.3c0.4-0.2,2.4-0.8,2.7,0.5
		c-0.3,0.1-0.7,0.1-1,0.1c-0.5,0-1-0.1-1.4,0c-0.4,0.1-0.7,0.1-1,0.6c-0.4,0.7-0.7,1.4-1.1,2.1c-0.1,0.2-0.2,0.5-0.3,0.7
		c-0.1,0.4-0.8,1.5-0.9,1.6c-0.3,0.4-0.5,0.9-0.8,1.3l0.2,0c0.5-0.6,1-1.4,1-1.4c0.6-0.3,1.7-1,2.2-1.5c1-1.2,2.1-2,3.5-2.9
		c-0.1,0,0.2,0.2,0.5,0.2l0.2-0.1c0,0,0.6,0.6,0.7-0.2c0-0.4-0.2-1.5-0.4-1.7c0.1,0.1,0.5,0.4,0.6,1.8c0,0,0.3,0.1,0.5,0.6
		c0,0,0.1-0.4-0.3-0.6c-0.1-0.1-0.1-0.2-0.1-0.3c0-0.4-0.1-0.8-0.3-1.1c-0.3-0.6-0.9-1-1.5-1.1c-0.2-0.1-0.8-0.2-1.2-0.2
		c-0.3,0-0.4-0.2-0.4-0.5c0-0.1,0.2-0.2,0.2-0.3c0-0.2-0.1-0.4-0.2-0.5h0c0.1,0,0.2,0.1,0.3,0.1c0.1,0,0.2,0.1,0.3,0.1
		c0,0,0,0,0.1,0c0.1-0.1-0.2-0.2-0.4-0.2c-0.1,0-0.3,0-0.4-0.1c-0.1-0.1-0.1-0.4,0-0.6l0.2,0.1c0.3,0.1,0.5-0.2,0.6-0.3
		c-0.4,0.4-0.8,0-0.8,0c0,0-0.1,0-0.2,0.1c-0.5,0.1-0.4-0.4-0.3-0.5c0.1-0.5,0.4-0.9,0.5-1.4c0.1-0.2,0-0.5,0-0.7
		c0-0.6,0.5-1.6,0.6-1.7c0.1-0.1,0.2-0.1,0.2-0.1c0.1,0,0.3-0.1,0.3-0.2L32,6l-0.2,0.1l0,0c0.1,0,0.2,0,0.3,0.1
		c-0.1,0.1-0.6,1-0.7,1.3c0-0.3,0.2-1.1,0.2-1.2c0-0.1-0.1-0.2-0.1-0.3c-0.1-0.2,0.1-0.3,0.3-0.4c0.7-0.5,1.6-0.8,2.5-0.9
		c2.5-0.3,4.3,0.5,4.8,0.9c0.9,0.6,1.3,1.6,1.4,2.6c-0.2,0.5-0.5,1.1-0.7,1.6c-0.7,1.7,0.3,2.1,0.3,2.1c-0.5-0.3-0.3-1.5-0.1-2.1
		c0.1-0.5,0.3-0.9,0.5-1.3c0,0-0.1,1,0,1.5c0,0.6,0,1.7,1.9,2c0.2,0.1-0.1-0.7-0.1-0.7c-0.2-0.6-0.6-0.5-0.6-0.5
		c-0.5-0.1-0.8-0.3-0.9-0.3c-0.1-0.2-0.1-0.4-0.1-0.6c0.2,0,0.9,0.3,0.9,0.3c0.7,0.3,0.3-0.4,0.3-0.4c0-0.5-0.4-0.4-0.4-0.4
		c-0.3,0-0.7-0.2-0.8-0.3c0-0.2,0-0.5,0-0.7c0.2-0.1,0.5,0.1,0.5,0.1C41.7,8.6,41.6,8,41.6,8c0-0.4-0.5-0.4-0.5-0.4
		c-0.2,0-0.4-0.1-0.5-0.2c0-0.2-0.1-0.3-0.1-0.4c0.4,0.3,0.9,0.2,1.1,0.1c0,0,0.6-0.3,1.1-1.5c0.1-0.3,0.6-1.1,0.6-1.2
		c0-0.1,0.4,0,0.4-0.3C43.5,4,43,3.8,43,3.8c-0.3-0.2-0.4-0.1-0.4-0.1l0,0c-0.1,0.1,0,0.2,0,0.3c0,0.2-0.6,1.6-0.9,2.1
		c-0.1,0.2-0.3,0.4-0.6,0.4c-0.2,0-0.6-0.2-0.5-0.5c0.2-0.4,0.7-1.7,0.8-2c0.2-0.4,0.3-0.5,0.3-0.5h0c0.3-0.2-0.3-0.3-0.4-0.4
		C41.2,3.1,41,3,40.8,2.9c-0.2-0.1-0.3,0-0.3,0c-0.1,0.1,0,0.3,0,0.4c0,0.1-0.3,1-0.5,1.3c-0.1,0.3-0.4,1.1-0.5,1.2
		c-0.2-0.2-0.5-0.3-0.7-0.5l0.1-0.1C39.1,4.8,39,4.3,38.7,4c0.6-0.2,0.8-1,0.5-1.4c-0.3-0.5-1-0.5-1.5-0.6c-0.2,0-0.4-0.1-0.6-0.2
		c-0.1,0-0.4-0.1-0.4,0h0l0,0.2c0.1,0.3,0.1,0.5,0,0.8c-0.1,0.6-0.3,1.1-0.5,1.7c-0.8-0.1-1.6,0-2.4,0.2c0-0.1,0-0.5,0.1-0.7
		c0-0.1,0.1-0.3,0-0.3c-0.2-0.1-0.5,0.3-0.6,0.4c-0.2,0.2-0.4,0.4-0.7,0.5c-0.1,0-0.5,0.2-0.5-0.1c0-0.1,0-1.1,0-1.4
		c0.3-0.1,0.6,0,0.7,0.3c0,0.1,0.2,0,0.3,0c0-0.1,0-0.7,0-0.9c0-0.1-0.3,0.1-0.3,0.1c-0.2,0.1-0.6,0.1-0.7,0c0-0.3,0-0.7,0-1
		c0.1,0,0.3,0,0.4,0c0.3,0,0.5,0.1,0.7,0.3C33.2,1.9,33.3,2,33.5,2c0,0,0.2-0.1,0.1-0.4c0-0.1-0.1-0.4-0.2-0.5
		C33.3,1.1,31.9,1,31.7,1c-0.3,0-0.8-0.1-1,0.1c-0.1,0.1,0,0.2,0.1,0.2c0.1,0.1,0.2,0.3,0.2,0.5c0,0.3,0.1,2.1,0,2.2
		c0,0.2-0.1,0.6-0.2,1c-0.1,0.2,1.7,0,2,0c-0.3,0.1-0.5,0.2-0.8,0.4c-0.2,0.1-0.7,0.3-0.7,0.7c0,0.2,0.1,0.3,0.1,0.4
		c0,0.2-0.1,0.4-0.1,0.6c0,0.3,0,0.6,0,1c0,0.2,0,0.5,0,0.7c0,0.2-0.4,0.8-0.4,1c-0.1,0.3-0.3,0.6-0.1,0.9c0.2,0.2,0.6,0.1,0.6,0.1
		c0,0-0.3,0.5,0,0.7c-0.1,0.2-0.1,0.6-0.1,0.7c-0.4,0.1-0.9,0.1-1.4,0.3c-0.4,0.1-0.8,0.4-1.2,0.6c-0.1,0-1,0.4-1.8,1.8
		c0,0.1-0.5,0.6-0.6,0.8c-1.5,1.7-2.8,3.6-3.6,5.7c-0.2,0.5-0.6,1.5-0.2,2l0.2,0.2c0.1,0.1,0.3,0.2,0.4,0.2
		c-1.4-0.1-4.2-0.2-4.3-0.2c-0.2,0-0.1,0.2,0.1,0.3c0.7,0.1,5.8,0.1,5.8,0.1l0,0c0.5,0.1,1,0.1,1.5,0c0.8,0,1.5-0.1,2-0.2
		c1.3,0,3.6,0.1,4.7,0c0,0.1-0.1,0.1-0.1,0.2c0,0.3,0.4,0.4,0.5,0.6c0.6,0.7,1.3,0.8,1.6,0.8c0,0.3,0.5,1.6,0.6,1.7
		c0,0-1.2,1.7-1.6,3.1c-0.1,0-0.5-0.1-0.6-0.2c-0.1-0.4-0.3-0.8-0.6-1.1c-0.2-0.2-0.4-0.5-0.6-0.5c-0.2,0-0.4,0-0.6-0.1
		c-1.6-0.2-3.2-0.3-4.8-0.5c-0.7-0.1-1.4-0.2-2-0.2l-0.2,0.1c0.2,0.3,0.5,0.6,0.7,0.9c-0.4,0-0.9,0-1.3,0L24,28.9l0,0
		c0.2,0.1,0.3,0.3,0.5,0.5c-0.7,0.1-1.2,0.2-1.6,0.8c0,0.1-0.3,0.6-0.8,1.1c-0.2,0.2-0.5,0.4-0.5,0.8c0,0.2,0.2,0.2,0.4,0.2l0,0l0,0
		c-0.1,0.1-1.6,1.4-1.9,2.7c-0.2,0.9,0.3,2.7,0.3,3c0.1,0.4,0.5,3.2,0.4,4.4c0,0.1,0.1,3,0.2,3.6c0,0.3,0.2,0.3,0.2,0.3
		c0.4,0.1,0.8,0.2,1.1,0.3c0.2,0.1,0.3,0.2,0.4,0.3c0,0.1,0,0.3,0.1,0.5c0.2,0.5,1.1,0.2,1.5,0.2c0.7,0,1.4,0.2,2,0.2
		c0.1,0,1.2-0.1,1.4,0.1c0.1,0,0.1,0.1,0.2,0.2c0.3,0.2,0.8-0.1,0.8-0.1c0.2-0.1,0.6-0.7,0.7-0.8c0,0.3,0.4,0.8,0.3,0.9
		c0,0-0.9,0.9-1,1.2c0,0.1-0.1,0.3-0.1,0.4c0,0,0,0,0,0c0,0.1,0,0.1,0,0.2c0,0.1-0.1,0.4-0.1,0.6c0,0.1-1,0.9-1.1,2
		c-0.1,0.4,0.2,0.4,0.3,0.4c-0.1,0-0.7,0.5-2,0.7c-3.2-0.7-6.3-2-8.9-3.8c-0.1,0-0.2-0.1-0.2-0.2c-0.1,0-0.2-0.1-0.2-0.2
		c0,0,0,0,0,0l0,0c0,0,0,0,0,0c0,0-0.1,0-0.1-0.1c-1-0.7-2-1.5-2.9-2.4c-1.8-1.8-3.3-3.8-4.4-6c0,0.1-0.7,0.6-1.3,0.8
		c0-0.2-0.2-0.4,0.2-0.5c0.3-0.1,0.2-0.5,0.3-0.5c0-0.1,0.4-0.3,0.6-0.4l0,0c0.1-0.1,0.7-0.7,0.8-0.8c0.2-0.2,0.3-0.4,0.3-0.6
		c0-0.2,0.1-0.2,0.4-0.3c0.3-0.1,0.4-0.5,0.5-0.7c0-0.1-0.1-0.4-0.2-0.5c-0.1-0.3,0-0.8,0.1-1c0.2-0.3,0.5-0.5,0-1.1
		c-0.2-0.2-0.1-0.5-0.1-0.7c0-0.3-0.2-0.8-1.4,0c-0.1,0.1-0.2-0.1-0.3-0.1c-0.1,0-0.4,0-0.7,0.5C7.8,35,7.7,35.1,7.5,35
		c-0.1,0-0.3,0.1-0.4,0.1C7,35.2,7,35.2,6.8,35.3l-0.6,0.4l0,0c-0.2-0.2-0.5-0.3-0.7-0.4c-0.8-0.4-1.6-0.5-2.5-0.6
		c-0.9-0.1-1.8-0.4-2.5-1.1c-0.1-1.1-0.2-2.2-0.2-3.3c0-0.1,0-0.3,0-0.4c0-16.2,13.2-29.4,29.7-29.6c0.1,0,0.3,0,0.4,0
		c16.5,0,29.9,13,30.2,29.2c0,0.1,0,0.3,0,0.4C60.7,31.2,60.7,32.3,60.5,33.5z M32.9,23.7c0,0,0,0.1,0,0.1c-1,0-3,0-4,0
		c0.1,0,3.8-1.7,4.4-1.8c0,0.1,0,0.2-0.1,0.3C33.1,22.7,32.9,23.6,32.9,23.7z M33.1,15.5L33.1,15.5c-1.4,0.7-2.7,2-3.7,3.1
		c-0.4,0.5-1,0.7-1.6,1c0-0.1,1.8-3.8,1.9-4c0,0,0.4-0.2,0.8-0.2c0.5,0,0.9,0,1.4,0l1.1,0l0,0L33.1,15.5z M37.9,4.1
		c0.2,0.2,0.1,0.5,0,0.8c-0.2-0.1-0.5-0.1-0.7-0.2c0-0.1,0.1-0.5,0.1-0.6l0-0.1C37.4,3.9,37.7,4,37.9,4.1z M37.4,3.5l0-0.3
		c0-0.2,0.1-0.5,0.1-0.7l0.1-0.1c0.2,0,0.6,0.1,0.6,0.3c0.2,0.3,0,0.9-0.4,0.9C37.7,3.6,37.5,3.6,37.4,3.5z M41.2,10.9
		c0,0,0.8,0.1,0.9,0.4c0,0,0.3,0.6-0.4,0.3C41.7,11.6,41.4,11.7,41.2,10.9z M40.9,9.4c0.1,0,0.5,0.2,0.5,0.2
		c0.4,0.1,0.3,0.3,0.3,0.3c-0.1,0.1-0.7-0.1-0.7-0.1C40.7,9.6,40.9,9.4,40.9,9.4z"/>
	<line class="st2" x1="52.2" y1="34.9" x2="52.4" y2="34.8"/>
	<line class="st2" x1="21.1" y1="46.2" x2="21.1" y2="46.2"/>
	<line class="st2" x1="22.9" y1="32.1" x2="22.9" y2="32.1"/>
	<line class="st2" x1="46.7" y1="37.2" x2="46.6" y2="37.3"/>
	<line class="st2" x1="29.2" y1="54.9" x2="29" y2="55"/>
	<polygon class="st1" points="7.3,39.9 7.3,39.9 7.3,39.9 	"/>
	<path class="st1" d="M9.7,35.6c-0.2,0-0.4,0.3-0.4,0.4c-0.1,0.2-0.2,0.3-0.3,0.5c-0.1,0.2-0.1,0.4-0.2,0.7
		c-0.1,0.2-0.2,0.4-0.3,0.6c-0.1,0.1-0.2,0.2-0.2,0.3c0,0.1,0,0.2,0,0.4c-0.1,0.2-0.3,0.3-0.5,0.5c0,0.1-0.1,0.2-0.2,0.3
		c-0.1,0.1-0.1,0.2-0.2,0.3c0,0,0,0.1,0,0.1c-0.1,0.1-0.1,0.2-0.1,0.3c0,0,0,0,0,0c0.1-0.2,0.4-0.2,0.5-0.3c0.1-0.1,0.1-0.2,0.2-0.3
		c0.1-0.1,0.2-0.1,0.3-0.2c0.3-0.2,0.3-0.4,0.4-0.6c0.1-0.2,0.2-0.4,0.4-0.6c0.2-0.1,0.3-0.2,0.3-0.5c0-0.2,0-0.4,0-0.6
		c-0.1-0.2-0.1-0.4,0-0.6C9.6,36,9.7,35.9,9.7,35.6z"/>
	<path class="st1" d="M8.7,34.8L8.7,34.8c-0.1,0-0.2,0-0.3,0.1c-0.1,0.1-0.1,0.2-0.2,0.2c-0.2,0.2-0.3,0.3-0.5,0.4
		c-0.2,0.1-0.5,0.2-0.6,0.4c-0.2,0.1-0.4,0.2-0.6,0.4c-0.2,0.2-0.1,0.5-0.1,0.7c-0.1,0.3-0.2,0.4-0.4,0.7c-0.1,0.2,0,0.4,0.1,0.7
		C6,38.5,6,38.6,6,38.8c0,0.1,0,0.3,0.2,0.2c0.2-0.1,0.2-0.5,0.2-0.7c0.1-0.2,0.1-0.5,0.2-0.7c0.2-0.2,0.4-0.3,0.6-0.6
		c0.2-0.2,0.2-0.5,0.3-0.7c0.2-0.3,0.5-0.5,0.8-0.8c0.1-0.1,0.2-0.2,0.3-0.4C8.8,35.1,8.9,34.7,8.7,34.8z"/>
	<path class="st1" d="M55.2,39.2C55.2,39.2,55.2,39.2,55.2,39.2c0,0,0.1,0,0.1,0c0.1,0,0.1-0.1,0.1-0.1c0.1-0.1,0.1-0.2,0.1-0.3
		c0.1-0.5,0.2-1.1,0.4-1.6c0.1-0.2,0.2-0.4,0.3-0.6c0-0.2,0.1-0.4,0.1-0.6c-0.1,0.1-0.3,0.3-0.4,0.3c-0.1,0.1-0.2,0.2-0.3,0.3
		c-0.2,0.2-0.2,0.4-0.2,0.7c0,0.2,0,0.5,0.1,0.7c0,0.2,0,0.5,0,0.7C55.3,38.9,55.2,39,55.2,39.2L55.2,39.2L55.2,39.2z"/>
	<path class="st1" d="M54.1,38.9C54.1,38.9,54.1,38.9,54.1,38.9L54.1,38.9c0.1,0.1,0.2,0.2,0.3,0.2c0.1,0.1,0.2,0.2,0.2,0.3
		c0.1,0.2,0.1,0.3,0.2,0.5c0,0,0,0,0,0c0,0,0,0,0.1,0c0,0,0.1,0,0.1-0.1h0c0,0,0,0,0,0c0.1-0.3-0.2-0.6-0.3-0.9
		c-0.1-0.2-0.2-0.3-0.2-0.5c0-0.2,0-0.3,0.1-0.4c0-0.1,0.1-0.5-0.1-0.5c-0.2,0-0.2,0.3-0.2,0.4c0,0.1,0,0.1-0.1,0.2
		c0,0.1-0.1,0.2-0.2,0.3C54,38.6,54,38.7,54.1,38.9C54.1,38.9,54.1,38.9,54.1,38.9z"/>
</g>
</svg>
